<svg width="277" height="250" viewBox="0 0 277 250" fill="none" xmlns="http://www.w3.org/2000/svg">
<g clip-path="url(#clip0)">
<path d="M201.103 141.865V210.926L213.156 229.752L214.073 231.184H261.628L262.589 141.865H201.103Z" fill="#E6E6E6"/>
<path opacity="0.1" d="M201.103 141.865V210.926L213.156 229.752L213.895 141.865H201.103Z" fill="black"/>
<path d="M86.2976 140.023V209.084L74.2452 227.91L73.328 229.342H25.7725L24.8116 140.023H86.2976Z" fill="#E6E6E6"/>
<path opacity="0.1" d="M86.2976 140.023V209.084L74.2452 227.91L73.5056 140.023H86.2976Z" fill="black"/>
<path d="M277 138.642V142.786H18.567V136.8L42.5848 124.83H255.864L277 138.642Z" fill="#E6E6E6"/>
<path opacity="0.1" d="M277 138.642V142.786H18.567V136.8L277 138.642Z" fill="black"/>
<path d="M55.5548 159.36H44.0259L39.2224 156.137H60.8386L55.5548 159.36Z" fill="#3F3D56"/>
<path d="M55.5548 172.712H44.0259L39.2224 169.489H60.8386L55.5548 172.712Z" fill="#3F3D56"/>
<path d="M55.5548 191.589H44.0259L39.2224 188.366H60.8386L55.5548 191.589Z" fill="#3F3D56"/>
<path d="M55.5548 210.465H44.0259L39.2224 207.243H60.8386L55.5548 210.465Z" fill="#3F3D56"/>
<path d="M231.846 161.202H243.375L248.179 157.979H226.562L231.846 161.202Z" fill="#3F3D56"/>
<path d="M231.846 174.554H243.375L248.179 171.331H226.562L231.846 174.554Z" fill="#3F3D56"/>
<path d="M231.846 193.43H243.375L248.179 190.208H226.562L231.846 193.43Z" fill="#3F3D56"/>
<path d="M231.846 212.307H243.375L248.179 209.084H226.562L231.846 212.307Z" fill="#3F3D56"/>
<path d="M239.697 44.9677H142.642C142.16 44.9676 141.683 45.0586 141.237 45.2354C140.792 45.4121 140.387 45.6713 140.046 45.998C139.706 46.3247 139.435 46.7125 139.251 47.1394C139.066 47.5662 138.971 48.0237 138.971 48.4857V111.149C138.971 111.611 139.066 112.068 139.251 112.495C139.435 112.922 139.706 113.31 140.046 113.637C140.387 113.963 140.792 114.222 141.237 114.399C141.683 114.576 142.16 114.667 142.642 114.667H179.485L178.105 123.114C178.105 123.114 170.216 127.13 175.763 127.248C181.309 127.366 207.439 127.248 207.439 127.248C207.439 127.248 212.492 127.248 204.481 122.995L203.183 114.667H239.697C240.179 114.667 240.656 114.576 241.102 114.399C241.547 114.222 241.952 113.963 242.293 113.637C242.633 113.31 242.904 112.922 243.088 112.495C243.273 112.068 243.368 111.611 243.368 111.149V48.4857C243.368 48.0237 243.273 47.5662 243.088 47.1394C242.904 46.7125 242.633 46.3247 242.293 45.998C241.952 45.6713 241.547 45.4121 241.102 45.2354C240.656 45.0586 240.179 44.9676 239.697 44.9677Z" fill="#3F3D56"/>
<path d="M239.855 48.6889H142.484V100.904H239.855V48.6889Z" fill="#F2F2F2"/>
<path d="M191.17 47.6257C191.51 47.6257 191.786 47.3612 191.786 47.035C191.786 46.7088 191.51 46.4443 191.17 46.4443C190.829 46.4443 190.553 46.7088 190.553 47.035C190.553 47.3612 190.829 47.6257 191.17 47.6257Z" fill="#F2F2F2"/>
<path d="M191.17 112.127C192.463 112.127 193.511 111.122 193.511 109.882C193.511 108.643 192.463 107.638 191.17 107.638C189.876 107.638 188.828 108.643 188.828 109.882C188.828 111.122 189.876 112.127 191.17 112.127Z" fill="#F2F2F2"/>
<path d="M187.52 133.627V134.809H121.21V133.864L121.301 133.627L122.935 129.375H186.165L187.52 133.627Z" fill="#3F3D56"/>
<path d="M213.039 132.471C212.918 132.966 212.462 133.488 211.432 133.982C207.734 135.754 200.215 133.509 200.215 133.509C200.215 133.509 194.422 132.564 194.422 130.083C194.585 129.977 194.755 129.88 194.93 129.794C196.485 129.006 201.639 127.061 210.779 129.876C211.452 130.079 212.054 130.457 212.516 130.968C212.721 131.161 212.875 131.398 212.966 131.659C213.057 131.92 213.082 132.199 213.039 132.471Z" fill="#3F3D56"/>
<path opacity="0.1" d="M213.039 132.471C208.513 134.133 204.479 134.257 200.339 131.501C198.773 130.392 196.877 129.793 194.93 129.794C196.485 129.006 201.639 127.061 210.779 129.876C211.452 130.079 212.054 130.457 212.516 130.968C212.721 131.161 212.875 131.398 212.966 131.659C213.057 131.92 213.082 132.199 213.039 132.471Z" fill="black"/>
<path d="M207.364 131.501C208.249 131.501 208.966 131.29 208.966 131.029C208.966 130.768 208.249 130.556 207.364 130.556C206.479 130.556 205.762 130.768 205.762 131.029C205.762 131.29 206.479 131.501 207.364 131.501Z" fill="#F2F2F2"/>
<path opacity="0.1" d="M187.52 133.627V134.809H121.21V133.864L121.301 133.627H187.52Z" fill="black"/>
<path d="M36.8696 -4.82425e-07C36.1966 -0.0529599 35.5227 0.0913266 34.9372 0.41374C34.3624 0.791083 34 1.45215 33.6302 2.06731C32.216 4.4474 30.3016 6.52007 28.0082 8.15401C26.3377 9.32696 24.2139 10.7895 24.4997 12.9521C24.6505 13.6663 24.9257 14.351 25.3139 14.9775C26.855 17.9591 31.0603 20.2633 30.6467 23.6656C32.1777 21.2088 30.1298 19.9941 31.6609 17.5373C32.39 16.3674 33.6567 15.0467 34.7575 15.7815C35.1261 16.0275 35.3682 16.4687 35.752 16.6846C36.6677 17.1996 37.642 16.2149 38.4526 15.5175C41.2479 13.1124 45.2231 13.7425 48.7016 14.4918C50.3438 14.8456 52.1475 15.3098 53.1183 16.8141C54.3946 18.792 51.9056 20.9281 51.2768 23.1643C51.2254 23.3548 51.223 23.5545 51.2697 23.7461C51.3164 23.9377 51.4108 24.1157 51.5449 24.2647C51.679 24.4138 51.8487 24.5294 52.0396 24.6019C52.2305 24.6743 52.4369 24.7014 52.6411 24.6807C53.6848 24.5821 54.9213 24.5012 54.983 24.0622C56.2962 24.107 57.9052 23.9644 58.4679 22.6539C58.6398 22.1353 58.7307 21.5952 58.7376 21.0512C58.9441 18.8497 59.919 16.8413 60.5648 14.746C61.2106 12.6507 61.4914 10.1951 60.4016 8.33741C60.0126 7.71932 59.5316 7.15897 58.9737 6.6741C52.789 0.937519 44.6575 -0.00851571 36.8696 -4.82425e-07Z" fill="#2F2E41"/>
<path d="M31.9917 27.963C31.9917 27.963 33.3368 38.7063 28.4049 39.5657C23.473 40.4252 32.8884 55.0361 32.8884 55.0361L55.3062 57.6145L49.9259 40.4252C49.9259 40.4252 46.3391 39.136 48.5809 30.5413C50.8227 21.9467 31.9917 27.963 31.9917 27.963Z" fill="#FFB8B8"/>
<path d="M18.3169 212.533L20.1105 236.168H29.5256L26.8358 212.533H18.3169Z" fill="#FFB8B8"/>
<path d="M87.3636 167.841L88.7085 187.608L99.021 183.311L94.9855 166.981L87.3636 167.841Z" fill="#FFB8B8"/>
<path d="M11.5916 122.289C11.5916 122.289 12.04 147.214 14.7301 155.378C17.4203 163.543 16.9719 163.973 16.5235 165.262C16.0752 166.552 15.6268 165.692 15.6268 167.841C15.6268 169.989 14.7301 203.938 15.6268 206.946C16.5235 209.954 12.9367 215.111 15.6268 215.541C18.317 215.971 30.8709 215.541 31.3193 212.963C31.7676 210.384 27.7324 209.525 29.5258 207.806C31.3193 206.087 34.0094 170.849 34.0094 170.849L40.2864 146.354L51.9436 133.462H76.6031L84.2252 161.824C84.2252 161.824 81.0867 169.989 83.3284 169.989C85.5702 169.989 99.0209 172.568 99.0209 163.114C99.0209 153.66 94.5373 125.727 93.6406 124.868C92.7439 124.008 94.089 121 92.7439 119.711C91.3988 118.422 75.7064 109.397 69.8778 107.678C64.0492 105.959 55.8726 103.913 55.8726 103.913L11.5916 122.289Z" fill="#2F2E41"/>
<path d="M99.0208 179.873C99.0208 179.873 92.2955 177.725 89.157 184.171C86.0185 190.617 87.3636 192.335 87.3636 192.335C87.3636 192.335 97.6758 195.773 99.4692 194.054C100.249 193.307 102.727 193.047 105.278 192.992C109.162 192.908 110.195 187.641 106.527 186.415C106.417 186.378 106.307 186.346 106.195 186.319C102.608 185.46 99.0208 179.873 99.0208 179.873Z" fill="#2F2E41"/>
<path d="M42.0797 35.0535C49.5083 35.0535 55.5304 29.2816 55.5304 22.1616C55.5304 15.0415 49.5083 9.26962 42.0797 9.26962C34.6512 9.26962 28.6291 15.0415 28.6291 22.1616C28.6291 29.2816 34.6512 35.0535 42.0797 35.0535Z" fill="#FFB8B8"/>
<path d="M24.5939 44.9373C24.5939 44.9373 46.5633 49.2346 51.9436 42.3589C57.3238 35.4832 59.5656 61.6969 59.5656 61.6969L62.2557 89.1997L58.2205 104.24C58.2205 104.24 37.1478 120.57 30.4225 121.859C23.6972 123.149 13.385 124.008 13.385 124.008C13.385 124.008 16.5235 76.3077 16.5235 75.4483C16.5235 74.5888 24.5939 44.9373 24.5939 44.9373Z" fill="#6C63FF"/>
<path d="M31.2753 36.8779C31.2753 36.8779 26.3873 34.194 25.0422 36.7724C23.6972 39.3508 11.1432 45.7968 9.79814 45.7968C8.45308 45.7968 12.4883 81.4646 10.6949 85.7619C8.90143 90.0592 0.382689 121.43 5.3146 124.008C10.2465 126.586 6.65966 121.43 11.5916 127.876C16.5235 134.322 40.7346 134.322 42.0797 131.743C43.4248 129.165 31.3192 109.827 33.561 91.7781C35.8027 73.7294 39.3896 48.8049 36.2511 45.3671C33.1126 41.9292 31.2753 36.8779 31.2753 36.8779Z" fill="#2F2E41"/>
<path d="M47.46 39.7805L48.0845 37.7206C48.0845 37.7206 66.7393 43.6481 67.636 47.5157C68.5327 51.3833 68.0844 78.4565 64.9459 80.6051C61.8074 82.7538 57.3238 86.1916 60.4623 91.3484C63.6008 96.5052 67.1876 102.092 69.8778 102.521C72.5679 102.951 77.4998 105.959 76.1548 108.967C74.8097 111.976 58.6689 106.389 58.6689 106.389C58.6689 106.389 47.9084 98.6538 48.3567 86.6213C48.8051 74.5888 47.46 39.7805 47.46 39.7805Z" fill="#2F2E41"/>
<path d="M63.1524 90.4889L52.3919 109.827C52.3919 109.827 36.6994 125.297 45.6666 127.016C54.6337 128.735 59.5656 112.835 59.5656 112.835L71.2228 96.9349L63.1524 90.4889Z" fill="#FFB8B8"/>
<path d="M37.5248 3.37322C36.9827 3.33472 36.4396 3.43567 35.9518 3.66565C35.5107 3.9744 35.1472 4.3737 34.8878 4.83438C33.6919 6.55854 32.133 8.02392 30.3113 9.13642C28.9514 9.96546 27.2226 10.9991 27.4552 12.5277C27.5815 13.0401 27.8063 13.5256 28.1181 13.9592C29.3769 16.0879 29.878 18.5517 29.5456 20.9777L33.2848 15.7685C33.8783 14.9416 34.9094 14.0082 35.8056 14.5275C36.1056 14.7013 36.3026 15.0132 36.6151 15.1658C37.3605 15.5298 38.1536 14.8339 38.8135 14.3409C41.089 12.641 44.325 13.0863 47.1566 13.616C48.4934 13.866 49.9617 14.1941 50.752 15.2573C52.0652 17.0242 50.6939 19.5773 51.4604 21.6185C51.6749 21.4746 51.8571 21.2908 51.9962 21.0781C52.1353 20.8653 52.2284 20.628 52.27 20.3802C53.3389 20.4119 54.6488 20.3111 55.1068 19.3848C55.2461 19.0218 55.3203 18.6388 55.3264 18.252C55.4945 16.696 56.288 15.2765 56.8137 13.7956C57.3395 12.3146 57.568 10.5791 56.6809 9.26604C56.3563 8.82115 55.9646 8.42495 55.5185 8.09042C50.4839 4.03585 43.8645 3.3672 37.5248 3.37322Z" fill="#2F2E41"/>
<path d="M63.1524 45.7968L67.3298 46.8596C67.3298 46.8596 77.0514 70.7213 74.8096 87.0511C72.5679 103.381 71.2228 99.9431 71.2228 99.9431C71.2228 99.9431 67.636 92.2079 59.5656 93.9268L63.1524 45.7968Z" fill="#2F2E41"/>
<path d="M18.9381 233.044C17.8569 234.453 18.0737 236.466 17.1159 237.954C16.2858 239.244 14.7212 239.92 13.6828 241.063C13.3515 241.443 13.0561 241.85 12.8002 242.28C11.8369 243.826 11.054 245.808 12.0027 247.363C12.7658 248.614 14.3699 249.103 15.8411 249.436C17.7005 249.857 19.6325 250.194 21.5134 249.872C23.3943 249.55 25.2326 248.446 25.9032 246.732C26.035 246.3 26.1917 245.877 26.3726 245.462C27.3921 243.538 30.5898 243.518 31.6332 241.606C32.3633 240.268 31.6921 238.651 31.0212 237.284L28.9721 233.112C28.292 231.727 25.5353 232.523 24.0982 232.192C22.2239 231.759 20.2865 231.282 18.9381 233.044Z" fill="#2F2E41"/>
<path d="M3.96954 99.0836L22.8005 127.016C22.8005 127.016 34.4577 141.197 38.0445 134.751C41.6314 128.305 25.4906 117.562 25.4906 117.562L13.385 96.0755L3.96954 99.0836Z" fill="#FFB8B8"/>
<path d="M13.385 46.6563L9.79816 45.7968C9.79816 45.7968 2.62448 47.9455 0.831063 56.9699C-0.962356 65.9942 0.382705 102.092 2.62448 102.521C4.86626 102.951 13.6966 96.2362 15.11 97.6599C16.5235 99.0836 12.0399 91.7782 13.385 87.9106C14.73 84.043 13.385 46.6563 13.385 46.6563Z" fill="#2F2E41"/>
<path d="M181.954 65.8382H170.365V68.5121H181.954V65.8382Z" fill="#6C63FF"/>
<path d="M222.083 65.8382H218.006V68.5121H222.083V65.8382Z" fill="#6C63FF"/>
<path d="M230.238 65.8382H226.16V68.5121H230.238V65.8382Z" fill="#6C63FF"/>
<path d="M213.714 65.8382H186.031V68.5121H213.714V65.8382Z" fill="#6C63FF"/>
<path d="M167.361 83.1155H155.773V85.7894H167.361V83.1155Z" fill="#6C63FF"/>
<path d="M207.49 83.1155H203.413V85.7894H207.49V83.1155Z" fill="#6C63FF"/>
<path d="M215.645 83.1155H211.568V85.7894H215.645V83.1155Z" fill="#6C63FF"/>
<path d="M199.121 83.1155H171.438V85.7894H199.121V83.1155Z" fill="#6C63FF"/>
<path d="M215.216 71.803H203.628V74.4769H215.216V71.803Z" fill="#6C63FF"/>
<path d="M230.882 71.803H219.293V74.4769H230.882V71.803Z" fill="#6C63FF"/>
<path d="M159.85 71.803H155.773V74.4769H159.85V71.803Z" fill="#6C63FF"/>
<path d="M168.005 71.803H163.927V74.4769H168.005V71.803Z" fill="#6C63FF"/>
<path d="M199.765 71.803H172.082V74.4769H199.765V71.803Z" fill="#6C63FF"/>
<path d="M191.181 77.5621H179.593V80.236H191.181V77.5621Z" fill="#6C63FF"/>
<path d="M175.516 77.5621H163.927V80.236H175.516V77.5621Z" fill="#6C63FF"/>
<path d="M159.85 77.5621H155.773V80.236H159.85V77.5621Z" fill="#6C63FF"/>
<path d="M230.882 77.5621H226.804V80.236H230.882V77.5621Z" fill="#6C63FF"/>
<path d="M222.727 77.5621H195.044V80.236H222.727V77.5621Z" fill="#6C63FF"/>
</g>
<defs>
<clipPath id="clip0">
<rect width="277" height="250" fill="white"/>
</clipPath>
</defs>
</svg>
