<svg width="47" height="43" viewBox="0 0 47 43" fill="none" xmlns="http://www.w3.org/2000/svg">
<path d="M0 6.99999C0 3.134 3.13401 0 7 0H40C43.866 0 47 3.13401 47 7V35.1304C47 38.9964 43.866 42.1304 40 42.1304H7C3.13401 42.1304 0 38.9964 0 35.1304V6.99999Z" fill="#C4C4C4"/>
<path d="M6.85419 8.13048C6.85419 7.31406 7.51603 6.65222 8.33245 6.65222H41.6051C42.4215 6.65222 43.0834 7.31406 43.0834 8.13048C43.0834 8.9469 42.4215 9.60874 41.6051 9.60874H8.33245C7.51603 9.60874 6.85419 8.9469 6.85419 8.13048Z" fill="white"/>
<rect x="22.5208" y="11.087" width="20.5625" height="8.13043" rx="3" fill="#6C63FF"/>
<rect x="22.5208" y="21.4348" width="20.5625" height="8.13043" rx="3" fill="white"/>
<rect x="22.5208" y="31.7826" width="20.5625" height="8.86957" rx="3" fill="#6C63FF"/>
<rect x="1.95831" y="11.087" width="15.6667" height="28.087" rx="3" fill="#6C63FF"/>
<rect x="22.5208" y="1.47827" width="6.72288" height="3.69921" rx="1.84961" fill="white"/>
<rect x="29.5493" y="1.47827" width="6.51916" height="3.69921" rx="1.84961" fill="white"/>
<rect x="36.374" y="1.47827" width="6.82474" height="3.69921" rx="1.84961" fill="white"/>
</svg>
