<svg width="40" height="40" viewBox="0 0 40 40" fill="none" xmlns="http://www.w3.org/2000/svg">
<path d="M34.5118 3.28684H9.86034C8.98861 3.28684 8.15258 3.63314 7.53618 4.24954C6.91977 4.86595 6.57348 5.70197 6.57348 6.5737V11.504H3.28662V14.7908H6.57348V18.0777H3.28662V21.3646H6.57348V24.6514H3.28662V27.9383H6.57348V32.8686C6.57348 33.7403 6.91977 34.5763 7.53618 35.1927C8.15258 35.8091 8.98861 36.1554 9.86034 36.1554H34.5118C34.9476 36.1554 35.3656 35.9823 35.6738 35.6741C35.982 35.3659 36.1552 34.9478 36.1552 34.512V4.93027C36.1552 4.49441 35.982 4.07639 35.6738 3.76819C35.3656 3.45999 34.9476 3.28684 34.5118 3.28684ZM21.3643 8.21548C24.0727 8.21548 26.2946 10.4358 26.2946 13.1458C26.2899 14.452 25.7689 15.7035 24.8454 16.6273C23.9219 17.5512 22.6706 18.0725 21.3643 18.0777C18.6576 18.0777 16.434 15.8541 16.434 13.1458C16.434 10.4358 18.6576 8.21548 21.3643 8.21548ZM31.2249 29.5817H11.5038V28.3491C11.5038 24.7024 15.9492 20.9537 21.3643 20.9537C26.7794 20.9537 31.2249 24.7024 31.2249 28.3491V29.5817Z" fill="#6C63FF"/>
</svg>
