<svg width="304" height="201" viewBox="0 0 304 201" fill="none" xmlns="http://www.w3.org/2000/svg">
<g clip-path="url(#clip0)">
<path d="M222.254 201C213.848 199.684 205.766 198.564 198.009 197.641L200.996 191.665C199.959 191.319 195.466 194.777 195.466 194.777L199.268 177.489C194.083 178.181 191.663 195.814 191.663 195.814L185.787 189.936L188.68 196.591C164.94 194.096 144.455 193.317 127.235 193.496L129.792 188.38C128.755 188.035 124.261 191.492 124.261 191.492L128.064 174.205C122.879 174.896 120.459 192.529 120.459 192.529L114.583 186.652L117.647 193.7C105.851 194.043 94.0811 194.991 82.3827 196.54C84.9341 188.59 93.8442 180.947 93.8442 180.947C86.9932 183.079 83.429 186.552 81.5842 189.772C81.211 173.437 83.7232 157.165 89.0051 141.704C89.0051 141.704 75.179 172.822 77.2529 193.566L77.5161 197.251C65.4876 199.128 59.4519 201 59.4519 201H222.254Z" fill="#3F3D56"/>
<path d="M253.94 158.174C253.12 158.174 252.318 157.931 251.636 157.475C250.954 157.019 250.422 156.371 250.108 155.613C249.794 154.855 249.712 154.021 249.872 153.216C250.032 152.411 250.427 151.672 251.007 151.092C251.587 150.511 252.327 150.116 253.131 149.956C253.936 149.796 254.77 149.878 255.528 150.192C256.286 150.506 256.933 151.038 257.389 151.72C257.845 152.403 258.088 153.205 258.088 154.025C258.087 155.125 257.649 156.18 256.872 156.958C256.094 157.736 255.04 158.173 253.94 158.174ZM253.94 150.568C253.257 150.568 252.588 150.771 252.02 151.151C251.452 151.53 251.009 152.07 250.747 152.702C250.485 153.334 250.417 154.029 250.55 154.7C250.684 155.371 251.013 155.987 251.496 156.47C251.98 156.954 252.595 157.283 253.266 157.416C253.936 157.55 254.631 157.481 255.263 157.22C255.895 156.958 256.434 156.515 256.814 155.946C257.194 155.378 257.397 154.709 257.397 154.025C257.396 153.109 257.031 152.23 256.383 151.582C255.735 150.934 254.857 150.569 253.94 150.568Z" fill="#3F3D56"/>
<path d="M287.063 200.456H280.24V193.63H287.063V200.456ZM280.764 199.931H286.538V194.155H280.764V199.931Z" fill="#3F3D56"/>
<path d="M56.0452 200.829L51.391 195.838L56.3809 191.182L61.0351 196.174L56.0452 200.829ZM52.1328 195.864L56.071 200.087L60.2932 196.148L56.3551 191.924L52.1328 195.864Z" fill="#3F3D56"/>
<path d="M304 200.07H7.49109V200.762H304V200.07Z" fill="#3F3D56"/>
<path d="M191.309 46.2471V68.9557C191.309 69.1655 191.225 69.3666 191.077 69.5149C190.928 69.6633 190.727 69.7469 190.518 69.7475H189.954V188.045C189.954 191.318 188.654 194.458 186.34 196.772C184.026 199.087 180.887 200.388 177.614 200.388H103.718C102.097 200.388 100.493 200.068 98.9962 199.448C97.4994 198.827 96.1394 197.918 94.9938 196.772C93.8483 195.626 92.9396 194.265 92.3198 192.768C91.7 191.27 91.3812 189.665 91.3815 188.045V73.8964H90.9736C90.8256 73.8966 90.6836 73.8382 90.5786 73.7338C90.4737 73.6295 90.4143 73.4878 90.4136 73.3398V60.4158C90.4136 60.3422 90.4281 60.2694 90.4562 60.2014C90.4844 60.1334 90.5256 60.0717 90.5776 60.0197C90.6296 59.9677 90.6913 59.9264 90.7593 59.8983C90.8272 59.8701 90.9 59.8556 90.9736 59.8557H91.3815V54.9875H90.9701C90.8148 54.9869 90.666 54.9247 90.5565 54.8145C90.447 54.7043 90.3857 54.5552 90.386 54.3998V41.6521C90.3864 41.4972 90.4481 41.3489 90.5575 41.2394C90.667 41.1299 90.8153 41.0682 90.9701 41.0678H91.3814V34.4225H90.9632C90.8951 34.4226 90.8276 34.4093 90.7647 34.3832C90.7017 34.3572 90.6445 34.319 90.5964 34.2708C90.5482 34.2227 90.51 34.1655 90.484 34.1025C90.458 34.0395 90.4446 33.972 90.4447 33.9039V26.9475C90.4444 26.8095 90.4988 26.6771 90.596 26.5792C90.6932 26.4813 90.8253 26.426 90.9632 26.4254H91.3814V12.3397C91.3816 9.06704 92.6813 5.92846 94.9948 3.61434C97.3083 1.30023 100.446 0.000119199 103.718 1.26293e-10H177.614C180.887 -1.4795e-05 184.025 1.29994 186.339 3.61398C188.653 5.92803 189.953 9.06668 189.954 12.3397V45.4553H190.518C190.727 45.4559 190.928 45.5395 191.077 45.6878C191.225 45.8362 191.309 46.0372 191.309 46.2471Z" fill="#3F3D56"/>
<path d="M144.227 6.32951H132.219C131.733 6.32951 131.34 6.72299 131.34 7.20836V8.24652C131.34 8.73189 131.733 9.12537 132.219 9.12537H144.227C144.712 9.12537 145.105 8.73189 145.105 8.24652V7.20836C145.105 6.72299 144.712 6.32951 144.227 6.32951Z" fill="#E6E8EC"/>
<path d="M148.772 9.31325C149.647 9.31325 150.357 8.60326 150.357 7.72744C150.357 6.85161 149.647 6.14162 148.772 6.14162C147.896 6.14162 147.186 6.85161 147.186 7.72744C147.186 8.60326 147.896 9.31325 148.772 9.31325Z" fill="#E6E8EC"/>
<path d="M184.045 14.7808V189.068C184.046 190.201 183.801 191.321 183.326 192.35C182.851 193.379 182.157 194.292 181.294 195.025C179.878 196.233 178.077 196.896 176.216 196.896H105.479C104.22 196.898 102.98 196.595 101.863 196.014C101.601 195.88 101.347 195.73 101.103 195.565C100.04 194.847 99.169 193.88 98.5669 192.747C97.9649 191.614 97.65 190.351 97.6499 189.068V14.7808C97.6499 13.7524 97.8523 12.7341 98.2458 11.7839C98.6392 10.8338 99.2159 9.97047 99.9429 9.24327C100.67 8.51607 101.533 7.93924 102.483 7.5457C103.433 7.15216 104.451 6.94964 105.479 6.94968H116.066V8.30847C116.066 10.0186 116.745 11.6587 117.954 12.868C119.163 14.0773 120.803 14.7566 122.513 14.7566H158.488C160.198 14.7566 161.837 14.0773 163.046 12.868C164.255 11.6587 164.934 10.0186 164.934 8.30847V6.94968H176.216C177.245 6.94935 178.263 7.15168 179.213 7.54511C180.163 7.93855 181.026 8.51537 181.753 9.24263C182.48 9.96989 183.057 10.8333 183.45 11.7836C183.843 12.7339 184.046 13.7523 184.045 14.7808Z" fill="#2FAF83"/>
<path opacity="0.3" d="M184.045 164.119V189.068C184.046 190.201 183.801 191.321 183.326 192.35C182.851 193.379 182.157 194.292 181.294 195.025C179.878 196.233 178.077 196.896 176.216 196.896H105.479C104.22 196.898 102.98 196.595 101.863 196.014C101.601 195.88 101.347 195.73 101.103 195.565C100.04 194.847 99.169 193.88 98.5669 192.747C97.9649 191.614 97.65 190.351 97.6499 189.068V164.13C109.511 153.464 124.896 147.563 140.846 147.561C156.795 147.56 172.181 153.457 184.045 164.119Z" fill="white"/>
<path opacity="0.3" d="M179.839 196.007C178.722 196.594 177.478 196.899 176.216 196.896H105.479C104.22 196.898 102.98 196.595 101.863 196.014C105.066 188.31 110.477 181.728 117.416 177.097C124.354 172.466 132.508 169.994 140.849 169.993C149.19 169.993 157.344 172.463 164.283 177.093C171.222 181.722 176.635 188.304 179.839 196.007Z" fill="white"/>
<path opacity="0.3" d="M164.443 196.426C163.767 196.781 163.015 196.965 162.251 196.963H119.446C118.685 196.964 117.934 196.781 117.259 196.43C119.196 191.768 122.471 187.785 126.67 184.982C130.868 182.18 135.802 180.684 140.85 180.684C145.897 180.683 150.831 182.178 155.03 184.98C159.229 187.781 162.505 191.764 164.443 196.426Z" fill="white"/>
<path d="M158.843 74.4221C151.747 74.4221 143.959 73.0705 137.88 68.5098C129.416 62.1601 118.988 62.4989 111.731 63.9017C106.91 64.8412 102.231 66.4002 97.8096 68.5399L97.49 67.9267C101.965 65.7592 106.701 64.1793 111.581 63.2262C118.981 61.7936 129.623 61.4512 138.295 67.9568C154.54 80.1442 183.63 69.1981 183.921 69.0865L184.169 69.7321C178.714 71.677 173.072 73.0508 167.334 73.8316C164.52 74.2156 161.683 74.4129 158.843 74.4221Z" fill="white"/>
<path opacity="0.3" d="M97.6464 68.2333C97.6464 68.2333 121.496 62.4551 138.088 70.3665C154.679 78.2779 184.059 70.3078 184.059 70.3078" fill="white"/>
<path opacity="0.3" d="M120.163 77.2092C117.281 77.1963 114.408 76.9093 111.581 76.3521C106.701 75.399 101.965 73.8191 97.49 71.6516L97.8096 71.0384C102.231 73.1781 106.91 74.7371 111.731 75.6766C118.988 77.0792 129.416 77.4182 137.88 71.0685C146.544 64.5685 158.681 64.5867 167.334 65.7467C173.072 66.5274 178.714 67.9013 184.169 69.8462L183.921 70.4918C183.629 70.3798 154.541 59.4336 138.295 71.6215C132.608 75.8878 126.074 77.2092 120.163 77.2092Z" fill="white"/>
<path opacity="0.3" d="M120.28 74.425C108.309 74.425 97.6777 70.129 97.5182 70.0633L97.7815 69.4238C98.0181 69.5214 121.662 79.0699 137.912 69.4461C154.442 59.6546 183.851 68.3947 184.146 68.4842L183.945 69.1459C183.653 69.0575 154.533 60.405 138.264 70.041C132.712 73.3295 126.325 74.425 120.28 74.425Z" fill="white"/>
<path opacity="0.3" d="M97.6499 69.2118C97.6499 69.2118 121.496 77.1232 138.088 69.2118C154.679 61.3004 184.045 68.4643 184.045 68.4643" fill="white"/>
<path d="M190.201 90.3782V100.458C190.201 100.458 191.007 111.747 195.441 117.391C195.441 117.391 202.696 127.672 203.704 125.455L202.463 118.154L198.262 114.166L196.046 101.667L195.441 90.3782H190.201Z" fill="#FFB8B8"/>
<path d="M234.74 181.497V188.955L228.694 191.173V182.504L234.74 181.497Z" fill="#FFB8B8"/>
<path d="M222.446 180.69L226.477 189.762L220.834 192.181L219.625 183.311L222.446 180.69Z" fill="#FFB8B8"/>
<path d="M232.523 111.142C232.523 111.142 240.584 183.916 237.561 184.117C234.538 184.319 228.694 188.149 228.694 185.528C228.694 182.908 224.059 148.839 224.059 148.839L219.625 131.301V155.492L224.26 182.908C224.26 182.908 219.826 188.754 216.602 185.327L209.75 158.515C209.75 158.515 200.681 117.794 201.084 114.569C201.084 114.569 221.842 96.829 232.523 111.142Z" fill="#2F2E41"/>
<path d="M230.911 189.359C230.911 189.359 232.523 185.932 236.151 188.149L239.174 191.778C239.174 191.778 246.967 198.234 241.437 199.617C235.737 201.042 232.321 199.526 232.321 199.526C232.321 199.526 231.314 198.921 230.508 198.921C229.702 198.921 227.888 197.51 227.888 197.107C227.888 196.704 228.492 189.56 228.492 189.56C228.721 189.449 228.977 189.409 229.229 189.445C229.48 189.481 229.715 189.591 229.903 189.762C230.508 190.367 230.911 189.359 230.911 189.359Z" fill="#2F2E41"/>
<path d="M219.02 188.149C219.02 188.149 222.849 185.125 224.663 188.552C224.663 188.552 225.805 188.955 225.94 188.552C226.074 188.149 227.082 187.948 227.082 190.165C227.082 192.382 228.176 197.913 227.168 198.115C226.161 198.316 225.153 198.921 225.355 199.728C225.556 200.534 224.26 200.648 219.625 200.446C214.99 200.244 214.788 198.43 214.788 198.43C214.788 198.43 214.788 195.809 215.997 194.398C217.206 192.987 219.02 188.149 219.02 188.149Z" fill="#2F2E41"/>
<path d="M211.564 56.1079C211.564 56.1079 210.556 63.5667 217.005 66.1874C223.454 68.8081 202.696 77.4764 200.681 72.4367C198.666 67.3969 201.084 65.7842 201.084 65.7842C201.084 65.7842 203.099 63.7683 201.285 58.3254L211.564 56.1079Z" fill="#FFB8B8"/>
<path d="M205.115 61.3492C210.012 61.3492 213.982 57.378 213.982 52.4793C213.982 47.5806 210.012 43.6094 205.115 43.6094C200.217 43.6094 196.247 47.5806 196.247 52.4793C196.247 57.378 200.217 61.3492 205.115 61.3492Z" fill="#FFB8B8"/>
<path d="M215.393 68.6065C215.393 68.6065 209.347 71.8319 203.502 69.4128C197.658 66.9938 197.859 77.4764 197.859 77.4764L200.882 85.3384L221.842 83.3225L220.431 71.2271L215.393 68.6065Z" fill="#F2F2F2"/>
<path d="M212.389 61.7087C213.463 61.9366 214.471 62.4031 215.34 63.0736C216.209 63.7442 216.916 64.6017 217.408 65.5826L227.082 68.6065L229.5 72.0335L226.679 96.829C226.679 96.829 231.919 101.869 231.919 104.691C231.919 107.513 238.368 117.19 235.143 115.98C231.919 114.771 226.074 110.537 226.074 110.537C226.074 110.537 211.362 111.142 206.727 115.174C202.092 119.205 200.278 117.996 200.278 117.996C200.278 117.996 195.441 97.0306 195.239 93.8052C195.038 90.5797 189.395 71.2272 189.395 71.2272L199.472 65.5826L202.038 62.6697L209.145 74.0494L215.594 66.1874C215.594 66.1874 212.408 63.6809 212.389 61.7087Z" fill="#3F3D56"/>
<path d="M232.523 87.5559L233.732 94.0068C233.732 94.0068 239.174 114.166 238.368 121.02C238.368 121.02 238.972 136.341 235.546 134.526C232.12 132.712 233.934 121.625 233.934 121.625L229.097 101.667L226.477 89.975L232.523 87.5559Z" fill="#FFB8B8"/>
<path d="M227.485 70.824L229.5 72.0335C229.5 72.0335 237.158 87.9591 235.345 89.1686C233.531 90.3782 225.671 92.9988 225.671 92.9988L227.485 70.824Z" fill="#3F3D56"/>
<path d="M194.232 71.2273L189.496 71.1263L188.387 73.0414L189.798 92.5958L197.053 94.2083L194.232 71.2273Z" fill="#3F3D56"/>
<path d="M212.335 44.9776L213.934 44.3963C213.934 44.3963 210.592 41.0534 205.942 41.3441L207.25 40.036C207.25 40.036 204.053 38.8733 201.147 41.9255C199.62 43.5299 197.852 45.4159 196.75 47.5404H195.039L195.753 48.9696L193.253 50.3987L195.819 50.142C195.576 51.3759 195.66 52.6519 196.062 53.8435L196.643 55.4422C196.643 55.4422 198.968 50.7913 198.968 50.2099V51.6633C198.968 51.6633 200.566 50.3552 200.566 49.4832L201.438 50.5006L201.874 48.9018L207.25 50.5006L206.378 49.1925L209.72 49.6285L208.412 48.0298C208.412 48.0298 212.19 49.9192 212.335 51.518C212.481 53.1168 213.478 55.2008 213.478 55.2008L214.687 53.7896C214.687 53.7896 216.549 47.1578 212.335 44.9776Z" fill="#2F2E41"/>
<path d="M212.571 54.3944C212.961 54.3944 213.277 53.5821 213.277 52.5801C213.277 51.5781 212.961 50.7658 212.571 50.7658C212.182 50.7658 211.866 51.5781 211.866 52.5801C211.866 53.5821 212.182 54.3944 212.571 54.3944Z" fill="#FFB8B8"/>
<path d="M14.3908 189.129C18.6867 197.098 27.8042 200.519 27.8042 200.519C27.8042 200.519 29.9566 191.02 25.6607 183.051C21.3648 175.081 12.2473 171.66 12.2473 171.66C12.2473 171.66 10.0949 181.16 14.3908 189.129Z" fill="#3F3D56"/>
<path d="M17.3436 186.507C25.0994 191.175 28.0864 200.446 28.0864 200.446C28.0864 200.446 18.4987 202.149 10.7429 197.482C2.98703 192.814 0 183.543 0 183.543C0 183.543 9.5877 181.84 17.3436 186.507Z" fill="#2FAF83"/>
<path opacity="0.3" d="M97.6499 68.2333C97.6499 68.2333 121.496 55.7864 138.088 68.2333C154.679 80.6802 184.045 69.4094 184.045 69.4094" fill="white"/>
<path d="M140.939 194.889C143.039 194.889 144.741 193.186 144.741 191.086C144.741 188.985 143.039 187.282 140.939 187.282C138.839 187.282 137.137 188.985 137.137 191.086C137.137 193.186 138.839 194.889 140.939 194.889Z" fill="white"/>
</g>
<defs>
<clipPath id="clip0">
<rect width="304" height="201" fill="white"/>
</clipPath>
</defs>
</svg>
