<svg width="131" height="13" viewBox="0 0 131 13" fill="none" xmlns="http://www.w3.org/2000/svg">
<path d="M13.5918 8.26758L16.7432 0.385742H19.9014L15.1709 12.9912H12.0195L10.4404 8.78711L8.86816 12.9912H5.7168L0.986328 0.385742H4.14453L7.28906 8.26758L8.81348 4.44629L10.4404 0.385742H10.4541L12.0742 4.44629L13.5918 8.26758ZM28.2139 0.385742C29.0843 0.385742 29.9001 0.549805 30.6611 0.87793C31.4268 1.20605 32.0967 1.65723 32.6709 2.23145C33.2497 2.80566 33.7008 3.47559 34.0244 4.24121C34.3525 5.00228 34.5166 5.81803 34.5166 6.68848C34.5166 7.55892 34.3525 8.37695 34.0244 9.14258C33.7008 9.90365 33.2497 10.5736 32.6709 11.1523C32.0967 11.7266 31.4268 12.1755 30.6611 12.499C29.9001 12.8271 29.0843 12.9912 28.2139 12.9912C27.3434 12.9912 26.5254 12.8271 25.7598 12.499C24.9987 12.1755 24.3311 11.7266 23.7568 11.1523C23.1826 10.5736 22.7314 9.90365 22.4033 9.14258C22.0752 8.37695 21.9111 7.55892 21.9111 6.68848C21.9111 6.14616 21.9772 5.61979 22.1094 5.10938H25.4863C25.2038 5.58789 25.0625 6.11426 25.0625 6.68848C25.0625 7.26725 25.2038 7.7959 25.4863 8.27441C25.7689 8.75293 26.1494 9.13346 26.6279 9.41602C27.1064 9.69857 27.6351 9.83984 28.2139 9.83984C28.7926 9.83984 29.3213 9.69857 29.7998 9.41602C30.2783 9.13346 30.6589 8.75293 30.9414 8.27441C31.224 7.7959 31.3652 7.26725 31.3652 6.68848C31.3652 6.1097 31.224 5.58105 30.9414 5.10254C30.6589 4.62402 30.2783 4.24349 29.7998 3.96094C29.3213 3.67839 28.7926 3.53711 28.2139 3.53711H22.752C23.1211 2.90365 23.5814 2.35221 24.1328 1.88281C24.6888 1.41341 25.3132 1.04655 26.0059 0.782227C26.6986 0.517904 27.4346 0.385742 28.2139 0.385742ZM39.8281 0.385742V9.83984H46.124V12.9912H39.3701H36.6699V0.385742H39.8281ZM48.168 3.53711V0.385742H60.7803V3.53711H48.168ZM48.168 12.9912V5.10938H60.7803V8.26758H51.333V12.9912H48.168ZM62.9199 3.37988C62.9199 2.82845 63.0544 2.32715 63.3232 1.87598C63.5921 1.42025 63.9521 1.05794 64.4033 0.789062C64.859 0.520182 65.3626 0.385742 65.9141 0.385742H75.5254V3.53711H66.8027C66.5977 3.53711 66.4245 3.61003 66.2832 3.75586C66.1419 3.89714 66.0713 4.06803 66.0713 4.26855V4.35742C66.0713 4.56706 66.1442 4.74479 66.29 4.89062C66.4404 5.03646 66.6182 5.10938 66.8232 5.10938H72.4697C73.0303 5.10938 73.5407 5.24837 74.001 5.52637C74.4658 5.7998 74.835 6.16895 75.1084 6.63379C75.3864 7.09408 75.5254 7.60677 75.5254 8.17188V9.91504C75.5254 10.4847 75.3864 11.002 75.1084 11.4668C74.8304 11.9316 74.459 12.3008 73.9941 12.5742C73.5293 12.8522 73.0143 12.9912 72.4492 12.9912H62.9199V9.83984H71.5879C71.8021 9.83984 71.9867 9.76465 72.1416 9.61426C72.2965 9.45931 72.374 9.27246 72.374 9.05371C72.374 8.83496 72.2965 8.65039 72.1416 8.5C71.9867 8.34505 71.8021 8.26758 71.5879 8.26758H65.75C65.2305 8.26758 64.7542 8.13997 64.3213 7.88477C63.8929 7.62956 63.5511 7.28776 63.2959 6.85938C63.0452 6.43099 62.9199 5.95475 62.9199 5.43066V3.37988ZM77.5967 3.54395V0.392578H90.209V3.54395H85.4785V8.27441V9.84668V12.998H82.3271V9.84668V8.27441V3.54395H77.5967ZM95.0078 0.385742H98.1523L102.883 12.9912H99.7314L96.5801 5.10938L93.4355 12.9912H90.2773L95.0078 0.385742ZM108.126 8.16504C108.126 8.62533 108.288 9.01953 108.611 9.34766C108.939 9.67122 109.336 9.83301 109.801 9.83301H117.58V12.9844H107.894C107.356 12.9844 106.866 12.8522 106.424 12.5879C105.982 12.3281 105.629 11.9772 105.364 11.5352C105.104 11.0931 104.975 10.6032 104.975 10.0654V5.10254H108.126V8.16504ZM104.975 3.41406C104.975 2.85807 105.111 2.34993 105.385 1.88965C105.658 1.42936 106.025 1.0625 106.485 0.789062C106.946 0.515625 107.454 0.378906 108.01 0.378906H117.58V3.53027H104.975V3.41406ZM126.822 0.385742H130.603L125.551 6.70898L130.568 12.9912H126.788L123.657 9.08105L122.775 10.1816L122.769 12.9912H119.617V0.385742H122.769V5.45117L126.822 0.385742Z" fill="#3F3D56"/>
</svg>
