<svg width="414" height="703" viewBox="0 0 414 703" fill="none" xmlns="http://www.w3.org/2000/svg">
<g filter="url(#filter0_d)">
<rect x="64" y="210.849" width="235.863" height="201.839" rx="12" fill="url(#paint0_linear)"/>
</g>
<circle cx="284.744" cy="247.744" r="7.74433" fill="#DDFCF2"/>
<path d="M288.956 245.931L284.174 250.326L282.652 248.79L281.891 247.987L282.326 247.482L284.174 249.302L288.413 245.435L288.956 245.931Z" fill="#2FAF83" stroke="#2FAF83" stroke-width="0.5" stroke-linejoin="round"/>
<path d="M86.2793 237H85.1377V230.424C85.1377 229.904 85.1696 229.269 85.2334 228.517H85.2061C85.0967 228.959 84.9987 229.275 84.9121 229.467L81.5625 237H81.002L77.6592 229.521C77.5635 229.303 77.4655 228.968 77.3652 228.517H77.3379C77.3743 228.909 77.3926 229.549 77.3926 230.438V237H76.2852V227.197H77.8027L80.8105 234.033C81.043 234.557 81.1934 234.949 81.2617 235.209H81.3027C81.4987 234.671 81.6559 234.27 81.7744 234.006L84.8438 227.197H86.2793V237ZM91.6387 237.164C90.6042 237.164 89.777 236.838 89.1572 236.187C88.542 235.53 88.2344 234.662 88.2344 233.582C88.2344 232.406 88.5557 231.488 89.1982 230.827C89.8408 230.166 90.709 229.836 91.8027 229.836C92.8464 229.836 93.6598 230.157 94.2432 230.8C94.8311 231.442 95.125 232.333 95.125 233.473C95.125 234.589 94.8083 235.485 94.1748 236.159C93.5459 236.829 92.7005 237.164 91.6387 237.164ZM91.7207 230.779C91.0007 230.779 90.431 231.025 90.0117 231.518C89.5924 232.005 89.3828 232.68 89.3828 233.541C89.3828 234.37 89.5947 235.024 90.0186 235.503C90.4424 235.981 91.0098 236.221 91.7207 236.221C92.4453 236.221 93.0013 235.986 93.3887 235.517C93.7806 235.047 93.9766 234.38 93.9766 233.514C93.9766 232.639 93.7806 231.964 93.3887 231.49C93.0013 231.016 92.4453 230.779 91.7207 230.779ZM98.0645 235.988H98.0371V237H96.916V226.637H98.0371V231.23H98.0645C98.6159 230.301 99.4225 229.836 100.484 229.836C101.382 229.836 102.084 230.15 102.59 230.779C103.1 231.404 103.355 232.242 103.355 233.295C103.355 234.466 103.071 235.405 102.501 236.111C101.931 236.813 101.152 237.164 100.163 237.164C99.238 237.164 98.5384 236.772 98.0645 235.988ZM98.0371 233.165V234.143C98.0371 234.721 98.224 235.214 98.5977 235.619C98.9759 236.02 99.4544 236.221 100.033 236.221C100.712 236.221 101.243 235.961 101.626 235.441C102.013 234.922 102.207 234.2 102.207 233.274C102.207 232.495 102.027 231.884 101.667 231.442C101.307 231 100.819 230.779 100.204 230.779C99.5524 230.779 99.0283 231.007 98.6318 231.463C98.2354 231.914 98.0371 232.481 98.0371 233.165ZM105.721 228.223C105.52 228.223 105.349 228.154 105.208 228.018C105.067 227.881 104.996 227.708 104.996 227.498C104.996 227.288 105.067 227.115 105.208 226.979C105.349 226.837 105.52 226.767 105.721 226.767C105.926 226.767 106.099 226.837 106.24 226.979C106.386 227.115 106.459 227.288 106.459 227.498C106.459 227.699 106.386 227.869 106.24 228.011C106.099 228.152 105.926 228.223 105.721 228.223ZM106.268 237H105.146V230H106.268V237ZM109.658 237H108.537V226.637H109.658V237ZM112.502 228.223C112.301 228.223 112.131 228.154 111.989 228.018C111.848 227.881 111.777 227.708 111.777 227.498C111.777 227.288 111.848 227.115 111.989 226.979C112.131 226.837 112.301 226.767 112.502 226.767C112.707 226.767 112.88 226.837 113.021 226.979C113.167 227.115 113.24 227.288 113.24 227.498C113.24 227.699 113.167 227.869 113.021 228.011C112.88 228.152 112.707 228.223 112.502 228.223ZM113.049 237H111.928V230H113.049V237ZM121.293 237H120.172V235.811H120.145C119.625 236.713 118.823 237.164 117.738 237.164C116.859 237.164 116.155 236.852 115.626 236.228C115.102 235.599 114.84 234.744 114.84 233.664C114.84 232.507 115.132 231.579 115.715 230.882C116.298 230.185 117.075 229.836 118.046 229.836C119.007 229.836 119.707 230.214 120.145 230.971H120.172V226.637H121.293V237ZM120.172 233.835V232.803C120.172 232.238 119.985 231.759 119.611 231.367C119.238 230.975 118.764 230.779 118.189 230.779C117.506 230.779 116.968 231.03 116.576 231.531C116.184 232.033 115.988 232.725 115.988 233.609C115.988 234.416 116.175 235.054 116.549 235.523C116.927 235.988 117.433 236.221 118.066 236.221C118.691 236.221 119.197 235.995 119.584 235.544C119.976 235.093 120.172 234.523 120.172 233.835ZM128.573 237H127.452V235.906H127.425C126.937 236.745 126.219 237.164 125.271 237.164C124.574 237.164 124.027 236.979 123.631 236.61C123.239 236.241 123.043 235.751 123.043 235.141C123.043 233.833 123.813 233.072 125.354 232.857L127.452 232.563C127.452 231.374 126.971 230.779 126.01 230.779C125.167 230.779 124.406 231.066 123.727 231.641V230.492C124.415 230.055 125.208 229.836 126.105 229.836C127.751 229.836 128.573 230.706 128.573 232.447V237ZM127.452 233.459L125.764 233.691C125.244 233.764 124.852 233.894 124.588 234.081C124.324 234.263 124.191 234.589 124.191 235.059C124.191 235.4 124.312 235.681 124.554 235.899C124.8 236.114 125.126 236.221 125.531 236.221C126.087 236.221 126.545 236.027 126.905 235.64C127.27 235.248 127.452 234.753 127.452 234.156V233.459ZM136.66 237H135.539V235.811H135.512C134.992 236.713 134.19 237.164 133.105 237.164C132.226 237.164 131.522 236.852 130.993 236.228C130.469 235.599 130.207 234.744 130.207 233.664C130.207 232.507 130.499 231.579 131.082 230.882C131.665 230.185 132.442 229.836 133.413 229.836C134.375 229.836 135.074 230.214 135.512 230.971H135.539V226.637H136.66V237ZM135.539 233.835V232.803C135.539 232.238 135.352 231.759 134.979 231.367C134.605 230.975 134.131 230.779 133.557 230.779C132.873 230.779 132.335 231.03 131.943 231.531C131.551 232.033 131.355 232.725 131.355 233.609C131.355 234.416 131.542 235.054 131.916 235.523C132.294 235.988 132.8 236.221 133.434 236.221C134.058 236.221 134.564 235.995 134.951 235.544C135.343 235.093 135.539 234.523 135.539 233.835ZM144.556 233.78H139.613C139.632 234.56 139.841 235.161 140.242 235.585C140.643 236.009 141.195 236.221 141.896 236.221C142.685 236.221 143.41 235.961 144.07 235.441V236.494C143.455 236.941 142.642 237.164 141.63 237.164C140.641 237.164 139.864 236.847 139.299 236.214C138.734 235.576 138.451 234.68 138.451 233.527C138.451 232.438 138.759 231.552 139.374 230.868C139.994 230.18 140.762 229.836 141.678 229.836C142.594 229.836 143.302 230.132 143.804 230.725C144.305 231.317 144.556 232.14 144.556 233.192V233.78ZM143.407 232.83C143.403 232.183 143.245 231.679 142.936 231.319C142.63 230.959 142.204 230.779 141.657 230.779C141.129 230.779 140.68 230.968 140.311 231.347C139.941 231.725 139.714 232.219 139.627 232.83H143.407Z" fill="#092038"/>
<path d="M82.6055 258H81.5156L80.625 255.645H77.0625L76.2246 258H75.1289L78.3516 249.598H79.3711L82.6055 258ZM80.3027 254.76L78.9844 251.18C78.9414 251.062 78.8984 250.875 78.8555 250.617H78.832C78.793 250.855 78.748 251.043 78.6973 251.18L77.3906 254.76H80.3027ZM92.2383 258H91.2773V254.555C91.2773 253.891 91.1738 253.41 90.9668 253.113C90.7637 252.816 90.4199 252.668 89.9355 252.668C89.5254 252.668 89.1758 252.855 88.8867 253.23C88.6016 253.605 88.459 254.055 88.459 254.578V258H87.498V254.438C87.498 253.258 87.043 252.668 86.1328 252.668C85.7109 252.668 85.3633 252.846 85.0898 253.201C84.8164 253.553 84.6797 254.012 84.6797 254.578V258H83.7188V252H84.6797V252.949H84.7031C85.1289 252.223 85.75 251.859 86.5664 251.859C86.9766 251.859 87.334 251.975 87.6387 252.205C87.9434 252.432 88.1523 252.73 88.2656 253.102C88.7109 252.273 89.375 251.859 90.2578 251.859C91.5781 251.859 92.2383 252.674 92.2383 254.303V258ZM95.0391 257.133H95.0156V258H94.0547V249.117H95.0156V253.055H95.0391C95.5117 252.258 96.2031 251.859 97.1133 251.859C97.8828 251.859 98.4844 252.129 98.918 252.668C99.3555 253.203 99.5742 253.922 99.5742 254.824C99.5742 255.828 99.3301 256.633 98.8418 257.238C98.3535 257.84 97.6855 258.141 96.8379 258.141C96.0449 258.141 95.4453 257.805 95.0391 257.133ZM95.0156 254.713V255.551C95.0156 256.047 95.1758 256.469 95.4961 256.816C95.8203 257.16 96.2305 257.332 96.7266 257.332C97.3086 257.332 97.7637 257.109 98.0918 256.664C98.4238 256.219 98.5898 255.6 98.5898 254.807C98.5898 254.139 98.4355 253.615 98.127 253.236C97.8184 252.857 97.4004 252.668 96.873 252.668C96.3145 252.668 95.8652 252.863 95.5254 253.254C95.1855 253.641 95.0156 254.127 95.0156 254.713ZM101.602 250.477C101.43 250.477 101.283 250.418 101.162 250.301C101.041 250.184 100.98 250.035 100.98 249.855C100.98 249.676 101.041 249.527 101.162 249.41C101.283 249.289 101.43 249.229 101.602 249.229C101.777 249.229 101.926 249.289 102.047 249.41C102.172 249.527 102.234 249.676 102.234 249.855C102.234 250.027 102.172 250.174 102.047 250.295C101.926 250.416 101.777 250.477 101.602 250.477ZM102.07 258H101.109V252H102.07V258ZM108.838 255.24H104.602C104.617 255.908 104.797 256.424 105.141 256.787C105.484 257.15 105.957 257.332 106.559 257.332C107.234 257.332 107.855 257.109 108.422 256.664V257.566C107.895 257.949 107.197 258.141 106.33 258.141C105.482 258.141 104.816 257.869 104.332 257.326C103.848 256.779 103.605 256.012 103.605 255.023C103.605 254.09 103.869 253.33 104.396 252.744C104.928 252.154 105.586 251.859 106.371 251.859C107.156 251.859 107.764 252.113 108.193 252.621C108.623 253.129 108.838 253.834 108.838 254.736V255.24ZM107.854 254.426C107.85 253.871 107.715 253.439 107.449 253.131C107.188 252.822 106.822 252.668 106.354 252.668C105.9 252.668 105.516 252.83 105.199 253.154C104.883 253.479 104.688 253.902 104.613 254.426H107.854ZM115.277 258H114.316V254.578C114.316 253.305 113.852 252.668 112.922 252.668C112.441 252.668 112.043 252.85 111.727 253.213C111.414 253.572 111.258 254.027 111.258 254.578V258H110.297V252H111.258V252.996H111.281C111.734 252.238 112.391 251.859 113.25 251.859C113.906 251.859 114.408 252.072 114.756 252.498C115.104 252.92 115.277 253.531 115.277 254.332V258ZM119.877 257.941C119.65 258.066 119.352 258.129 118.98 258.129C117.93 258.129 117.404 257.543 117.404 256.371V252.82H116.373V252H117.404V250.535L118.365 250.225V252H119.877V252.82H118.365V256.201C118.365 256.604 118.434 256.891 118.57 257.062C118.707 257.234 118.934 257.32 119.25 257.32C119.492 257.32 119.701 257.254 119.877 257.121V257.941ZM125.982 255.24H121.746C121.762 255.908 121.941 256.424 122.285 256.787C122.629 257.15 123.102 257.332 123.703 257.332C124.379 257.332 125 257.109 125.566 256.664V257.566C125.039 257.949 124.342 258.141 123.475 258.141C122.627 258.141 121.961 257.869 121.477 257.326C120.992 256.779 120.75 256.012 120.75 255.023C120.75 254.09 121.014 253.33 121.541 252.744C122.072 252.154 122.73 251.859 123.516 251.859C124.301 251.859 124.908 252.113 125.338 252.621C125.768 253.129 125.982 253.834 125.982 254.736V255.24ZM124.998 254.426C124.994 253.871 124.859 253.439 124.594 253.131C124.332 252.822 123.967 252.668 123.498 252.668C123.045 252.668 122.66 252.83 122.344 253.154C122.027 253.479 121.832 253.902 121.758 254.426H124.998ZM135.855 258H134.895V256.98H134.871C134.426 257.754 133.738 258.141 132.809 258.141C132.055 258.141 131.451 257.873 130.998 257.338C130.549 256.799 130.324 256.066 130.324 255.141C130.324 254.148 130.574 253.354 131.074 252.756C131.574 252.158 132.24 251.859 133.072 251.859C133.896 251.859 134.496 252.184 134.871 252.832H134.895V249.117H135.855V258ZM134.895 255.287V254.402C134.895 253.918 134.734 253.508 134.414 253.172C134.094 252.836 133.688 252.668 133.195 252.668C132.609 252.668 132.148 252.883 131.812 253.312C131.477 253.742 131.309 254.336 131.309 255.094C131.309 255.785 131.469 256.332 131.789 256.734C132.113 257.133 132.547 257.332 133.09 257.332C133.625 257.332 134.059 257.139 134.391 256.752C134.727 256.365 134.895 255.877 134.895 255.287ZM142.623 255.24H138.387C138.402 255.908 138.582 256.424 138.926 256.787C139.27 257.15 139.742 257.332 140.344 257.332C141.02 257.332 141.641 257.109 142.207 256.664V257.566C141.68 257.949 140.982 258.141 140.115 258.141C139.268 258.141 138.602 257.869 138.117 257.326C137.633 256.779 137.391 256.012 137.391 255.023C137.391 254.09 137.654 253.33 138.182 252.744C138.713 252.154 139.371 251.859 140.156 251.859C140.941 251.859 141.549 252.113 141.979 252.621C142.408 253.129 142.623 253.834 142.623 254.736V255.24ZM141.639 254.426C141.635 253.871 141.5 253.439 141.234 253.131C140.973 252.822 140.607 252.668 140.139 252.668C139.686 252.668 139.301 252.83 138.984 253.154C138.668 253.479 138.473 253.902 138.398 254.426H141.639ZM150.158 257.941C149.932 258.066 149.633 258.129 149.262 258.129C148.211 258.129 147.686 257.543 147.686 256.371V252.82H146.654V252H147.686V250.535L148.646 250.225V252H150.158V252.82H148.646V256.201C148.646 256.604 148.715 256.891 148.852 257.062C148.988 257.234 149.215 257.32 149.531 257.32C149.773 257.32 149.982 257.254 150.158 257.121V257.941ZM154.57 252.973C154.402 252.844 154.16 252.779 153.844 252.779C153.434 252.779 153.09 252.973 152.812 253.359C152.539 253.746 152.402 254.273 152.402 254.941V258H151.441V252H152.402V253.236H152.426C152.562 252.814 152.771 252.486 153.053 252.252C153.334 252.014 153.648 251.895 153.996 251.895C154.246 251.895 154.438 251.922 154.57 251.977V252.973ZM159.908 258H158.947V257.062H158.924C158.506 257.781 157.891 258.141 157.078 258.141C156.48 258.141 156.012 257.982 155.672 257.666C155.336 257.35 155.168 256.93 155.168 256.406C155.168 255.285 155.828 254.633 157.148 254.449L158.947 254.197C158.947 253.178 158.535 252.668 157.711 252.668C156.988 252.668 156.336 252.914 155.754 253.406V252.422C156.344 252.047 157.023 251.859 157.793 251.859C159.203 251.859 159.908 252.605 159.908 254.098V258ZM158.947 254.965L157.5 255.164C157.055 255.227 156.719 255.338 156.492 255.498C156.266 255.654 156.152 255.934 156.152 256.336C156.152 256.629 156.256 256.869 156.463 257.057C156.674 257.24 156.953 257.332 157.301 257.332C157.777 257.332 158.17 257.166 158.479 256.834C158.791 256.498 158.947 256.074 158.947 255.562V254.965ZM162.703 257.133H162.68V258H161.719V249.117H162.68V253.055H162.703C163.176 252.258 163.867 251.859 164.777 251.859C165.547 251.859 166.148 252.129 166.582 252.668C167.02 253.203 167.238 253.922 167.238 254.824C167.238 255.828 166.994 256.633 166.506 257.238C166.018 257.84 165.35 258.141 164.502 258.141C163.709 258.141 163.109 257.805 162.703 257.133ZM162.68 254.713V255.551C162.68 256.047 162.84 256.469 163.16 256.816C163.484 257.16 163.895 257.332 164.391 257.332C164.973 257.332 165.428 257.109 165.756 256.664C166.088 256.219 166.254 255.6 166.254 254.807C166.254 254.139 166.1 253.615 165.791 253.236C165.482 252.857 165.064 252.668 164.537 252.668C163.979 252.668 163.529 252.863 163.189 253.254C162.85 253.641 162.68 254.127 162.68 254.713ZM173.068 258H172.107V257.062H172.084C171.666 257.781 171.051 258.141 170.238 258.141C169.641 258.141 169.172 257.982 168.832 257.666C168.496 257.35 168.328 256.93 168.328 256.406C168.328 255.285 168.988 254.633 170.309 254.449L172.107 254.197C172.107 253.178 171.695 252.668 170.871 252.668C170.148 252.668 169.496 252.914 168.914 253.406V252.422C169.504 252.047 170.184 251.859 170.953 251.859C172.363 251.859 173.068 252.605 173.068 254.098V258ZM172.107 254.965L170.66 255.164C170.215 255.227 169.879 255.338 169.652 255.498C169.426 255.654 169.312 255.934 169.312 256.336C169.312 256.629 169.416 256.869 169.623 257.057C169.834 257.24 170.113 257.332 170.461 257.332C170.938 257.332 171.33 257.166 171.639 256.834C171.951 256.498 172.107 256.074 172.107 255.562V254.965ZM175.84 258H174.879V249.117H175.84V258ZM182.766 258H181.805V254.543C181.805 253.293 181.34 252.668 180.41 252.668C179.941 252.668 179.547 252.85 179.227 253.213C178.906 253.572 178.746 254.035 178.746 254.602V258H177.785V249.117H178.746V252.996H178.77C179.23 252.238 179.887 251.859 180.738 251.859C182.09 251.859 182.766 252.674 182.766 254.303V258ZM187.09 258.141C186.203 258.141 185.494 257.861 184.963 257.303C184.436 256.74 184.172 255.996 184.172 255.07C184.172 254.062 184.447 253.275 184.998 252.709C185.549 252.143 186.293 251.859 187.23 251.859C188.125 251.859 188.822 252.135 189.322 252.686C189.826 253.236 190.078 254 190.078 254.977C190.078 255.934 189.807 256.701 189.264 257.279C188.725 257.854 188 258.141 187.09 258.141ZM187.16 252.668C186.543 252.668 186.055 252.879 185.695 253.301C185.336 253.719 185.156 254.297 185.156 255.035C185.156 255.746 185.338 256.307 185.701 256.717C186.064 257.127 186.551 257.332 187.16 257.332C187.781 257.332 188.258 257.131 188.59 256.729C188.926 256.326 189.094 255.754 189.094 255.012C189.094 254.262 188.926 253.684 188.59 253.277C188.258 252.871 187.781 252.668 187.16 252.668ZM199.729 255.24H195.492C195.508 255.908 195.688 256.424 196.031 256.787C196.375 257.15 196.848 257.332 197.449 257.332C198.125 257.332 198.746 257.109 199.312 256.664V257.566C198.785 257.949 198.088 258.141 197.221 258.141C196.373 258.141 195.707 257.869 195.223 257.326C194.738 256.779 194.496 256.012 194.496 255.023C194.496 254.09 194.76 253.33 195.287 252.744C195.818 252.154 196.477 251.859 197.262 251.859C198.047 251.859 198.654 252.113 199.084 252.621C199.514 253.129 199.729 253.834 199.729 254.736V255.24ZM198.744 254.426C198.74 253.871 198.605 253.439 198.34 253.131C198.078 252.822 197.713 252.668 197.244 252.668C196.791 252.668 196.406 252.83 196.09 253.154C195.773 253.479 195.578 253.902 195.504 254.426H198.744ZM209.707 258H208.746V254.555C208.746 253.891 208.643 253.41 208.436 253.113C208.232 252.816 207.889 252.668 207.404 252.668C206.994 252.668 206.645 252.855 206.355 253.23C206.07 253.605 205.928 254.055 205.928 254.578V258H204.967V254.438C204.967 253.258 204.512 252.668 203.602 252.668C203.18 252.668 202.832 252.846 202.559 253.201C202.285 253.553 202.148 254.012 202.148 254.578V258H201.188V252H202.148V252.949H202.172C202.598 252.223 203.219 251.859 204.035 251.859C204.445 251.859 204.803 251.975 205.107 252.205C205.412 252.432 205.621 252.73 205.734 253.102C206.18 252.273 206.844 251.859 207.727 251.859C209.047 251.859 209.707 252.674 209.707 254.303V258ZM219.938 260.76H218.977V256.969H218.953C218.535 257.75 217.852 258.141 216.902 258.141C216.148 258.141 215.543 257.873 215.086 257.338C214.633 256.799 214.406 256.066 214.406 255.141C214.406 254.145 214.656 253.35 215.156 252.756C215.656 252.158 216.328 251.859 217.172 251.859C217.992 251.859 218.586 252.184 218.953 252.832H218.977V252H219.938V260.76ZM218.977 255.299V254.426C218.977 253.934 218.814 253.518 218.49 253.178C218.17 252.838 217.762 252.668 217.266 252.668C216.688 252.668 216.23 252.883 215.895 253.312C215.559 253.738 215.391 254.34 215.391 255.117C215.391 255.809 215.553 256.352 215.877 256.746C216.201 257.137 216.619 257.332 217.131 257.332C217.693 257.332 218.141 257.141 218.473 256.758C218.809 256.371 218.977 255.885 218.977 255.299ZM226.734 258H225.773V257.051H225.75C225.352 257.777 224.734 258.141 223.898 258.141C222.469 258.141 221.754 257.289 221.754 255.586V252H222.709V255.434C222.709 256.699 223.193 257.332 224.162 257.332C224.631 257.332 225.016 257.16 225.316 256.816C225.621 256.469 225.773 256.016 225.773 255.457V252H226.734V258ZM232.975 258H232.014V257.062H231.99C231.572 257.781 230.957 258.141 230.145 258.141C229.547 258.141 229.078 257.982 228.738 257.666C228.402 257.35 228.234 256.93 228.234 256.406C228.234 255.285 228.895 254.633 230.215 254.449L232.014 254.197C232.014 253.178 231.602 252.668 230.777 252.668C230.055 252.668 229.402 252.914 228.82 253.406V252.422C229.41 252.047 230.09 251.859 230.859 251.859C232.27 251.859 232.975 252.605 232.975 254.098V258ZM232.014 254.965L230.566 255.164C230.121 255.227 229.785 255.338 229.559 255.498C229.332 255.654 229.219 255.934 229.219 256.336C229.219 256.629 229.322 256.869 229.529 257.057C229.74 257.24 230.02 257.332 230.367 257.332C230.844 257.332 231.236 257.166 231.545 256.834C231.857 256.498 232.014 256.074 232.014 255.562V254.965ZM235.746 258H234.785V249.117H235.746V258ZM242.812 260.76H241.852V256.969H241.828C241.41 257.75 240.727 258.141 239.777 258.141C239.023 258.141 238.418 257.873 237.961 257.338C237.508 256.799 237.281 256.066 237.281 255.141C237.281 254.145 237.531 253.35 238.031 252.756C238.531 252.158 239.203 251.859 240.047 251.859C240.867 251.859 241.461 252.184 241.828 252.832H241.852V252H242.812V260.76ZM241.852 255.299V254.426C241.852 253.934 241.689 253.518 241.365 253.178C241.045 252.838 240.637 252.668 240.141 252.668C239.562 252.668 239.105 252.883 238.77 253.312C238.434 253.738 238.266 254.34 238.266 255.117C238.266 255.809 238.428 256.352 238.752 256.746C239.076 257.137 239.494 257.332 240.006 257.332C240.568 257.332 241.016 257.141 241.348 256.758C241.684 256.371 241.852 255.885 241.852 255.299ZM249.609 258H248.648V257.051H248.625C248.227 257.777 247.609 258.141 246.773 258.141C245.344 258.141 244.629 257.289 244.629 255.586V252H245.584V255.434C245.584 256.699 246.068 257.332 247.037 257.332C247.506 257.332 247.891 257.16 248.191 256.816C248.496 256.469 248.648 256.016 248.648 255.457V252H249.609V258ZM256.377 255.24H252.141C252.156 255.908 252.336 256.424 252.68 256.787C253.023 257.15 253.496 257.332 254.098 257.332C254.773 257.332 255.395 257.109 255.961 256.664V257.566C255.434 257.949 254.736 258.141 253.869 258.141C253.021 258.141 252.355 257.869 251.871 257.326C251.387 256.779 251.145 256.012 251.145 255.023C251.145 254.09 251.408 253.33 251.936 252.744C252.467 252.154 253.125 251.859 253.91 251.859C254.695 251.859 255.303 252.113 255.732 252.621C256.162 253.129 256.377 253.834 256.377 254.736V255.24ZM255.393 254.426C255.389 253.871 255.254 253.439 254.988 253.131C254.727 252.822 254.361 252.668 253.893 252.668C253.439 252.668 253.055 252.83 252.738 253.154C252.422 253.479 252.227 253.902 252.152 254.426H255.393ZM260.965 252.973C260.797 252.844 260.555 252.779 260.238 252.779C259.828 252.779 259.484 252.973 259.207 253.359C258.934 253.746 258.797 254.273 258.797 254.941V258H257.836V252H258.797V253.236H258.82C258.957 252.814 259.166 252.486 259.447 252.252C259.729 252.014 260.043 251.895 260.391 251.895C260.641 251.895 260.832 251.922 260.965 251.977V252.973ZM76.9336 274H75.9727V265.117H76.9336V274ZM83.7305 274H82.7695V273.051H82.7461C82.3477 273.777 81.7305 274.141 80.8945 274.141C79.4648 274.141 78.75 273.289 78.75 271.586V268H79.7051V271.434C79.7051 272.699 80.1895 273.332 81.1582 273.332C81.627 273.332 82.0117 273.16 82.3125 272.816C82.6172 272.469 82.7695 272.016 82.7695 271.457V268H83.7305V274ZM90.7969 273.52C90.7969 275.723 89.7422 276.824 87.6328 276.824C86.8906 276.824 86.2422 276.684 85.6875 276.402V275.441C86.3633 275.816 87.0078 276.004 87.6211 276.004C89.0977 276.004 89.8359 275.219 89.8359 273.648V272.992H89.8125C89.3555 273.758 88.668 274.141 87.75 274.141C87.0039 274.141 86.4023 273.875 85.9453 273.344C85.4922 272.809 85.2656 272.092 85.2656 271.193C85.2656 270.174 85.5098 269.363 85.998 268.762C86.4902 268.16 87.1621 267.859 88.0137 267.859C88.8223 267.859 89.4219 268.184 89.8125 268.832H89.8359V268H90.7969V273.52ZM89.8359 271.287V270.402C89.8359 269.926 89.6738 269.518 89.3496 269.178C89.0293 268.838 88.6289 268.668 88.1484 268.668C87.5547 268.668 87.0898 268.885 86.7539 269.318C86.418 269.748 86.25 270.352 86.25 271.129C86.25 271.797 86.4102 272.332 86.7305 272.734C87.0547 273.133 87.4824 273.332 88.0137 273.332C88.5527 273.332 88.9902 273.141 89.3262 272.758C89.666 272.375 89.8359 271.885 89.8359 271.287ZM97.0371 274H96.0762V273.062H96.0527C95.6348 273.781 95.0195 274.141 94.207 274.141C93.6094 274.141 93.1406 273.982 92.8008 273.666C92.4648 273.35 92.2969 272.93 92.2969 272.406C92.2969 271.285 92.957 270.633 94.2773 270.449L96.0762 270.197C96.0762 269.178 95.6641 268.668 94.8398 268.668C94.1172 268.668 93.4648 268.914 92.8828 269.406V268.422C93.4727 268.047 94.1523 267.859 94.9219 267.859C96.332 267.859 97.0371 268.605 97.0371 270.098V274ZM96.0762 270.965L94.6289 271.164C94.1836 271.227 93.8477 271.338 93.6211 271.498C93.3945 271.654 93.2812 271.934 93.2812 272.336C93.2812 272.629 93.3848 272.869 93.5918 273.057C93.8027 273.24 94.082 273.332 94.4297 273.332C94.9062 273.332 95.2988 273.166 95.6074 272.834C95.9199 272.498 96.0762 272.074 96.0762 271.562V270.965ZM101.977 268.973C101.809 268.844 101.566 268.779 101.25 268.779C100.84 268.779 100.496 268.973 100.219 269.359C99.9453 269.746 99.8086 270.273 99.8086 270.941V274H98.8477V268H99.8086V269.236H99.832C99.9688 268.814 100.178 268.486 100.459 268.252C100.74 268.014 101.055 267.895 101.402 267.895C101.652 267.895 101.844 267.922 101.977 267.977V268.973Z" fill="#6B6363"/>
<path d="M66 279H301" stroke="#C4C4C4"/>
<circle cx="284.744" cy="374.744" r="7.74433" fill="#DDFCF2"/>
<path d="M288.956 372.931L284.174 377.326L282.652 375.79L281.891 374.987L282.326 374.482L284.174 376.302L288.413 372.435L288.956 372.931Z" fill="#2FAF83" stroke="#2FAF83" stroke-width="0.5" stroke-linejoin="round"/>
<path d="M83.873 363H82.6016L81.5625 360.252H77.4062L76.4287 363H75.1504L78.9102 353.197H80.0996L83.873 363ZM81.1865 359.22L79.6484 355.043C79.5983 354.906 79.5482 354.688 79.498 354.387H79.4707C79.4251 354.665 79.3727 354.883 79.3135 355.043L77.7891 359.22H81.1865ZM88.4189 362.932C88.1546 363.077 87.806 363.15 87.373 363.15C86.1471 363.15 85.5342 362.467 85.5342 361.1V356.957H84.3311V356H85.5342V354.291L86.6553 353.929V356H88.4189V356.957H86.6553V360.901C86.6553 361.371 86.735 361.706 86.8945 361.906C87.054 362.107 87.3184 362.207 87.6875 362.207C87.9701 362.207 88.2139 362.13 88.4189 361.975V362.932ZM95.5762 363H94.4551V361.893H94.4277C93.9629 362.74 93.2428 363.164 92.2676 363.164C90.5996 363.164 89.7656 362.171 89.7656 360.184V356H90.8799V360.006C90.8799 361.482 91.445 362.221 92.5752 362.221C93.1221 362.221 93.571 362.02 93.9219 361.619C94.2773 361.214 94.4551 360.685 94.4551 360.033V356H95.5762V363ZM102.856 363H101.735V361.906H101.708C101.22 362.745 100.503 363.164 99.5547 363.164C98.8574 363.164 98.3105 362.979 97.9141 362.61C97.5221 362.241 97.3262 361.751 97.3262 361.141C97.3262 359.833 98.0964 359.072 99.6367 358.857L101.735 358.563C101.735 357.374 101.255 356.779 100.293 356.779C99.4499 356.779 98.6888 357.066 98.0098 357.641V356.492C98.6979 356.055 99.4909 355.836 100.389 355.836C102.034 355.836 102.856 356.706 102.856 358.447V363ZM101.735 359.459L100.047 359.691C99.5273 359.764 99.1354 359.894 98.8711 360.081C98.6068 360.263 98.4746 360.589 98.4746 361.059C98.4746 361.4 98.5954 361.681 98.8369 361.899C99.083 362.114 99.4089 362.221 99.8145 362.221C100.37 362.221 100.828 362.027 101.188 361.64C101.553 361.248 101.735 360.753 101.735 360.156V359.459ZM106.09 363H104.969V352.637H106.09V363ZM108.934 354.223C108.733 354.223 108.562 354.154 108.421 354.018C108.28 353.881 108.209 353.708 108.209 353.498C108.209 353.288 108.28 353.115 108.421 352.979C108.562 352.837 108.733 352.767 108.934 352.767C109.139 352.767 109.312 352.837 109.453 352.979C109.599 353.115 109.672 353.288 109.672 353.498C109.672 353.699 109.599 353.869 109.453 354.011C109.312 354.152 109.139 354.223 108.934 354.223ZM109.48 363H108.359V356H109.48V363ZM116.631 356.321L112.488 362.043H116.59V363H110.841V362.651L114.983 356.957H111.23V356H116.631V356.321ZM123.091 363H121.97V361.906H121.942C121.455 362.745 120.737 363.164 119.789 363.164C119.092 363.164 118.545 362.979 118.148 362.61C117.757 362.241 117.561 361.751 117.561 361.141C117.561 359.833 118.331 359.072 119.871 358.857L121.97 358.563C121.97 357.374 121.489 356.779 120.527 356.779C119.684 356.779 118.923 357.066 118.244 357.641V356.492C118.932 356.055 119.725 355.836 120.623 355.836C122.268 355.836 123.091 356.706 123.091 358.447V363ZM121.97 359.459L120.281 359.691C119.762 359.764 119.37 359.894 119.105 360.081C118.841 360.263 118.709 360.589 118.709 361.059C118.709 361.4 118.83 361.681 119.071 361.899C119.317 362.114 119.643 362.221 120.049 362.221C120.605 362.221 121.063 362.027 121.423 361.64C121.787 361.248 121.97 360.753 121.97 360.156V359.459ZM129.975 362.679C129.437 363.002 128.799 363.164 128.061 363.164C127.062 363.164 126.256 362.84 125.641 362.193C125.03 361.542 124.725 360.699 124.725 359.664C124.725 358.511 125.055 357.586 125.716 356.889C126.377 356.187 127.258 355.836 128.361 355.836C128.977 355.836 129.519 355.95 129.988 356.178V357.326C129.469 356.962 128.913 356.779 128.32 356.779C127.605 356.779 127.017 357.037 126.557 357.552C126.101 358.062 125.873 358.734 125.873 359.568C125.873 360.389 126.087 361.036 126.516 361.51C126.949 361.984 127.527 362.221 128.252 362.221C128.863 362.221 129.437 362.018 129.975 361.612V362.679ZM129.387 364.75C129.387 365.552 128.76 365.953 127.507 365.953C127.334 365.953 127.186 365.949 127.062 365.939V365.324C127.258 365.352 127.418 365.365 127.541 365.365C128.184 365.365 128.505 365.16 128.505 364.75C128.505 364.395 128.211 364.217 127.623 364.217C127.577 364.217 127.484 364.226 127.343 364.244V363H128.081V363.711C128.482 363.711 128.799 363.802 129.031 363.984C129.268 364.167 129.387 364.422 129.387 364.75ZM134.596 363.164C133.561 363.164 132.734 362.838 132.114 362.187C131.499 361.53 131.191 360.662 131.191 359.582C131.191 358.406 131.513 357.488 132.155 356.827C132.798 356.166 133.666 355.836 134.76 355.836C135.803 355.836 136.617 356.157 137.2 356.8C137.788 357.442 138.082 358.333 138.082 359.473C138.082 360.589 137.765 361.485 137.132 362.159C136.503 362.829 135.658 363.164 134.596 363.164ZM134.678 356.779C133.958 356.779 133.388 357.025 132.969 357.518C132.549 358.005 132.34 358.68 132.34 359.541C132.34 360.37 132.552 361.024 132.976 361.503C133.399 361.981 133.967 362.221 134.678 362.221C135.402 362.221 135.958 361.986 136.346 361.517C136.738 361.047 136.934 360.38 136.934 359.514C136.934 358.639 136.738 357.964 136.346 357.49C135.958 357.016 135.402 356.779 134.678 356.779ZM136.899 353.033C136.899 353.512 136.79 353.904 136.571 354.209C136.353 354.51 136.056 354.66 135.683 354.66C135.359 354.66 134.99 354.542 134.575 354.305C134.224 354.109 133.953 354.011 133.762 354.011C133.361 354.011 133.16 354.268 133.16 354.783H132.518C132.518 354.296 132.627 353.906 132.846 353.614C133.064 353.318 133.37 353.17 133.762 353.17C134.058 353.17 134.397 353.288 134.78 353.525C135.118 353.726 135.409 353.826 135.655 353.826C136.038 353.826 136.229 353.562 136.229 353.033H136.899ZM145.499 359.78H140.557C140.575 360.56 140.785 361.161 141.186 361.585C141.587 362.009 142.138 362.221 142.84 362.221C143.628 362.221 144.353 361.961 145.014 361.441V362.494C144.398 362.941 143.585 363.164 142.573 363.164C141.584 363.164 140.807 362.847 140.242 362.214C139.677 361.576 139.395 360.68 139.395 359.527C139.395 358.438 139.702 357.552 140.317 356.868C140.937 356.18 141.705 355.836 142.621 355.836C143.537 355.836 144.246 356.132 144.747 356.725C145.248 357.317 145.499 358.14 145.499 359.192V359.78ZM144.351 358.83C144.346 358.183 144.189 357.679 143.879 357.319C143.574 356.959 143.147 356.779 142.601 356.779C142.072 356.779 141.623 356.968 141.254 357.347C140.885 357.725 140.657 358.219 140.57 358.83H144.351ZM146.777 362.747V361.544C147.388 361.995 148.06 362.221 148.794 362.221C149.778 362.221 150.271 361.893 150.271 361.236C150.271 361.049 150.227 360.892 150.141 360.765C150.059 360.632 149.945 360.516 149.799 360.416C149.658 360.316 149.489 360.227 149.293 360.149C149.102 360.067 148.894 359.983 148.671 359.896C148.361 359.773 148.088 359.65 147.851 359.527C147.618 359.4 147.422 359.258 147.263 359.104C147.108 358.944 146.989 358.764 146.907 358.563C146.83 358.363 146.791 358.128 146.791 357.859C146.791 357.531 146.866 357.242 147.017 356.991C147.167 356.736 147.368 356.524 147.618 356.355C147.869 356.182 148.154 356.052 148.473 355.966C148.796 355.879 149.129 355.836 149.471 355.836C150.077 355.836 150.619 355.941 151.098 356.15V357.285C150.583 356.948 149.99 356.779 149.32 356.779C149.111 356.779 148.922 356.804 148.753 356.854C148.584 356.9 148.438 356.966 148.315 357.053C148.197 357.139 148.104 357.244 148.035 357.367C147.971 357.486 147.939 357.618 147.939 357.764C147.939 357.946 147.971 358.099 148.035 358.222C148.104 358.345 148.201 358.454 148.329 358.55C148.457 358.646 148.612 358.732 148.794 358.81C148.976 358.887 149.184 358.971 149.416 359.062C149.726 359.181 150.004 359.304 150.25 359.432C150.496 359.555 150.706 359.696 150.879 359.855C151.052 360.01 151.184 360.19 151.275 360.396C151.371 360.601 151.419 360.844 151.419 361.127C151.419 361.473 151.341 361.774 151.187 362.029C151.036 362.285 150.833 362.496 150.578 362.665C150.323 362.834 150.029 362.959 149.696 363.041C149.364 363.123 149.015 363.164 148.65 363.164C147.93 363.164 147.306 363.025 146.777 362.747Z" fill="#092038"/>
<path d="M77.709 384.66V383.5C77.8418 383.617 78 383.723 78.1836 383.816C78.3711 383.91 78.5664 383.99 78.7695 384.057C78.9766 384.119 79.1836 384.168 79.3906 384.203C79.5977 384.238 79.7891 384.256 79.9648 384.256C80.5703 384.256 81.0215 384.145 81.3184 383.922C81.6191 383.695 81.7695 383.371 81.7695 382.949C81.7695 382.723 81.7188 382.525 81.6172 382.357C81.5195 382.189 81.3828 382.037 81.207 381.9C81.0312 381.76 80.8223 381.627 80.5801 381.502C80.3418 381.373 80.084 381.238 79.8066 381.098C79.5137 380.949 79.2402 380.799 78.9863 380.646C78.7324 380.494 78.5117 380.326 78.3242 380.143C78.1367 379.959 77.9883 379.752 77.8789 379.521C77.7734 379.287 77.7207 379.014 77.7207 378.701C77.7207 378.318 77.8047 377.986 77.9727 377.705C78.1406 377.42 78.3613 377.186 78.6348 377.002C78.9082 376.818 79.2188 376.682 79.5664 376.592C79.918 376.502 80.2754 376.457 80.6387 376.457C81.4668 376.457 82.0703 376.557 82.4492 376.756V377.863C81.9531 377.52 81.3164 377.348 80.5391 377.348C80.3242 377.348 80.1094 377.371 79.8945 377.418C79.6797 377.461 79.4883 377.533 79.3203 377.635C79.1523 377.736 79.0156 377.867 78.9102 378.027C78.8047 378.188 78.752 378.383 78.752 378.613C78.752 378.828 78.791 379.014 78.8691 379.17C78.9512 379.326 79.0703 379.469 79.2266 379.598C79.3828 379.727 79.5723 379.852 79.7949 379.973C80.0215 380.094 80.2812 380.227 80.5742 380.371C80.875 380.52 81.1602 380.676 81.4297 380.84C81.6992 381.004 81.9355 381.186 82.1387 381.385C82.3418 381.584 82.502 381.805 82.6191 382.047C82.7402 382.289 82.8008 382.566 82.8008 382.879C82.8008 383.293 82.7188 383.645 82.5547 383.934C82.3945 384.219 82.1758 384.451 81.8984 384.631C81.625 384.811 81.3086 384.939 80.9492 385.018C80.5898 385.1 80.2109 385.141 79.8125 385.141C79.6797 385.141 79.5156 385.129 79.3203 385.105C79.125 385.086 78.9258 385.055 78.7227 385.012C78.5195 384.973 78.3262 384.924 78.1426 384.865C77.9629 384.803 77.8184 384.734 77.709 384.66ZM84.8398 377.477C84.668 377.477 84.5215 377.418 84.4004 377.301C84.2793 377.184 84.2188 377.035 84.2188 376.855C84.2188 376.676 84.2793 376.527 84.4004 376.41C84.5215 376.289 84.668 376.229 84.8398 376.229C85.0156 376.229 85.1641 376.289 85.2852 376.41C85.4102 376.527 85.4727 376.676 85.4727 376.855C85.4727 377.027 85.4102 377.174 85.2852 377.295C85.1641 377.416 85.0156 377.477 84.8398 377.477ZM85.3086 385H84.3477V379H85.3086V385ZM86.8906 384.783V383.752C87.4141 384.139 87.9902 384.332 88.6191 384.332C89.4629 384.332 89.8848 384.051 89.8848 383.488C89.8848 383.328 89.8477 383.193 89.7734 383.084C89.7031 382.971 89.6055 382.871 89.4805 382.785C89.3594 382.699 89.2148 382.623 89.0469 382.557C88.8828 382.486 88.7051 382.414 88.5137 382.34C88.248 382.234 88.0137 382.129 87.8105 382.023C87.6113 381.914 87.4434 381.793 87.3066 381.66C87.1738 381.523 87.0723 381.369 87.002 381.197C86.9355 381.025 86.9023 380.824 86.9023 380.594C86.9023 380.312 86.9668 380.064 87.0957 379.85C87.2246 379.631 87.3965 379.449 87.6113 379.305C87.8262 379.156 88.0703 379.045 88.3438 378.971C88.6211 378.896 88.9062 378.859 89.1992 378.859C89.7188 378.859 90.1836 378.949 90.5938 379.129V380.102C90.1523 379.812 89.6445 379.668 89.0703 379.668C88.8906 379.668 88.7285 379.689 88.584 379.732C88.4395 379.771 88.3145 379.828 88.209 379.902C88.1074 379.977 88.0273 380.066 87.9688 380.172C87.9141 380.273 87.8867 380.387 87.8867 380.512C87.8867 380.668 87.9141 380.799 87.9688 380.904C88.0273 381.01 88.1113 381.104 88.2207 381.186C88.3301 381.268 88.4629 381.342 88.6191 381.408C88.7754 381.475 88.9531 381.547 89.1523 381.625C89.418 381.727 89.6562 381.832 89.8672 381.941C90.0781 382.047 90.2578 382.168 90.4062 382.305C90.5547 382.438 90.668 382.592 90.7461 382.768C90.8281 382.943 90.8691 383.152 90.8691 383.395C90.8691 383.691 90.8027 383.949 90.6699 384.168C90.541 384.387 90.3672 384.568 90.1484 384.713C89.9297 384.857 89.6777 384.965 89.3926 385.035C89.1074 385.105 88.8086 385.141 88.4961 385.141C87.8789 385.141 87.3438 385.021 86.8906 384.783ZM95.1348 384.941C94.9082 385.066 94.6094 385.129 94.2383 385.129C93.1875 385.129 92.6621 384.543 92.6621 383.371V379.82H91.6309V379H92.6621V377.535L93.623 377.225V379H95.1348V379.82H93.623V383.201C93.623 383.604 93.6914 383.891 93.8281 384.062C93.9648 384.234 94.1914 384.32 94.5078 384.32C94.75 384.32 94.959 384.254 95.1348 384.121V384.941ZM101.24 382.24H97.0039C97.0195 382.908 97.1992 383.424 97.543 383.787C97.8867 384.15 98.3594 384.332 98.9609 384.332C99.6367 384.332 100.258 384.109 100.824 383.664V384.566C100.297 384.949 99.5996 385.141 98.7324 385.141C97.8848 385.141 97.2188 384.869 96.7344 384.326C96.25 383.779 96.0078 383.012 96.0078 382.023C96.0078 381.09 96.2715 380.33 96.7988 379.744C97.3301 379.154 97.9883 378.859 98.7734 378.859C99.5586 378.859 100.166 379.113 100.596 379.621C101.025 380.129 101.24 380.834 101.24 381.736V382.24ZM100.256 381.426C100.252 380.871 100.117 380.439 99.8516 380.131C99.5898 379.822 99.2246 379.668 98.7559 379.668C98.3027 379.668 97.918 379.83 97.6016 380.154C97.2852 380.479 97.0898 380.902 97.0156 381.426H100.256ZM111.219 385H110.258V381.555C110.258 380.891 110.154 380.41 109.947 380.113C109.744 379.816 109.4 379.668 108.916 379.668C108.506 379.668 108.156 379.855 107.867 380.23C107.582 380.605 107.439 381.055 107.439 381.578V385H106.479V381.438C106.479 380.258 106.023 379.668 105.113 379.668C104.691 379.668 104.344 379.846 104.07 380.201C103.797 380.553 103.66 381.012 103.66 381.578V385H102.699V379H103.66V379.949H103.684C104.109 379.223 104.73 378.859 105.547 378.859C105.957 378.859 106.314 378.975 106.619 379.205C106.924 379.432 107.133 379.73 107.246 380.102C107.691 379.273 108.355 378.859 109.238 378.859C110.559 378.859 111.219 379.674 111.219 381.303V385ZM117.33 385H116.369V384.062H116.346C115.928 384.781 115.312 385.141 114.5 385.141C113.902 385.141 113.434 384.982 113.094 384.666C112.758 384.35 112.59 383.93 112.59 383.406C112.59 382.285 113.25 381.633 114.57 381.449L116.369 381.197C116.369 380.178 115.957 379.668 115.133 379.668C114.41 379.668 113.758 379.914 113.176 380.406V379.422C113.766 379.047 114.445 378.859 115.215 378.859C116.625 378.859 117.33 379.605 117.33 381.098V385ZM116.369 381.965L114.922 382.164C114.477 382.227 114.141 382.338 113.914 382.498C113.688 382.654 113.574 382.934 113.574 383.336C113.574 383.629 113.678 383.869 113.885 384.057C114.096 384.24 114.375 384.332 114.723 384.332C115.199 384.332 115.592 384.166 115.9 383.834C116.213 383.498 116.369 383.074 116.369 382.562V381.965ZM122.07 384.783V383.752C122.594 384.139 123.17 384.332 123.799 384.332C124.643 384.332 125.064 384.051 125.064 383.488C125.064 383.328 125.027 383.193 124.953 383.084C124.883 382.971 124.785 382.871 124.66 382.785C124.539 382.699 124.395 382.623 124.227 382.557C124.062 382.486 123.885 382.414 123.693 382.34C123.428 382.234 123.193 382.129 122.99 382.023C122.791 381.914 122.623 381.793 122.486 381.66C122.354 381.523 122.252 381.369 122.182 381.197C122.115 381.025 122.082 380.824 122.082 380.594C122.082 380.312 122.146 380.064 122.275 379.85C122.404 379.631 122.576 379.449 122.791 379.305C123.006 379.156 123.25 379.045 123.523 378.971C123.801 378.896 124.086 378.859 124.379 378.859C124.898 378.859 125.363 378.949 125.773 379.129V380.102C125.332 379.812 124.824 379.668 124.25 379.668C124.07 379.668 123.908 379.689 123.764 379.732C123.619 379.771 123.494 379.828 123.389 379.902C123.287 379.977 123.207 380.066 123.148 380.172C123.094 380.273 123.066 380.387 123.066 380.512C123.066 380.668 123.094 380.799 123.148 380.904C123.207 381.01 123.291 381.104 123.4 381.186C123.51 381.268 123.643 381.342 123.799 381.408C123.955 381.475 124.133 381.547 124.332 381.625C124.598 381.727 124.836 381.832 125.047 381.941C125.258 382.047 125.438 382.168 125.586 382.305C125.734 382.438 125.848 382.592 125.926 382.768C126.008 382.943 126.049 383.152 126.049 383.395C126.049 383.691 125.982 383.949 125.85 384.168C125.721 384.387 125.547 384.568 125.328 384.713C125.109 384.857 124.857 384.965 124.572 385.035C124.287 385.105 123.988 385.141 123.676 385.141C123.059 385.141 122.523 385.021 122.07 384.783ZM132.354 382.24H128.117C128.133 382.908 128.312 383.424 128.656 383.787C129 384.15 129.473 384.332 130.074 384.332C130.75 384.332 131.371 384.109 131.938 383.664V384.566C131.41 384.949 130.713 385.141 129.846 385.141C128.998 385.141 128.332 384.869 127.848 384.326C127.363 383.779 127.121 383.012 127.121 382.023C127.121 381.09 127.385 380.33 127.912 379.744C128.443 379.154 129.102 378.859 129.887 378.859C130.672 378.859 131.279 379.113 131.709 379.621C132.139 380.129 132.354 380.834 132.354 381.736V382.24ZM131.369 381.426C131.365 380.871 131.23 380.439 130.965 380.131C130.703 379.822 130.338 379.668 129.869 379.668C129.416 379.668 129.031 379.83 128.715 380.154C128.398 380.479 128.203 380.902 128.129 381.426H131.369ZM142.332 385H141.371V381.555C141.371 380.891 141.268 380.41 141.061 380.113C140.857 379.816 140.514 379.668 140.029 379.668C139.619 379.668 139.27 379.855 138.98 380.23C138.695 380.605 138.553 381.055 138.553 381.578V385H137.592V381.438C137.592 380.258 137.137 379.668 136.227 379.668C135.805 379.668 135.457 379.846 135.184 380.201C134.91 380.553 134.773 381.012 134.773 381.578V385H133.812V379H134.773V379.949H134.797C135.223 379.223 135.844 378.859 136.66 378.859C137.07 378.859 137.428 378.975 137.732 379.205C138.037 379.432 138.246 379.73 138.359 380.102C138.805 379.273 139.469 378.859 140.352 378.859C141.672 378.859 142.332 379.674 142.332 381.303V385ZM145.133 384.133H145.109V387.76H144.148V379H145.109V380.055H145.133C145.605 379.258 146.297 378.859 147.207 378.859C147.98 378.859 148.584 379.129 149.018 379.668C149.451 380.203 149.668 380.922 149.668 381.824C149.668 382.828 149.424 383.633 148.936 384.238C148.447 384.84 147.779 385.141 146.932 385.141C146.154 385.141 145.555 384.805 145.133 384.133ZM145.109 381.713V382.551C145.109 383.047 145.27 383.469 145.59 383.816C145.914 384.16 146.324 384.332 146.82 384.332C147.402 384.332 147.857 384.109 148.186 383.664C148.518 383.219 148.684 382.6 148.684 381.807C148.684 381.139 148.529 380.615 148.221 380.236C147.912 379.857 147.494 379.668 146.967 379.668C146.408 379.668 145.959 379.863 145.619 380.254C145.279 380.641 145.109 381.127 145.109 381.713ZM154.332 379.973C154.164 379.844 153.922 379.779 153.605 379.779C153.195 379.779 152.852 379.973 152.574 380.359C152.301 380.746 152.164 381.273 152.164 381.941V385H151.203V379H152.164V380.236H152.188C152.324 379.814 152.533 379.486 152.814 379.252C153.096 379.014 153.41 378.895 153.758 378.895C154.008 378.895 154.199 378.922 154.332 378.977V379.973ZM160.197 382.24H155.961C155.977 382.908 156.156 383.424 156.5 383.787C156.844 384.15 157.316 384.332 157.918 384.332C158.594 384.332 159.215 384.109 159.781 383.664V384.566C159.254 384.949 158.557 385.141 157.689 385.141C156.842 385.141 156.176 384.869 155.691 384.326C155.207 383.779 154.965 383.012 154.965 382.023C154.965 381.09 155.229 380.33 155.756 379.744C156.287 379.154 156.945 378.859 157.73 378.859C158.516 378.859 159.123 379.113 159.553 379.621C159.982 380.129 160.197 380.834 160.197 381.736V382.24ZM159.213 381.426C159.209 380.871 159.074 380.439 158.809 380.131C158.547 379.822 158.182 379.668 157.713 379.668C157.26 379.668 156.875 379.83 156.559 380.154C156.242 380.479 156.047 380.902 155.973 381.426H159.213ZM169.244 385H168.283V384.062H168.26C167.842 384.781 167.227 385.141 166.414 385.141C165.816 385.141 165.348 384.982 165.008 384.666C164.672 384.35 164.504 383.93 164.504 383.406C164.504 382.285 165.164 381.633 166.484 381.449L168.283 381.197C168.283 380.178 167.871 379.668 167.047 379.668C166.324 379.668 165.672 379.914 165.09 380.406V379.422C165.68 379.047 166.359 378.859 167.129 378.859C168.539 378.859 169.244 379.605 169.244 381.098V385ZM168.283 381.965L166.836 382.164C166.391 382.227 166.055 382.338 165.828 382.498C165.602 382.654 165.488 382.934 165.488 383.336C165.488 383.629 165.592 383.869 165.799 384.057C166.01 384.24 166.289 384.332 166.637 384.332C167.113 384.332 167.506 384.166 167.814 383.834C168.127 383.498 168.283 383.074 168.283 382.562V381.965ZM173.838 384.941C173.611 385.066 173.312 385.129 172.941 385.129C171.891 385.129 171.365 384.543 171.365 383.371V379.82H170.334V379H171.365V377.535L172.326 377.225V379H173.838V379.82H172.326V383.201C172.326 383.604 172.395 383.891 172.531 384.062C172.668 384.234 172.895 384.32 173.211 384.32C173.453 384.32 173.662 384.254 173.838 384.121V384.941ZM179.973 385H179.012V384.051H178.988C178.59 384.777 177.973 385.141 177.137 385.141C175.707 385.141 174.992 384.289 174.992 382.586V379H175.947V382.434C175.947 383.699 176.432 384.332 177.4 384.332C177.869 384.332 178.254 384.16 178.555 383.816C178.859 383.469 179.012 383.016 179.012 382.457V379H179.973V385ZM186.213 385H185.252V384.062H185.229C184.811 384.781 184.195 385.141 183.383 385.141C182.785 385.141 182.316 384.982 181.977 384.666C181.641 384.35 181.473 383.93 181.473 383.406C181.473 382.285 182.133 381.633 183.453 381.449L185.252 381.197C185.252 380.178 184.84 379.668 184.016 379.668C183.293 379.668 182.641 379.914 182.059 380.406V379.422C182.648 379.047 183.328 378.859 184.098 378.859C185.508 378.859 186.213 379.605 186.213 381.098V385ZM185.252 381.965L183.805 382.164C183.359 382.227 183.023 382.338 182.797 382.498C182.57 382.654 182.457 382.934 182.457 383.336C182.457 383.629 182.561 383.869 182.768 384.057C182.979 384.24 183.258 384.332 183.605 384.332C184.082 384.332 184.475 384.166 184.783 383.834C185.096 383.498 185.252 383.074 185.252 382.562V381.965ZM188.984 385H188.023V376.117H188.984V385ZM191.422 377.477C191.25 377.477 191.104 377.418 190.982 377.301C190.861 377.184 190.801 377.035 190.801 376.855C190.801 376.676 190.861 376.527 190.982 376.41C191.104 376.289 191.25 376.229 191.422 376.229C191.598 376.229 191.746 376.289 191.867 376.41C191.992 376.527 192.055 376.676 192.055 376.855C192.055 377.027 191.992 377.174 191.867 377.295C191.746 377.416 191.598 377.477 191.422 377.477ZM191.891 385H190.93V379H191.891V385ZM198.02 379.275L194.469 384.18H197.984V385H193.057V384.701L196.607 379.82H193.391V379H198.02V379.275ZM203.557 385H202.596V384.062H202.572C202.154 384.781 201.539 385.141 200.727 385.141C200.129 385.141 199.66 384.982 199.32 384.666C198.984 384.35 198.816 383.93 198.816 383.406C198.816 382.285 199.477 381.633 200.797 381.449L202.596 381.197C202.596 380.178 202.184 379.668 201.359 379.668C200.637 379.668 199.984 379.914 199.402 380.406V379.422C199.992 379.047 200.672 378.859 201.441 378.859C202.852 378.859 203.557 379.605 203.557 381.098V385ZM202.596 381.965L201.148 382.164C200.703 382.227 200.367 382.338 200.141 382.498C199.914 382.654 199.801 382.934 199.801 383.336C199.801 383.629 199.904 383.869 200.111 384.057C200.322 384.24 200.602 384.332 200.949 384.332C201.426 384.332 201.818 384.166 202.127 383.834C202.439 383.498 202.596 383.074 202.596 382.562V381.965ZM210.488 385H209.527V383.98H209.504C209.059 384.754 208.371 385.141 207.441 385.141C206.688 385.141 206.084 384.873 205.631 384.338C205.182 383.799 204.957 383.066 204.957 382.141C204.957 381.148 205.207 380.354 205.707 379.756C206.207 379.158 206.873 378.859 207.705 378.859C208.529 378.859 209.129 379.184 209.504 379.832H209.527V376.117H210.488V385ZM209.527 382.287V381.402C209.527 380.918 209.367 380.508 209.047 380.172C208.727 379.836 208.32 379.668 207.828 379.668C207.242 379.668 206.781 379.883 206.445 380.312C206.109 380.742 205.941 381.336 205.941 382.094C205.941 382.785 206.102 383.332 206.422 383.734C206.746 384.133 207.18 384.332 207.723 384.332C208.258 384.332 208.691 384.139 209.023 383.752C209.359 383.365 209.527 382.877 209.527 382.287ZM214.941 385.141C214.055 385.141 213.346 384.861 212.814 384.303C212.287 383.74 212.023 382.996 212.023 382.07C212.023 381.062 212.299 380.275 212.85 379.709C213.4 379.143 214.145 378.859 215.082 378.859C215.977 378.859 216.674 379.135 217.174 379.686C217.678 380.236 217.93 381 217.93 381.977C217.93 382.934 217.658 383.701 217.115 384.279C216.576 384.854 215.852 385.141 214.941 385.141ZM215.012 379.668C214.395 379.668 213.906 379.879 213.547 380.301C213.188 380.719 213.008 381.297 213.008 382.035C213.008 382.746 213.189 383.307 213.553 383.717C213.916 384.127 214.402 384.332 215.012 384.332C215.633 384.332 216.109 384.131 216.441 383.729C216.777 383.326 216.945 382.754 216.945 382.012C216.945 381.262 216.777 380.684 216.441 380.277C216.109 379.871 215.633 379.668 215.012 379.668ZM227.58 382.24H223.344C223.359 382.908 223.539 383.424 223.883 383.787C224.227 384.15 224.699 384.332 225.301 384.332C225.977 384.332 226.598 384.109 227.164 383.664V384.566C226.637 384.949 225.939 385.141 225.072 385.141C224.225 385.141 223.559 384.869 223.074 384.326C222.59 383.779 222.348 383.012 222.348 382.023C222.348 381.09 222.611 380.33 223.139 379.744C223.67 379.154 224.328 378.859 225.113 378.859C225.898 378.859 226.506 379.113 226.936 379.621C227.365 380.129 227.58 380.834 227.58 381.736V382.24ZM226.596 381.426C226.592 380.871 226.457 380.439 226.191 380.131C225.93 379.822 225.564 379.668 225.096 379.668C224.643 379.668 224.258 379.83 223.941 380.154C223.625 380.479 223.43 380.902 223.355 381.426H226.596ZM80.4805 401.141C79.5938 401.141 78.8848 400.861 78.3535 400.303C77.8262 399.74 77.5625 398.996 77.5625 398.07C77.5625 397.062 77.8379 396.275 78.3887 395.709C78.9395 395.143 79.6836 394.859 80.6211 394.859C81.5156 394.859 82.2129 395.135 82.7129 395.686C83.2168 396.236 83.4688 397 83.4688 397.977C83.4688 398.934 83.1973 399.701 82.6543 400.279C82.1152 400.854 81.3906 401.141 80.4805 401.141ZM80.5508 395.668C79.9336 395.668 79.4453 395.879 79.0859 396.301C78.7266 396.719 78.5469 397.297 78.5469 398.035C78.5469 398.746 78.7285 399.307 79.0918 399.717C79.4551 400.127 79.9414 400.332 80.5508 400.332C81.1719 400.332 81.6484 400.131 81.9805 399.729C82.3164 399.326 82.4844 398.754 82.4844 398.012C82.4844 397.262 82.3164 396.684 81.9805 396.277C81.6484 395.871 81.1719 395.668 80.5508 395.668ZM87.7871 400.941C87.5605 401.066 87.2617 401.129 86.8906 401.129C85.8398 401.129 85.3145 400.543 85.3145 399.371V395.82H84.2832V395H85.3145V393.535L86.2754 393.225V395H87.7871V395.82H86.2754V399.201C86.2754 399.604 86.3438 399.891 86.4805 400.062C86.6172 400.234 86.8438 400.32 87.1602 400.32C87.4023 400.32 87.6113 400.254 87.7871 400.121V400.941ZM89.5625 393.477C89.3906 393.477 89.2441 393.418 89.123 393.301C89.002 393.184 88.9414 393.035 88.9414 392.855C88.9414 392.676 89.002 392.527 89.123 392.41C89.2441 392.289 89.3906 392.229 89.5625 392.229C89.7383 392.229 89.8867 392.289 90.0078 392.41C90.1328 392.527 90.1953 392.676 90.1953 392.855C90.1953 393.027 90.1328 393.174 90.0078 393.295C89.8867 393.416 89.7383 393.477 89.5625 393.477ZM90.0312 401H89.0703V395H90.0312V401ZM100.496 401H99.5352V397.555C99.5352 396.891 99.4316 396.41 99.2246 396.113C99.0215 395.816 98.6777 395.668 98.1934 395.668C97.7832 395.668 97.4336 395.855 97.1445 396.23C96.8594 396.605 96.7168 397.055 96.7168 397.578V401H95.7559V397.438C95.7559 396.258 95.3008 395.668 94.3906 395.668C93.9688 395.668 93.6211 395.846 93.3477 396.201C93.0742 396.553 92.9375 397.012 92.9375 397.578V401H91.9766V395H92.9375V395.949H92.9609C93.3867 395.223 94.0078 394.859 94.8242 394.859C95.2344 394.859 95.5918 394.975 95.8965 395.205C96.2012 395.432 96.4102 395.73 96.5234 396.102C96.9688 395.273 97.6328 394.859 98.5156 394.859C99.8359 394.859 100.496 395.674 100.496 397.303V401ZM102.805 393.477C102.633 393.477 102.486 393.418 102.365 393.301C102.244 393.184 102.184 393.035 102.184 392.855C102.184 392.676 102.244 392.527 102.365 392.41C102.486 392.289 102.633 392.229 102.805 392.229C102.98 392.229 103.129 392.289 103.25 392.41C103.375 392.527 103.438 392.676 103.438 392.855C103.438 393.027 103.375 393.174 103.25 393.295C103.129 393.416 102.98 393.477 102.805 393.477ZM103.273 401H102.312V395H103.273V401ZM109.402 395.275L105.852 400.18H109.367V401H104.439V400.701L107.99 395.82H104.773V395H109.402V395.275ZM114.939 401H113.979V400.062H113.955C113.537 400.781 112.922 401.141 112.109 401.141C111.512 401.141 111.043 400.982 110.703 400.666C110.367 400.35 110.199 399.93 110.199 399.406C110.199 398.285 110.859 397.633 112.18 397.449L113.979 397.197C113.979 396.178 113.566 395.668 112.742 395.668C112.02 395.668 111.367 395.914 110.785 396.406V395.422C111.375 395.047 112.055 394.859 112.824 394.859C114.234 394.859 114.939 395.605 114.939 397.098V401ZM113.979 397.965L112.531 398.164C112.086 398.227 111.75 398.338 111.523 398.498C111.297 398.654 111.184 398.934 111.184 399.336C111.184 399.629 111.287 399.869 111.494 400.057C111.705 400.24 111.984 400.332 112.332 400.332C112.809 400.332 113.201 400.166 113.51 399.834C113.822 399.498 113.979 399.074 113.979 398.562V397.965ZM121.871 401H120.91V399.98H120.887C120.441 400.754 119.754 401.141 118.824 401.141C118.07 401.141 117.467 400.873 117.014 400.338C116.564 399.799 116.34 399.066 116.34 398.141C116.34 397.148 116.59 396.354 117.09 395.756C117.59 395.158 118.256 394.859 119.088 394.859C119.912 394.859 120.512 395.184 120.887 395.832H120.91V392.117H121.871V401ZM120.91 398.287V397.402C120.91 396.918 120.75 396.508 120.43 396.172C120.109 395.836 119.703 395.668 119.211 395.668C118.625 395.668 118.164 395.883 117.828 396.312C117.492 396.742 117.324 397.336 117.324 398.094C117.324 398.785 117.484 399.332 117.805 399.734C118.129 400.133 118.562 400.332 119.105 400.332C119.641 400.332 120.074 400.139 120.406 399.752C120.742 399.365 120.91 398.877 120.91 398.287ZM126.324 401.141C125.438 401.141 124.729 400.861 124.197 400.303C123.67 399.74 123.406 398.996 123.406 398.07C123.406 397.062 123.682 396.275 124.232 395.709C124.783 395.143 125.527 394.859 126.465 394.859C127.359 394.859 128.057 395.135 128.557 395.686C129.061 396.236 129.312 397 129.312 397.977C129.312 398.934 129.041 399.701 128.498 400.279C127.959 400.854 127.234 401.141 126.324 401.141ZM126.395 395.668C125.777 395.668 125.289 395.879 124.93 396.301C124.57 396.719 124.391 397.297 124.391 398.035C124.391 398.746 124.572 399.307 124.936 399.717C125.299 400.127 125.785 400.332 126.395 400.332C127.016 400.332 127.492 400.131 127.824 399.729C128.16 399.326 128.328 398.754 128.328 398.012C128.328 397.262 128.16 396.684 127.824 396.277C127.492 395.871 127.016 395.668 126.395 395.668Z" fill="#6B6363"/>
<circle cx="283.744" cy="317.744" r="7.74433" fill="#DDFCF2"/>
<path d="M287.956 315.931L283.173 320.326L281.652 318.79L280.891 317.987L281.326 317.482L283.173 319.302L287.413 315.435L287.956 315.931Z" fill="#2FAF83" stroke="#2FAF83" stroke-width="0.5" stroke-linejoin="round"/>
<path d="M75.8271 302.604V301.25C75.9821 301.387 76.1667 301.51 76.3809 301.619C76.5996 301.729 76.8275 301.822 77.0645 301.899C77.306 301.972 77.5475 302.029 77.7891 302.07C78.0306 302.111 78.2539 302.132 78.459 302.132C79.1654 302.132 79.6917 302.002 80.0381 301.742C80.389 301.478 80.5645 301.1 80.5645 300.607C80.5645 300.343 80.5052 300.113 80.3867 299.917C80.2728 299.721 80.1133 299.543 79.9082 299.384C79.7031 299.22 79.4593 299.065 79.1768 298.919C78.8988 298.769 78.598 298.611 78.2744 298.447C77.9326 298.274 77.6136 298.099 77.3174 297.921C77.0212 297.743 76.7637 297.547 76.5449 297.333C76.3262 297.119 76.153 296.877 76.0254 296.608C75.9023 296.335 75.8408 296.016 75.8408 295.651C75.8408 295.205 75.9388 294.817 76.1348 294.489C76.3307 294.157 76.5882 293.883 76.9072 293.669C77.2262 293.455 77.5885 293.295 77.9941 293.19C78.4043 293.086 78.8213 293.033 79.2451 293.033C80.2113 293.033 80.9154 293.149 81.3574 293.382V294.674C80.7786 294.273 80.0358 294.072 79.1289 294.072C78.8783 294.072 78.6276 294.1 78.377 294.154C78.1263 294.204 77.903 294.289 77.707 294.407C77.5111 294.526 77.3516 294.678 77.2285 294.865C77.1055 295.052 77.0439 295.28 77.0439 295.549C77.0439 295.799 77.0895 296.016 77.1807 296.198C77.2764 296.381 77.4154 296.547 77.5977 296.697C77.7799 296.848 78.001 296.993 78.2607 297.135C78.5251 297.276 78.8281 297.431 79.1699 297.6C79.5208 297.773 79.8535 297.955 80.168 298.146C80.4824 298.338 80.7581 298.55 80.9951 298.782C81.2321 299.015 81.4189 299.272 81.5557 299.555C81.6969 299.837 81.7676 300.161 81.7676 300.525C81.7676 301.008 81.6719 301.419 81.4805 301.756C81.2936 302.089 81.0384 302.36 80.7148 302.569C80.3958 302.779 80.0267 302.929 79.6074 303.021C79.1882 303.116 78.7461 303.164 78.2812 303.164C78.1263 303.164 77.9349 303.15 77.707 303.123C77.4792 303.1 77.2467 303.064 77.0098 303.014C76.7728 302.968 76.5472 302.911 76.333 302.843C76.1234 302.77 75.9548 302.69 75.8271 302.604ZM89.1982 299.78H84.2559C84.2741 300.56 84.4837 301.161 84.8848 301.585C85.2858 302.009 85.8372 302.221 86.5391 302.221C87.3275 302.221 88.0521 301.961 88.7129 301.441V302.494C88.0977 302.941 87.2842 303.164 86.2725 303.164C85.2835 303.164 84.5065 302.847 83.9414 302.214C83.3763 301.576 83.0938 300.68 83.0938 299.527C83.0938 298.438 83.4014 297.552 84.0166 296.868C84.6364 296.18 85.4043 295.836 86.3203 295.836C87.2363 295.836 87.945 296.132 88.4463 296.725C88.9476 297.317 89.1982 298.14 89.1982 299.192V299.78ZM88.0498 298.83C88.0452 298.183 87.888 297.679 87.5781 297.319C87.2728 296.959 86.8467 296.779 86.2998 296.779C85.7712 296.779 85.3223 296.968 84.9531 297.347C84.584 297.725 84.3561 298.219 84.2695 298.83H88.0498ZM96.875 302.439C96.875 305.01 95.6445 306.295 93.1836 306.295C92.3177 306.295 91.5612 306.131 90.9141 305.803V304.682C91.7025 305.119 92.4544 305.338 93.1699 305.338C94.8926 305.338 95.7539 304.422 95.7539 302.59V301.824H95.7266C95.1934 302.717 94.3913 303.164 93.3203 303.164C92.4499 303.164 91.748 302.854 91.2148 302.234C90.6862 301.61 90.4219 300.774 90.4219 299.726C90.4219 298.536 90.7067 297.59 91.2764 296.889C91.8506 296.187 92.6344 295.836 93.6279 295.836C94.5713 295.836 95.2708 296.214 95.7266 296.971H95.7539V296H96.875V302.439ZM95.7539 299.835V298.803C95.7539 298.247 95.5648 297.771 95.1865 297.374C94.8128 296.978 94.3457 296.779 93.7852 296.779C93.0924 296.779 92.5501 297.032 92.1582 297.538C91.7663 298.039 91.5703 298.743 91.5703 299.65C91.5703 300.43 91.7572 301.054 92.1309 301.523C92.5091 301.988 93.0081 302.221 93.6279 302.221C94.2568 302.221 94.7673 301.997 95.1592 301.551C95.5557 301.104 95.7539 300.532 95.7539 299.835ZM104.805 303H103.684V301.893H103.656C103.191 302.74 102.471 303.164 101.496 303.164C99.8281 303.164 98.9941 302.171 98.9941 300.184V296H100.108V300.006C100.108 301.482 100.674 302.221 101.804 302.221C102.351 302.221 102.799 302.02 103.15 301.619C103.506 301.214 103.684 300.685 103.684 300.033V296H104.805V303ZM110.725 297.135C110.529 296.984 110.246 296.909 109.877 296.909C109.398 296.909 108.997 297.135 108.674 297.586C108.355 298.037 108.195 298.652 108.195 299.432V303H107.074V296H108.195V297.442H108.223C108.382 296.95 108.626 296.567 108.954 296.294C109.282 296.016 109.649 295.877 110.055 295.877C110.346 295.877 110.57 295.909 110.725 295.973V297.135ZM116.952 303H115.831V301.906H115.804C115.316 302.745 114.598 303.164 113.65 303.164C112.953 303.164 112.406 302.979 112.01 302.61C111.618 302.241 111.422 301.751 111.422 301.141C111.422 299.833 112.192 299.072 113.732 298.857L115.831 298.563C115.831 297.374 115.35 296.779 114.389 296.779C113.546 296.779 112.785 297.066 112.105 297.641V296.492C112.794 296.055 113.587 295.836 114.484 295.836C116.13 295.836 116.952 296.706 116.952 298.447V303ZM115.831 299.459L114.143 299.691C113.623 299.764 113.231 299.894 112.967 300.081C112.702 300.263 112.57 300.589 112.57 301.059C112.57 301.4 112.691 301.681 112.933 301.899C113.179 302.114 113.505 302.221 113.91 302.221C114.466 302.221 114.924 302.027 115.284 301.64C115.649 301.248 115.831 300.753 115.831 300.156V299.459ZM124.875 303H123.754V299.008C123.754 297.522 123.212 296.779 122.127 296.779C121.566 296.779 121.102 296.991 120.732 297.415C120.368 297.834 120.186 298.365 120.186 299.008V303H119.064V296H120.186V297.162H120.213C120.742 296.278 121.507 295.836 122.51 295.836C123.275 295.836 123.861 296.084 124.267 296.581C124.672 297.073 124.875 297.786 124.875 298.721V303ZM131.766 302.679C131.228 303.002 130.59 303.164 129.852 303.164C128.854 303.164 128.047 302.84 127.432 302.193C126.821 301.542 126.516 300.699 126.516 299.664C126.516 298.511 126.846 297.586 127.507 296.889C128.168 296.187 129.049 295.836 130.152 295.836C130.768 295.836 131.31 295.95 131.779 296.178V297.326C131.26 296.962 130.704 296.779 130.111 296.779C129.396 296.779 128.808 297.037 128.348 297.552C127.892 298.062 127.664 298.734 127.664 299.568C127.664 300.389 127.878 301.036 128.307 301.51C128.74 301.984 129.318 302.221 130.043 302.221C130.654 302.221 131.228 302.018 131.766 301.612V302.679ZM131.178 304.75C131.178 305.552 130.551 305.953 129.298 305.953C129.125 305.953 128.977 305.949 128.854 305.939V305.324C129.049 305.352 129.209 305.365 129.332 305.365C129.975 305.365 130.296 305.16 130.296 304.75C130.296 304.395 130.002 304.217 129.414 304.217C129.368 304.217 129.275 304.226 129.134 304.244V303H129.872V303.711C130.273 303.711 130.59 303.802 130.822 303.984C131.059 304.167 131.178 304.422 131.178 304.75ZM138.472 303H137.351V301.906H137.323C136.836 302.745 136.118 303.164 135.17 303.164C134.473 303.164 133.926 302.979 133.529 302.61C133.137 302.241 132.941 301.751 132.941 301.141C132.941 299.833 133.712 299.072 135.252 298.857L137.351 298.563C137.351 297.374 136.87 296.779 135.908 296.779C135.065 296.779 134.304 297.066 133.625 297.641V296.492C134.313 296.055 135.106 295.836 136.004 295.836C137.649 295.836 138.472 296.706 138.472 298.447V303ZM137.351 299.459L135.662 299.691C135.143 299.764 134.751 299.894 134.486 300.081C134.222 300.263 134.09 300.589 134.09 301.059C134.09 301.4 134.211 301.681 134.452 301.899C134.698 302.114 135.024 302.221 135.43 302.221C135.986 302.221 136.444 302.027 136.804 301.64C137.168 301.248 137.351 300.753 137.351 300.156V299.459Z" fill="#092038"/>
<path d="M79.0859 320.824V324H78.1016V315.598H80.4102C81.3086 315.598 82.0039 315.816 82.4961 316.254C82.9922 316.691 83.2402 317.309 83.2402 318.105C83.2402 318.902 82.9648 319.555 82.4141 320.062C81.8672 320.57 81.127 320.824 80.1934 320.824H79.0859ZM79.0859 316.488V319.934H80.1172C80.7969 319.934 81.3145 319.779 81.6699 319.471C82.0293 319.158 82.209 318.719 82.209 318.152C82.209 317.043 81.5527 316.488 80.2402 316.488H79.0859ZM87.8281 318.973C87.6602 318.844 87.418 318.779 87.1016 318.779C86.6914 318.779 86.3477 318.973 86.0703 319.359C85.7969 319.746 85.6602 320.273 85.6602 320.941V324H84.6992V318H85.6602V319.236H85.6836C85.8203 318.814 86.0293 318.486 86.3105 318.252C86.5918 318.014 86.9062 317.895 87.2539 317.895C87.5039 317.895 87.6953 317.922 87.8281 317.977V318.973ZM91.3789 324.141C90.4922 324.141 89.7832 323.861 89.252 323.303C88.7246 322.74 88.4609 321.996 88.4609 321.07C88.4609 320.062 88.7363 319.275 89.2871 318.709C89.8379 318.143 90.582 317.859 91.5195 317.859C92.4141 317.859 93.1113 318.135 93.6113 318.686C94.1152 319.236 94.3672 320 94.3672 320.977C94.3672 321.934 94.0957 322.701 93.5527 323.279C93.0137 323.854 92.2891 324.141 91.3789 324.141ZM91.4492 318.668C90.832 318.668 90.3438 318.879 89.9844 319.301C89.625 319.719 89.4453 320.297 89.4453 321.035C89.4453 321.746 89.627 322.307 89.9902 322.717C90.3535 323.127 90.8398 323.332 91.4492 323.332C92.0703 323.332 92.5469 323.131 92.8789 322.729C93.2148 322.326 93.3828 321.754 93.3828 321.012C93.3828 320.262 93.2148 319.684 92.8789 319.277C92.5469 318.871 92.0703 318.668 91.4492 318.668ZM98.6855 323.941C98.459 324.066 98.1602 324.129 97.7891 324.129C96.7383 324.129 96.2129 323.543 96.2129 322.371V318.82H95.1816V318H96.2129V316.535L97.1738 316.225V318H98.6855V318.82H97.1738V322.201C97.1738 322.604 97.2422 322.891 97.3789 323.062C97.5156 323.234 97.7422 323.32 98.0586 323.32C98.3008 323.32 98.5098 323.254 98.6855 323.121V323.941ZM104.791 321.24H100.555C100.57 321.908 100.75 322.424 101.094 322.787C101.438 323.15 101.91 323.332 102.512 323.332C103.188 323.332 103.809 323.109 104.375 322.664V323.566C103.848 323.949 103.15 324.141 102.283 324.141C101.436 324.141 100.77 323.869 100.285 323.326C99.8008 322.779 99.5586 322.012 99.5586 321.023C99.5586 320.09 99.8223 319.33 100.35 318.744C100.881 318.154 101.539 317.859 102.324 317.859C103.109 317.859 103.717 318.113 104.146 318.621C104.576 319.129 104.791 319.834 104.791 320.736V321.24ZM103.807 320.426C103.803 319.871 103.668 319.439 103.402 319.131C103.141 318.822 102.775 318.668 102.307 318.668C101.854 318.668 101.469 318.83 101.152 319.154C100.836 319.479 100.641 319.902 100.566 320.426H103.807ZM110.34 323.725C109.879 324.002 109.332 324.141 108.699 324.141C107.844 324.141 107.152 323.863 106.625 323.309C106.102 322.75 105.84 322.027 105.84 321.141C105.84 320.152 106.123 319.359 106.689 318.762C107.256 318.16 108.012 317.859 108.957 317.859C109.484 317.859 109.949 317.957 110.352 318.152V319.137C109.906 318.824 109.43 318.668 108.922 318.668C108.309 318.668 107.805 318.889 107.41 319.33C107.02 319.768 106.824 320.344 106.824 321.059C106.824 321.762 107.008 322.316 107.375 322.723C107.746 323.129 108.242 323.332 108.863 323.332C109.387 323.332 109.879 323.158 110.34 322.811V323.725ZM109.836 325.5C109.836 326.188 109.299 326.531 108.225 326.531C108.076 326.531 107.949 326.527 107.844 326.52V325.992C108.012 326.016 108.148 326.027 108.254 326.027C108.805 326.027 109.08 325.852 109.08 325.5C109.08 325.195 108.828 325.043 108.324 325.043C108.285 325.043 108.205 325.051 108.084 325.066V324H108.717V324.609C109.061 324.609 109.332 324.688 109.531 324.844C109.734 325 109.836 325.219 109.836 325.5ZM116.088 324H115.127V323.062H115.104C114.686 323.781 114.07 324.141 113.258 324.141C112.66 324.141 112.191 323.982 111.852 323.666C111.516 323.35 111.348 322.93 111.348 322.406C111.348 321.285 112.008 320.633 113.328 320.449L115.127 320.197C115.127 319.178 114.715 318.668 113.891 318.668C113.168 318.668 112.516 318.914 111.934 319.406V318.422C112.523 318.047 113.203 317.859 113.973 317.859C115.383 317.859 116.088 318.605 116.088 320.098V324ZM115.127 320.965L113.68 321.164C113.234 321.227 112.898 321.338 112.672 321.498C112.445 321.654 112.332 321.934 112.332 322.336C112.332 322.629 112.436 322.869 112.643 323.057C112.854 323.24 113.133 323.332 113.48 323.332C113.957 323.332 114.35 323.166 114.658 322.834C114.971 322.498 115.127 322.074 115.127 321.562V320.965ZM115.766 315.457C115.766 315.867 115.672 316.203 115.484 316.465C115.297 316.723 115.043 316.852 114.723 316.852C114.445 316.852 114.129 316.75 113.773 316.547C113.473 316.379 113.24 316.295 113.076 316.295C112.732 316.295 112.561 316.516 112.561 316.957H112.01C112.01 316.539 112.104 316.205 112.291 315.955C112.479 315.701 112.74 315.574 113.076 315.574C113.33 315.574 113.621 315.676 113.949 315.879C114.238 316.051 114.488 316.137 114.699 316.137C115.027 316.137 115.191 315.91 115.191 315.457H115.766ZM120.406 324.141C119.52 324.141 118.811 323.861 118.279 323.303C117.752 322.74 117.488 321.996 117.488 321.07C117.488 320.062 117.764 319.275 118.314 318.709C118.865 318.143 119.609 317.859 120.547 317.859C121.441 317.859 122.139 318.135 122.639 318.686C123.143 319.236 123.395 320 123.395 320.977C123.395 321.934 123.123 322.701 122.58 323.279C122.041 323.854 121.316 324.141 120.406 324.141ZM120.477 318.668C119.859 318.668 119.371 318.879 119.012 319.301C118.652 319.719 118.473 320.297 118.473 321.035C118.473 321.746 118.654 322.307 119.018 322.717C119.381 323.127 119.867 323.332 120.477 323.332C121.098 323.332 121.574 323.131 121.906 322.729C122.242 322.326 122.41 321.754 122.41 321.012C122.41 320.262 122.242 319.684 121.906 319.277C121.574 318.871 121.098 318.668 120.477 318.668ZM132.312 323.725C131.852 324.002 131.305 324.141 130.672 324.141C129.816 324.141 129.125 323.863 128.598 323.309C128.074 322.75 127.812 322.027 127.812 321.141C127.812 320.152 128.096 319.359 128.662 318.762C129.229 318.16 129.984 317.859 130.93 317.859C131.457 317.859 131.922 317.957 132.324 318.152V319.137C131.879 318.824 131.402 318.668 130.895 318.668C130.281 318.668 129.777 318.889 129.383 319.33C128.992 319.768 128.797 320.344 128.797 321.059C128.797 321.762 128.98 322.316 129.348 322.723C129.719 323.129 130.215 323.332 130.836 323.332C131.359 323.332 131.852 323.158 132.312 322.811V323.725ZM136.273 324.141C135.387 324.141 134.678 323.861 134.146 323.303C133.619 322.74 133.355 321.996 133.355 321.07C133.355 320.062 133.631 319.275 134.182 318.709C134.732 318.143 135.477 317.859 136.414 317.859C137.309 317.859 138.006 318.135 138.506 318.686C139.01 319.236 139.262 320 139.262 320.977C139.262 321.934 138.99 322.701 138.447 323.279C137.908 323.854 137.184 324.141 136.273 324.141ZM136.344 318.668C135.727 318.668 135.238 318.879 134.879 319.301C134.52 319.719 134.34 320.297 134.34 321.035C134.34 321.746 134.521 322.307 134.885 322.717C135.248 323.127 135.734 323.332 136.344 323.332C136.965 323.332 137.441 323.131 137.773 322.729C138.109 322.326 138.277 321.754 138.277 321.012C138.277 320.262 138.109 319.684 137.773 319.277C137.441 318.871 136.965 318.668 136.344 318.668ZM149.316 324H148.355V320.555C148.355 319.891 148.252 319.41 148.045 319.113C147.842 318.816 147.498 318.668 147.014 318.668C146.604 318.668 146.254 318.855 145.965 319.23C145.68 319.605 145.537 320.055 145.537 320.578V324H144.576V320.438C144.576 319.258 144.121 318.668 143.211 318.668C142.789 318.668 142.441 318.846 142.168 319.201C141.895 319.553 141.758 320.012 141.758 320.578V324H140.797V318H141.758V318.949H141.781C142.207 318.223 142.828 317.859 143.645 317.859C144.055 317.859 144.412 317.975 144.717 318.205C145.021 318.432 145.23 318.73 145.344 319.102C145.789 318.273 146.453 317.859 147.336 317.859C148.656 317.859 149.316 318.674 149.316 320.303V324ZM158.516 323.725C158.055 324.002 157.508 324.141 156.875 324.141C156.02 324.141 155.328 323.863 154.801 323.309C154.277 322.75 154.016 322.027 154.016 321.141C154.016 320.152 154.299 319.359 154.865 318.762C155.432 318.16 156.188 317.859 157.133 317.859C157.66 317.859 158.125 317.957 158.527 318.152V319.137C158.082 318.824 157.605 318.668 157.098 318.668C156.484 318.668 155.98 318.889 155.586 319.33C155.195 319.768 155 320.344 155 321.059C155 321.762 155.184 322.316 155.551 322.723C155.922 323.129 156.418 323.332 157.039 323.332C157.562 323.332 158.055 323.158 158.516 322.811V323.725ZM163.098 318.973C162.93 318.844 162.688 318.779 162.371 318.779C161.961 318.779 161.617 318.973 161.34 319.359C161.066 319.746 160.93 320.273 160.93 320.941V324H159.969V318H160.93V319.236H160.953C161.09 318.814 161.299 318.486 161.58 318.252C161.861 318.014 162.176 317.895 162.523 317.895C162.773 317.895 162.965 317.922 163.098 317.977V318.973ZM164.633 316.477C164.461 316.477 164.314 316.418 164.193 316.301C164.072 316.184 164.012 316.035 164.012 315.855C164.012 315.676 164.072 315.527 164.193 315.41C164.314 315.289 164.461 315.229 164.633 315.229C164.809 315.229 164.957 315.289 165.078 315.41C165.203 315.527 165.266 315.676 165.266 315.855C165.266 316.027 165.203 316.174 165.078 316.295C164.957 316.416 164.809 316.477 164.633 316.477ZM165.102 324H164.141V318H165.102V324ZM168.031 323.133H168.008V326.76H167.047V318H168.008V319.055H168.031C168.504 318.258 169.195 317.859 170.105 317.859C170.879 317.859 171.482 318.129 171.916 318.668C172.35 319.203 172.566 319.922 172.566 320.824C172.566 321.828 172.322 322.633 171.834 323.238C171.346 323.84 170.678 324.141 169.83 324.141C169.053 324.141 168.453 323.805 168.031 323.133ZM168.008 320.713V321.551C168.008 322.047 168.168 322.469 168.488 322.816C168.812 323.16 169.223 323.332 169.719 323.332C170.301 323.332 170.756 323.109 171.084 322.664C171.416 322.219 171.582 321.6 171.582 320.807C171.582 320.139 171.428 319.615 171.119 319.236C170.811 318.857 170.393 318.668 169.865 318.668C169.307 318.668 168.857 318.863 168.518 319.254C168.178 319.641 168.008 320.127 168.008 320.713ZM176.885 323.941C176.658 324.066 176.359 324.129 175.988 324.129C174.938 324.129 174.412 323.543 174.412 322.371V318.82H173.381V318H174.412V316.535L175.373 316.225V318H176.885V318.82H175.373V322.201C175.373 322.604 175.441 322.891 175.578 323.062C175.715 323.234 175.941 323.32 176.258 323.32C176.5 323.32 176.709 323.254 176.885 323.121V323.941ZM180.676 324.141C179.789 324.141 179.08 323.861 178.549 323.303C178.021 322.74 177.758 321.996 177.758 321.07C177.758 320.062 178.033 319.275 178.584 318.709C179.135 318.143 179.879 317.859 180.816 317.859C181.711 317.859 182.408 318.135 182.908 318.686C183.412 319.236 183.664 320 183.664 320.977C183.664 321.934 183.393 322.701 182.85 323.279C182.311 323.854 181.586 324.141 180.676 324.141ZM180.746 318.668C180.129 318.668 179.641 318.879 179.281 319.301C178.922 319.719 178.742 320.297 178.742 321.035C178.742 321.746 178.924 322.307 179.287 322.717C179.65 323.127 180.137 323.332 180.746 323.332C181.367 323.332 181.844 323.131 182.176 322.729C182.512 322.326 182.68 321.754 182.68 321.012C182.68 320.262 182.512 319.684 182.176 319.277C181.844 318.871 181.367 318.668 180.746 318.668ZM190.32 323.52C190.32 325.723 189.266 326.824 187.156 326.824C186.414 326.824 185.766 326.684 185.211 326.402V325.441C185.887 325.816 186.531 326.004 187.145 326.004C188.621 326.004 189.359 325.219 189.359 323.648V322.992H189.336C188.879 323.758 188.191 324.141 187.273 324.141C186.527 324.141 185.926 323.875 185.469 323.344C185.016 322.809 184.789 322.092 184.789 321.193C184.789 320.174 185.033 319.363 185.521 318.762C186.014 318.16 186.686 317.859 187.537 317.859C188.346 317.859 188.945 318.184 189.336 318.832H189.359V318H190.32V323.52ZM189.359 321.287V320.402C189.359 319.926 189.197 319.518 188.873 319.178C188.553 318.838 188.152 318.668 187.672 318.668C187.078 318.668 186.613 318.885 186.277 319.318C185.941 319.748 185.773 320.352 185.773 321.129C185.773 321.797 185.934 322.332 186.254 322.734C186.578 323.133 187.006 323.332 187.537 323.332C188.076 323.332 188.514 323.141 188.85 322.758C189.189 322.375 189.359 321.885 189.359 321.287ZM195.395 318.973C195.227 318.844 194.984 318.779 194.668 318.779C194.258 318.779 193.914 318.973 193.637 319.359C193.363 319.746 193.227 320.273 193.227 320.941V324H192.266V318H193.227V319.236H193.25C193.387 318.814 193.596 318.486 193.877 318.252C194.158 318.014 194.473 317.895 194.82 317.895C195.07 317.895 195.262 317.922 195.395 317.977V318.973ZM200.732 324H199.771V323.062H199.748C199.33 323.781 198.715 324.141 197.902 324.141C197.305 324.141 196.836 323.982 196.496 323.666C196.16 323.35 195.992 322.93 195.992 322.406C195.992 321.285 196.652 320.633 197.973 320.449L199.771 320.197C199.771 319.178 199.359 318.668 198.535 318.668C197.812 318.668 197.16 318.914 196.578 319.406V318.422C197.168 318.047 197.848 317.859 198.617 317.859C200.027 317.859 200.732 318.605 200.732 320.098V324ZM199.771 320.965L198.324 321.164C197.879 321.227 197.543 321.338 197.316 321.498C197.09 321.654 196.977 321.934 196.977 322.336C196.977 322.629 197.08 322.869 197.287 323.057C197.498 323.24 197.777 323.332 198.125 323.332C198.602 323.332 198.994 323.166 199.303 322.834C199.615 322.498 199.771 322.074 199.771 321.562V320.965ZM205.508 315.961C205.32 315.855 205.107 315.803 204.869 315.803C204.197 315.803 203.861 316.227 203.861 317.074V318H205.268V318.82H203.861V324H202.906V318.82H201.881V318H202.906V317.027C202.906 316.398 203.088 315.902 203.451 315.539C203.814 315.172 204.268 314.988 204.811 314.988C205.104 314.988 205.336 315.023 205.508 315.094V315.961ZM206.797 316.477C206.625 316.477 206.479 316.418 206.357 316.301C206.236 316.184 206.176 316.035 206.176 315.855C206.176 315.676 206.236 315.527 206.357 315.41C206.479 315.289 206.625 315.229 206.797 315.229C206.973 315.229 207.121 315.289 207.242 315.41C207.367 315.527 207.43 315.676 207.43 315.855C207.43 316.027 207.367 316.174 207.242 316.295C207.121 316.416 206.973 316.477 206.797 316.477ZM207.266 324H206.305V318H207.266V324ZM213.506 324H212.545V323.062H212.521C212.104 323.781 211.488 324.141 210.676 324.141C210.078 324.141 209.609 323.982 209.27 323.666C208.934 323.35 208.766 322.93 208.766 322.406C208.766 321.285 209.426 320.633 210.746 320.449L212.545 320.197C212.545 319.178 212.133 318.668 211.309 318.668C210.586 318.668 209.934 318.914 209.352 319.406V318.422C209.941 318.047 210.621 317.859 211.391 317.859C212.801 317.859 213.506 318.605 213.506 320.098V324ZM212.545 320.965L211.098 321.164C210.652 321.227 210.316 321.338 210.09 321.498C209.863 321.654 209.75 321.934 209.75 322.336C209.75 322.629 209.854 322.869 210.061 323.057C210.271 323.24 210.551 323.332 210.898 323.332C211.375 323.332 211.768 323.166 212.076 322.834C212.389 322.498 212.545 322.074 212.545 321.562V320.965ZM223.432 321.24H219.195C219.211 321.908 219.391 322.424 219.734 322.787C220.078 323.15 220.551 323.332 221.152 323.332C221.828 323.332 222.449 323.109 223.016 322.664V323.566C222.488 323.949 221.791 324.141 220.924 324.141C220.076 324.141 219.41 323.869 218.926 323.326C218.441 322.779 218.199 322.012 218.199 321.023C218.199 320.09 218.463 319.33 218.99 318.744C219.521 318.154 220.18 317.859 220.965 317.859C221.75 317.859 222.357 318.113 222.787 318.621C223.217 319.129 223.432 319.834 223.432 320.736V321.24ZM222.447 320.426C222.443 319.871 222.309 319.439 222.043 319.131C221.781 318.822 221.416 318.668 220.947 318.668C220.494 318.668 220.109 318.83 219.793 319.154C219.477 319.479 219.281 319.902 219.207 320.426H222.447ZM229.168 323.133H229.145V324H228.184V315.117H229.145V319.055H229.168C229.641 318.258 230.332 317.859 231.242 317.859C232.012 317.859 232.613 318.129 233.047 318.668C233.484 319.203 233.703 319.922 233.703 320.824C233.703 321.828 233.459 322.633 232.971 323.238C232.482 323.84 231.814 324.141 230.967 324.141C230.174 324.141 229.574 323.805 229.168 323.133ZM229.145 320.713V321.551C229.145 322.047 229.305 322.469 229.625 322.816C229.949 323.16 230.359 323.332 230.855 323.332C231.438 323.332 231.893 323.109 232.221 322.664C232.553 322.219 232.719 321.6 232.719 320.807C232.719 320.139 232.564 319.615 232.256 319.236C231.947 318.857 231.529 318.668 231.002 318.668C230.443 318.668 229.994 318.863 229.654 319.254C229.314 319.641 229.145 320.127 229.145 320.713ZM239.533 324H238.572V323.062H238.549C238.131 323.781 237.516 324.141 236.703 324.141C236.105 324.141 235.637 323.982 235.297 323.666C234.961 323.35 234.793 322.93 234.793 322.406C234.793 321.285 235.453 320.633 236.773 320.449L238.572 320.197C238.572 319.178 238.16 318.668 237.336 318.668C236.613 318.668 235.961 318.914 235.379 319.406V318.422C235.969 318.047 236.648 317.859 237.418 317.859C238.828 317.859 239.533 318.605 239.533 320.098V324ZM238.572 320.965L237.125 321.164C236.68 321.227 236.344 321.338 236.117 321.498C235.891 321.654 235.777 321.934 235.777 322.336C235.777 322.629 235.881 322.869 236.088 323.057C236.299 323.24 236.578 323.332 236.926 323.332C237.402 323.332 237.795 323.166 238.104 322.834C238.416 322.498 238.572 322.074 238.572 321.562V320.965ZM245.434 323.725C244.973 324.002 244.426 324.141 243.793 324.141C242.938 324.141 242.246 323.863 241.719 323.309C241.195 322.75 240.934 322.027 240.934 321.141C240.934 320.152 241.217 319.359 241.783 318.762C242.35 318.16 243.105 317.859 244.051 317.859C244.578 317.859 245.043 317.957 245.445 318.152V319.137C245 318.824 244.523 318.668 244.016 318.668C243.402 318.668 242.898 318.889 242.504 319.33C242.113 319.768 241.918 320.344 241.918 321.059C241.918 321.762 242.102 322.316 242.469 322.723C242.84 323.129 243.336 323.332 243.957 323.332C244.48 323.332 244.973 323.158 245.434 322.811V323.725ZM251.867 324H250.52L247.871 321.117H247.848V324H246.887V315.117H247.848V320.748H247.871L250.391 318H251.65L248.867 320.895L251.867 324ZM257.703 324H256.742V323.051H256.719C256.32 323.777 255.703 324.141 254.867 324.141C253.438 324.141 252.723 323.289 252.723 321.586V318H253.678V321.434C253.678 322.699 254.162 323.332 255.131 323.332C255.6 323.332 255.984 323.16 256.285 322.816C256.59 322.469 256.742 322.016 256.742 321.457V318H257.703V324ZM260.633 323.133H260.609V326.76H259.648V318H260.609V319.055H260.633C261.105 318.258 261.797 317.859 262.707 317.859C263.48 317.859 264.084 318.129 264.518 318.668C264.951 319.203 265.168 319.922 265.168 320.824C265.168 321.828 264.924 322.633 264.436 323.238C263.947 323.84 263.279 324.141 262.432 324.141C261.654 324.141 261.055 323.805 260.633 323.133ZM260.609 320.713V321.551C260.609 322.047 260.77 322.469 261.09 322.816C261.414 323.16 261.824 323.332 262.32 323.332C262.902 323.332 263.357 323.109 263.686 322.664C264.018 322.219 264.184 321.6 264.184 320.807C264.184 320.139 264.029 319.615 263.721 319.236C263.412 318.857 262.994 318.668 262.467 318.668C261.908 318.668 261.459 318.863 261.119 319.254C260.779 319.641 260.609 320.127 260.609 320.713ZM266.34 323.783V322.752C266.863 323.139 267.439 323.332 268.068 323.332C268.912 323.332 269.334 323.051 269.334 322.488C269.334 322.328 269.297 322.193 269.223 322.084C269.152 321.971 269.055 321.871 268.93 321.785C268.809 321.699 268.664 321.623 268.496 321.557C268.332 321.486 268.154 321.414 267.963 321.34C267.697 321.234 267.463 321.129 267.26 321.023C267.061 320.914 266.893 320.793 266.756 320.66C266.623 320.523 266.521 320.369 266.451 320.197C266.385 320.025 266.352 319.824 266.352 319.594C266.352 319.312 266.416 319.064 266.545 318.85C266.674 318.631 266.846 318.449 267.061 318.305C267.275 318.156 267.52 318.045 267.793 317.971C268.07 317.896 268.355 317.859 268.648 317.859C269.168 317.859 269.633 317.949 270.043 318.129V319.102C269.602 318.812 269.094 318.668 268.52 318.668C268.34 318.668 268.178 318.689 268.033 318.732C267.889 318.771 267.764 318.828 267.658 318.902C267.557 318.977 267.477 319.066 267.418 319.172C267.363 319.273 267.336 319.387 267.336 319.512C267.336 319.668 267.363 319.799 267.418 319.904C267.477 320.01 267.561 320.104 267.67 320.186C267.779 320.268 267.912 320.342 268.068 320.408C268.225 320.475 268.402 320.547 268.602 320.625C268.867 320.727 269.105 320.832 269.316 320.941C269.527 321.047 269.707 321.168 269.855 321.305C270.004 321.438 270.117 321.592 270.195 321.768C270.277 321.943 270.318 322.152 270.318 322.395C270.318 322.691 270.252 322.949 270.119 323.168C269.99 323.387 269.816 323.568 269.598 323.713C269.379 323.857 269.127 323.965 268.842 324.035C268.557 324.105 268.258 324.141 267.945 324.141C267.328 324.141 266.793 324.021 266.34 323.783ZM83.0938 340H82.1328V338.98H82.1094C81.6641 339.754 80.9766 340.141 80.0469 340.141C79.293 340.141 78.6895 339.873 78.2363 339.338C77.7871 338.799 77.5625 338.066 77.5625 337.141C77.5625 336.148 77.8125 335.354 78.3125 334.756C78.8125 334.158 79.4785 333.859 80.3105 333.859C81.1348 333.859 81.7344 334.184 82.1094 334.832H82.1328V331.117H83.0938V340ZM82.1328 337.287V336.402C82.1328 335.918 81.9727 335.508 81.6523 335.172C81.332 334.836 80.9258 334.668 80.4336 334.668C79.8477 334.668 79.3867 334.883 79.0508 335.312C78.7148 335.742 78.5469 336.336 78.5469 337.094C78.5469 337.785 78.707 338.332 79.0273 338.734C79.3516 339.133 79.7852 339.332 80.3281 339.332C80.8633 339.332 81.2969 339.139 81.6289 338.752C81.9648 338.365 82.1328 337.877 82.1328 337.287ZM85.5312 332.477C85.3594 332.477 85.2129 332.418 85.0918 332.301C84.9707 332.184 84.9102 332.035 84.9102 331.855C84.9102 331.676 84.9707 331.527 85.0918 331.41C85.2129 331.289 85.3594 331.229 85.5312 331.229C85.707 331.229 85.8555 331.289 85.9766 331.41C86.1016 331.527 86.1641 331.676 86.1641 331.855C86.1641 332.027 86.1016 332.174 85.9766 332.295C85.8555 332.416 85.707 332.477 85.5312 332.477ZM86 340H85.0391V334H86V340ZM92.2402 340H91.2793V339.062H91.2559C90.8379 339.781 90.2227 340.141 89.4102 340.141C88.8125 340.141 88.3438 339.982 88.0039 339.666C87.668 339.35 87.5 338.93 87.5 338.406C87.5 337.285 88.1602 336.633 89.4805 336.449L91.2793 336.197C91.2793 335.178 90.8672 334.668 90.043 334.668C89.3203 334.668 88.668 334.914 88.0859 335.406V334.422C88.6758 334.047 89.3555 333.859 90.125 333.859C91.5352 333.859 92.2402 334.605 92.2402 336.098V340ZM91.2793 336.965L89.832 337.164C89.3867 337.227 89.0508 337.338 88.8242 337.498C88.5977 337.654 88.4844 337.934 88.4844 338.336C88.4844 338.629 88.5879 338.869 88.7949 339.057C89.0059 339.24 89.2852 339.332 89.6328 339.332C90.1094 339.332 90.502 339.166 90.8105 338.834C91.123 338.498 91.2793 338.074 91.2793 337.562V336.965ZM91.4082 330.941L89.873 332.863H89.1289L90.4355 330.941H91.4082ZM97.1797 334.973C97.0117 334.844 96.7695 334.779 96.4531 334.779C96.043 334.779 95.6992 334.973 95.4219 335.359C95.1484 335.746 95.0117 336.273 95.0117 336.941V340H94.0508V334H95.0117V335.236H95.0352C95.1719 334.814 95.3809 334.486 95.6621 334.252C95.9434 334.014 96.2578 333.895 96.6055 333.895C96.8555 333.895 97.0469 333.922 97.1797 333.977V334.973ZM98.7148 332.477C98.543 332.477 98.3965 332.418 98.2754 332.301C98.1543 332.184 98.0938 332.035 98.0938 331.855C98.0938 331.676 98.1543 331.527 98.2754 331.41C98.3965 331.289 98.543 331.229 98.7148 331.229C98.8906 331.229 99.0391 331.289 99.1602 331.41C99.2852 331.527 99.3477 331.676 99.3477 331.855C99.3477 332.027 99.2852 332.174 99.1602 332.295C99.0391 332.416 98.8906 332.477 98.7148 332.477ZM99.1836 340H98.2227V334H99.1836V340ZM103.637 340.141C102.75 340.141 102.041 339.861 101.51 339.303C100.982 338.74 100.719 337.996 100.719 337.07C100.719 336.062 100.994 335.275 101.545 334.709C102.096 334.143 102.84 333.859 103.777 333.859C104.672 333.859 105.369 334.135 105.869 334.686C106.373 335.236 106.625 336 106.625 336.977C106.625 337.934 106.354 338.701 105.811 339.279C105.271 339.854 104.547 340.141 103.637 340.141ZM103.707 334.668C103.09 334.668 102.602 334.879 102.242 335.301C101.883 335.719 101.703 336.297 101.703 337.035C101.703 337.746 101.885 338.307 102.248 338.717C102.611 339.127 103.098 339.332 103.707 339.332C104.328 339.332 104.805 339.131 105.137 338.729C105.473 338.326 105.641 337.754 105.641 337.012C105.641 336.262 105.473 335.684 105.137 335.277C104.805 334.871 104.328 334.668 103.707 334.668ZM107.797 339.783V338.752C108.32 339.139 108.896 339.332 109.525 339.332C110.369 339.332 110.791 339.051 110.791 338.488C110.791 338.328 110.754 338.193 110.68 338.084C110.609 337.971 110.512 337.871 110.387 337.785C110.266 337.699 110.121 337.623 109.953 337.557C109.789 337.486 109.611 337.414 109.42 337.34C109.154 337.234 108.92 337.129 108.717 337.023C108.518 336.914 108.35 336.793 108.213 336.66C108.08 336.523 107.979 336.369 107.908 336.197C107.842 336.025 107.809 335.824 107.809 335.594C107.809 335.312 107.873 335.064 108.002 334.85C108.131 334.631 108.303 334.449 108.518 334.305C108.732 334.156 108.977 334.045 109.25 333.971C109.527 333.896 109.812 333.859 110.105 333.859C110.625 333.859 111.09 333.949 111.5 334.129V335.102C111.059 334.812 110.551 334.668 109.977 334.668C109.797 334.668 109.635 334.689 109.49 334.732C109.346 334.771 109.221 334.828 109.115 334.902C109.014 334.977 108.934 335.066 108.875 335.172C108.82 335.273 108.793 335.387 108.793 335.512C108.793 335.668 108.82 335.799 108.875 335.904C108.934 336.01 109.018 336.104 109.127 336.186C109.236 336.268 109.369 336.342 109.525 336.408C109.682 336.475 109.859 336.547 110.059 336.625C110.324 336.727 110.562 336.832 110.773 336.941C110.984 337.047 111.164 337.168 111.312 337.305C111.461 337.438 111.574 337.592 111.652 337.768C111.734 337.943 111.775 338.152 111.775 338.395C111.775 338.691 111.709 338.949 111.576 339.168C111.447 339.387 111.273 339.568 111.055 339.713C110.836 339.857 110.584 339.965 110.299 340.035C110.014 340.105 109.715 340.141 109.402 340.141C108.785 340.141 108.25 340.021 107.797 339.783Z" fill="#6B6363"/>
<path d="M65.2709 345.065L297.051 345.852" stroke="#C4C4C4"/>
<defs>
<filter id="filter0_d" x="-171" y="0.848755" width="735.863" height="701.839" filterUnits="userSpaceOnUse" color-interpolation-filters="sRGB">
<feFlood flood-opacity="0" result="BackgroundImageFix"/>
<feColorMatrix in="SourceAlpha" type="matrix" values="0 0 0 0 0 0 0 0 0 0 0 0 0 0 0 0 0 0 127 0"/>
<feOffset dx="15" dy="40"/>
<feGaussianBlur stdDeviation="125"/>
<feColorMatrix type="matrix" values="0 0 0 0 0.4 0 0 0 0 0.356667 0 0 0 0 0.356667 0 0 0 0.25 0"/>
<feBlend mode="normal" in2="BackgroundImageFix" result="effect1_dropShadow"/>
<feBlend mode="normal" in="SourceGraphic" in2="effect1_dropShadow" result="shape"/>
</filter>
<linearGradient id="paint0_linear" x1="181.931" y1="210.849" x2="182.108" y2="412.687" gradientUnits="userSpaceOnUse">
<stop offset="0.0112169" stop-color="#2FAF83"/>
<stop offset="0.0113615" stop-color="#FEFFFF"/>
<stop offset="0.997038" stop-color="white"/>
</linearGradient>
</defs>
</svg>
