<svg width="22" height="24" viewBox="0 0 22 24" fill="none" xmlns="http://www.w3.org/2000/svg">
<circle cx="11" cy="12.9995" r="11" fill="#42BA97"/>
<path d="M10.1372 15.0172C10.0864 14.8831 10.0398 14.7099 9.99729 14.4975C9.95461 14.2799 9.93023 14.0643 9.92414 13.8509C9.91463 13.5177 9.97117 13.2165 10.0938 12.9472C10.2214 12.6727 10.3808 12.4154 10.5719 12.1755C10.7631 11.9356 10.9728 11.7055 11.201 11.4854C11.429 11.26 11.6388 11.0352 11.8304 10.8109C12.0219 10.5814 12.1793 10.3451 12.3026 10.1019C12.431 9.8533 12.491 9.58325 12.4827 9.2917C12.4756 9.0418 12.4198 8.82195 12.3154 8.63214C12.2162 8.44218 12.0814 8.2845 11.9111 8.1591C11.7408 8.0337 11.5454 7.94288 11.325 7.88664C11.1044 7.8252 10.8717 7.79796 10.627 7.80494C9.74719 7.83004 8.99435 8.19801 8.36853 8.90885L8.32933 7.53441C9.11162 7.01189 9.92968 6.73846 10.7835 6.7141C11.1792 6.70282 11.5529 6.74426 11.9047 6.83843C12.2565 6.93261 12.5655 7.08011 12.8317 7.28093C13.1031 7.4764 13.3186 7.72556 13.4783 8.02842C13.6381 8.33128 13.7237 8.68576 13.7353 9.09184C13.7463 9.4771 13.6884 9.82264 13.5617 10.1285C13.4349 10.4343 13.2711 10.7177 13.0701 10.9788C12.8742 11.2345 12.6596 11.475 12.4263 11.7005C12.1931 11.926 11.9755 12.1511 11.7735 12.3757C11.5765 12.5949 11.4137 12.8236 11.285 13.0618C11.1563 13.2999 11.096 13.5595 11.104 13.8407C11.1108 14.0802 11.1457 14.298 11.2086 14.4942C11.2714 14.6852 11.3333 14.8476 11.3945 14.9813L10.1372 15.0172ZM10.9327 18.2458C10.7036 18.2523 10.4982 18.1748 10.3164 18.0133C10.1399 17.8516 10.0482 17.651 10.0413 17.4115C10.0344 17.1668 10.1145 16.9613 10.2817 16.795C10.4486 16.6183 10.6492 16.5266 10.8834 16.5199C11.1177 16.5132 11.3232 16.5934 11.4999 16.7603C11.6763 16.9168 11.768 17.1173 11.775 17.362C11.7818 17.6015 11.7017 17.807 11.5347 17.9785C11.3624 18.1502 11.1617 18.2393 10.9327 18.2458Z" fill="white"/>
</svg>
