<svg width="37" height="37" viewBox="0 0 37 37" fill="none" xmlns="http://www.w3.org/2000/svg">
<path d="M18.1493 3.62984C12.1419 3.62984 7.25977 8.51196 7.25977 14.5193C7.25977 18.1855 9.38322 21.2527 11.8515 23.3943C12.6319 24.0658 13.9931 25.1366 15.2091 26.7156C16.5521 28.476 17.7681 30.3636 18.1493 31.634C18.5304 30.3636 19.7464 28.476 21.0894 26.7156C22.3054 25.1366 23.6666 24.0658 24.447 23.3943C26.9153 21.2527 29.0388 18.1855 29.0388 14.5193C29.0388 8.51196 24.1566 3.62984 18.1493 3.62984ZM18.1493 8.27602C18.9692 8.27602 19.781 8.43751 20.5385 8.75127C21.296 9.06502 21.9842 9.5249 22.564 10.1046C23.1437 10.6844 23.6036 11.3727 23.9173 12.1301C24.2311 12.8876 24.3926 13.6995 24.3926 14.5193C24.3926 15.3392 24.2311 16.1511 23.9173 16.9086C23.6036 17.666 23.1437 18.3543 22.564 18.934C21.9842 19.5138 21.296 19.9736 20.5385 20.2874C19.781 20.6012 18.9692 20.7626 18.1493 20.7626C16.4934 20.7626 14.9054 20.1049 13.7346 18.934C12.5637 17.7632 11.906 16.1752 11.906 14.5193C11.906 12.8635 12.5637 11.2755 13.7346 10.1046C14.9054 8.9338 16.4934 8.27602 18.1493 8.27602Z" fill="#6C63FF"/>
</svg>
