<svg width="41" height="25" viewBox="0 0 41 25" fill="none" xmlns="http://www.w3.org/2000/svg">
<path d="M10.1 21.51C10.31 21.51 10.52 21.48 10.76 21.39C11.39 21.15 12.11 20.58 12.29 19.98L12.32 19.77C12.32 19.23 11.81 18.57 10.46 17.07C9.2 15.66 7.19 13.44 5.54 12.09C7.16 10.74 9.14 8.58 10.4 7.17C11.75 5.67 12.23 5.04 12.23 4.5L12.2 4.26C12.05 3.66 11.3 3.09 10.7 2.85C10.46 2.76 10.25 2.73 10.04 2.73C9.71 2.73 9.41 2.82 9.17 2.94C8.75 3.09 8.39 3.27 7.4 4.17C6.44 5.07 4.82 6.69 3.47 8.16C2.09 9.6 0.98 10.86 0.62 11.61C0.53 11.79 0.47 11.97 0.47 12.09C0.47 12.24 0.53 12.36 0.62 12.48C0.62 12.54 0.65 12.57 0.68 12.63C1.04 13.38 2.18 14.64 3.53 16.08C4.91 17.52 6.5 19.14 7.49 20.07C8.45 20.97 8.81 21.15 9.23 21.3C9.5 21.42 9.77 21.51 10.1 21.51ZM30.5661 21.51C30.8961 21.51 31.1961 21.42 31.4661 21.3C31.8861 21.15 32.2461 20.97 33.2061 20.07C34.1961 19.14 35.7861 17.52 37.1661 16.08C38.5161 14.64 39.6561 13.38 40.0161 12.63C40.0461 12.57 40.0761 12.54 40.0761 12.48C40.1661 12.36 40.2261 12.24 40.2261 12.09C40.2261 11.97 40.1661 11.79 40.0761 11.61C39.7161 10.86 38.6061 9.6 37.2261 8.16C35.8761 6.69 34.2561 5.07 33.2961 4.17C32.3061 3.27 31.9461 3.09 31.5261 2.94C31.2861 2.82 30.9861 2.73 30.6561 2.73C30.4461 2.73 30.2361 2.76 29.9961 2.85C29.3961 3.09 28.6461 3.66 28.4961 4.26L28.4661 4.5C28.4661 5.04 28.9461 5.67 30.2961 7.17C31.5561 8.58 33.5361 10.74 35.1561 12.09C33.5061 13.44 31.4961 15.66 30.2361 17.07C28.8861 18.57 28.3761 19.23 28.3761 19.77L28.4061 19.98C28.5861 20.58 29.3061 21.15 29.9361 21.39C30.1761 21.48 30.3861 21.51 30.5661 21.51Z" fill="#6C63FF"/>
<path d="M15.4435 24.51C15.1135 24.51 14.8435 24.39 14.6035 24.27C14.0635 24.03 13.6735 23.88 13.6735 23.13C13.6735 22.89 13.7035 22.62 13.7935 22.26C14.0935 20.7 15.1735 17.79 16.4635 14.4C17.7535 11.01 19.2835 7.17 20.2135 4.98C21.1435 2.79 21.5035 2.22 21.9235 1.68C22.3435 1.14 22.7935 0.629999 23.4535 0.629999H23.5135C24.1735 0.659998 24.9835 1.23 25.1935 2.19L25.2535 2.7C25.2535 3.66 24.7735 5.13 23.5735 8.43C22.1635 12.36 19.7035 18.93 17.9935 21.99C16.8535 24.03 16.0435 24.51 15.4435 24.51Z" fill="#ADACBE"/>
</svg>
