<svg width="37" height="37" viewBox="0 0 37 37" fill="none" xmlns="http://www.w3.org/2000/svg">
<path d="M23.0606 24.3652L25.6015 21.8244C25.9437 21.4864 26.3767 21.255 26.8479 21.1584C27.3191 21.0617 27.8082 21.1039 28.2558 21.2799L31.3525 22.5163C31.8049 22.6999 32.1928 23.0133 32.4673 23.4171C32.7419 23.8208 32.8907 24.2967 32.8952 24.7849V30.4566C32.8926 30.7887 32.8228 31.1168 32.69 31.4212C32.5572 31.7256 32.3642 32 32.1225 32.2279C31.8809 32.4557 31.5957 32.6323 31.284 32.747C30.9723 32.8617 30.6406 32.9122 30.3089 32.8953C8.60934 31.5455 4.23086 13.1695 3.4028 6.13667C3.36436 5.79131 3.39948 5.44173 3.50585 5.11092C3.61222 4.7801 3.78743 4.47556 4.01995 4.21733C4.25247 3.95909 4.53703 3.75301 4.85491 3.61265C5.1728 3.47229 5.5168 3.40082 5.86428 3.40295H11.3431C11.832 3.4044 12.3093 3.55208 12.7135 3.827C13.1178 4.10191 13.4306 4.4915 13.6117 4.94563L14.8481 8.04234C15.0299 8.4882 15.0763 8.97775 14.9815 9.44982C14.8866 9.92189 14.6548 10.3556 14.315 10.6967L11.7741 13.2375C11.7741 13.2375 13.2374 23.1402 23.0606 24.3652Z" fill="#6C63FF"/>
</svg>
