<svg width="341" height="201" viewBox="0 0 341 201" fill="none" xmlns="http://www.w3.org/2000/svg">
<g clip-path="url(#clip0)">
<path d="M196.34 75.5702C202.565 75.5702 207.612 70.6527 207.612 64.5867C207.612 58.5207 202.565 53.6033 196.34 53.6033C190.114 53.6033 185.067 58.5207 185.067 64.5867C185.067 70.6527 190.114 75.5702 196.34 75.5702Z" fill="#2F2E41"/>
<path d="M199.48 53.9055C201.431 53.9058 203.348 54.3993 205.045 55.3378C206.741 56.2763 208.159 57.6276 209.159 59.2597C210.159 60.8919 210.707 62.7489 210.75 64.6493C210.793 66.5496 210.329 68.4283 209.403 70.1017C210.381 68.9102 211.092 67.5335 211.494 66.0592C211.895 64.585 211.976 63.0454 211.733 61.5388C211.489 60.0321 210.927 58.5914 210.08 57.3084C209.234 56.0254 208.122 54.9283 206.817 54.0869C205.511 53.2455 204.04 52.6784 202.497 52.4217C200.954 52.165 199.373 52.2242 197.855 52.5958C196.337 52.9673 194.915 53.6428 193.679 54.5795C192.444 55.5161 191.422 56.6932 190.68 58.0358C191.733 56.7468 193.072 55.706 194.595 54.9909C196.119 54.2758 197.789 53.9048 199.48 53.9055Z" fill="#2F2E41"/>
<path d="M175.275 64.5644C193.563 64.5644 208.388 50.1193 208.388 32.3005C208.388 14.4816 193.563 0.0365601 175.275 0.0365601C156.988 0.0365601 142.163 14.4816 142.163 32.3005C142.163 50.1193 156.988 64.5644 175.275 64.5644Z" fill="#2F2E41"/>
<path d="M149.287 12.2815C154.993 6.02923 162.968 2.18148 171.53 1.5503C180.092 0.919126 188.571 3.5539 195.177 8.89854C194.907 8.64774 194.639 8.39491 194.357 8.1512C187.794 2.46828 179.182 -0.441717 170.416 0.0612141C161.651 0.564146 153.449 4.43882 147.615 10.8331C141.781 17.2273 138.793 25.6176 139.307 34.1585C139.821 42.6995 143.796 50.6918 150.357 56.3776C150.638 56.6213 150.927 56.851 151.215 57.0836C144.993 51.3172 141.315 43.4213 140.955 35.0622C140.596 26.7031 143.583 18.5349 149.287 12.2815Z" fill="#2F2E41"/>
<path d="M174.995 64.29C186.773 64.29 196.322 54.9864 196.322 43.5099C196.322 32.0333 186.773 22.7297 174.995 22.7297C163.216 22.7297 153.668 32.0333 153.668 43.5099C153.668 54.9864 163.216 64.29 174.995 64.29Z" fill="#FFB8B8"/>
<path d="M159.842 50.072C159.842 50.072 162.648 75.2269 158.158 77.9612C153.668 80.6954 183.975 84.5233 183.975 84.5233C183.975 84.5233 179.485 57.181 190.709 50.072H159.842Z" fill="#FFB8B8"/>
<path d="M186.781 73.5864C186.781 73.5864 195.138 69.7839 183.102 71.1383C171.066 72.4927 160.682 67.2977 160.682 67.2977C160.682 67.2977 157.035 63.7432 156.474 67.5711C155.913 71.399 158.158 78.508 145.811 79.6017C133.464 80.6954 122.239 77.4143 117.749 85.617C113.259 93.8197 115.504 129.365 115.504 129.365C115.504 129.365 123.923 158.894 130.657 163.269C137.392 167.644 196.322 161.629 196.322 161.629L213.159 132.099V97.6476C213.159 97.6476 210.914 85.617 195.199 88.8981C195.199 88.8981 185.097 86.7107 185.658 81.7891C186.22 76.8675 186.781 73.5864 186.781 73.5864Z" fill="#D0CDE1"/>
<path d="M132.885 184.167C133.232 182.694 133.464 181.861 133.464 181.861L133.284 180.663L131.435 168.429L130.658 163.269C137.391 160.534 139.076 147.956 139.076 147.956L139.33 147.808L140.479 147.139V147.136L144.604 144.724L144.688 144.676L146.354 145.756L149.74 147.956C161.583 156.442 173.644 156.291 181.086 154.955C185.636 154.137 188.464 152.878 188.464 152.878L196.628 150.226L196.882 150.144L197.133 150.18L201.921 150.887L202.008 150.902L202.404 150.959L201.295 158.428L199.688 169.283C203.934 171.474 207.71 175.59 211.011 180.663C211.742 181.786 212.45 182.954 213.136 184.167C214.028 185.736 214.88 187.369 215.691 189.04C215.79 189.24 215.886 189.442 215.982 189.644C216.295 190.299 216.605 190.96 216.905 191.624H131.398C131.51 190.957 131.621 190.32 131.729 189.707C131.735 189.687 131.739 189.665 131.742 189.644C131.782 189.439 131.819 189.24 131.853 189.04C132.231 187.049 132.597 185.386 132.885 184.167Z" fill="#2F2E41"/>
<path d="M129.535 79.0549C129.535 79.0549 135.708 89.9918 133.464 103.663C131.219 117.334 140.198 151.239 140.198 151.239L146.933 149.598C146.933 149.598 142.443 121.162 143.566 114.6C144.688 108.038 144.688 82.336 139.076 79.0549C133.464 75.7739 129.535 79.0549 129.535 79.0549Z" fill="#2F2E41"/>
<path d="M194.804 90.4205L197.164 150.965L201.653 153.699C201.653 153.699 208.108 87.2576 204.74 87.2576H197.888C197.47 87.2576 197.055 87.3406 196.67 87.5016C196.285 87.6626 195.938 87.8982 195.65 88.194C195.361 88.4899 195.137 88.8399 194.992 89.2226C194.847 89.6054 194.783 90.013 194.804 90.4205Z" fill="#2F2E41"/>
<path d="M143.285 149.872C144.835 149.872 146.091 148.647 146.091 147.137C146.091 145.627 144.835 144.403 143.285 144.403C141.735 144.403 140.479 145.627 140.479 147.137C140.479 148.647 141.735 149.872 143.285 149.872Z" fill="#6C63FF"/>
<path d="M199.408 152.606C200.958 152.606 202.215 151.382 202.215 149.871C202.215 148.361 200.958 147.137 199.408 147.137C197.859 147.137 196.602 148.361 196.602 149.871C196.602 151.382 197.859 152.606 199.408 152.606Z" fill="#6C63FF"/>
<path d="M156.755 17.5345V38.3147H161.694L167.979 31.7526L167.138 38.3147H188.969L187.622 31.7526L190.316 38.3147H193.796V17.5345H156.755Z" fill="#2F2E41"/>
<path d="M153.387 42.1427C154.317 42.1427 155.071 40.7962 155.071 39.1351C155.071 37.474 154.317 36.1274 153.387 36.1274C152.457 36.1274 151.704 37.474 151.704 39.1351C151.704 40.7962 152.457 42.1427 153.387 42.1427Z" fill="#FFB8B8"/>
<path d="M196.602 42.1427C197.532 42.1427 198.286 40.7962 198.286 39.1351C198.286 37.474 197.532 36.1274 196.602 36.1274C195.672 36.1274 194.919 37.474 194.919 39.1351C194.919 40.7962 195.672 42.1427 196.602 42.1427Z" fill="#FFB8B8"/>
<path d="M208.108 149.598C208.108 149.598 182.571 144.95 180.888 153.152C179.204 161.355 209.23 157.801 209.23 157.801L208.108 149.598Z" fill="#FFB8B8"/>
<path d="M207.546 93.2728C207.546 93.2728 268.721 140.848 257.496 152.332C246.271 163.816 203.618 160.535 203.618 160.535L206.424 146.864L231.118 144.13L218.771 132.099L207.546 133.193V93.2728Z" fill="#D0CDE1"/>
<path d="M117.188 172.566L125.045 178.581C125.045 178.581 130.657 195.533 139.076 190.611C147.494 185.69 131.219 168.191 131.219 168.191L121.678 164.91L117.188 172.566Z" fill="#FFB8B8"/>
<path d="M125.045 84.5233L117.209 86.821C117.209 86.821 62.7482 126.084 60.5032 137.021C58.2583 147.957 71.1667 153.973 71.1667 153.973L119.994 176.393L125.045 163.269L102.035 151.785C102.035 151.785 103.718 148.504 96.9834 147.957C90.2486 147.411 89.1261 140.302 89.1261 140.302C89.1261 140.302 102.596 120.068 109.892 124.443C117.188 128.818 119.433 132.099 119.433 132.099L125.045 84.5233Z" fill="#D0CDE1"/>
<path d="M236.811 186.041V187.873C236.812 188.375 236.716 188.874 236.529 189.342C236.446 189.551 236.345 189.753 236.228 189.946C235.859 190.549 235.336 191.049 234.708 191.396C234.081 191.743 233.372 191.926 232.651 191.925H94.3464C93.6252 191.926 92.9163 191.743 92.2892 191.396C91.6621 191.049 91.1383 190.549 90.7692 189.946C90.6524 189.753 90.5519 189.551 90.4687 189.342C90.2814 188.874 90.1859 188.375 90.1869 187.873V186.041C90.1868 185.508 90.2942 184.981 90.5032 184.49C90.7122 183.998 91.0186 183.551 91.4049 183.175C91.7911 182.798 92.2497 182.5 92.7545 182.296C93.2592 182.092 93.8001 181.988 94.3464 181.988H102.319V181.134C102.319 181.112 102.323 181.09 102.332 181.069C102.34 181.049 102.353 181.03 102.369 181.014C102.385 180.999 102.405 180.986 102.426 180.978C102.447 180.969 102.469 180.965 102.492 180.965H106.652C106.674 180.965 106.697 180.969 106.718 180.978C106.739 180.986 106.758 180.999 106.774 181.014C106.79 181.03 106.803 181.049 106.812 181.069C106.821 181.09 106.825 181.112 106.825 181.134V181.988H109.424V181.134C109.423 181.112 109.428 181.09 109.437 181.069C109.445 181.049 109.458 181.03 109.474 181.014C109.49 180.999 109.509 180.986 109.531 180.978C109.552 180.969 109.574 180.965 109.597 180.965H113.756C113.779 180.965 113.802 180.969 113.823 180.978C113.844 180.986 113.863 180.999 113.879 181.014C113.895 181.03 113.908 181.049 113.917 181.069C113.925 181.09 113.93 181.112 113.93 181.134V181.988H116.532V181.134C116.532 181.112 116.536 181.09 116.545 181.069C116.553 181.049 116.566 181.03 116.582 181.014C116.598 180.999 116.618 180.986 116.639 180.978C116.66 180.969 116.682 180.965 116.705 180.965H120.865C120.887 180.965 120.91 180.969 120.931 180.978C120.952 180.986 120.971 180.999 120.987 181.014C121.003 181.03 121.016 181.049 121.025 181.069C121.034 181.09 121.038 181.112 121.038 181.134V181.988H123.636V181.134C123.636 181.112 123.641 181.09 123.65 181.069C123.658 181.049 123.671 181.03 123.687 181.014C123.703 180.999 123.722 180.986 123.744 180.978C123.765 180.969 123.787 180.965 123.81 180.965H127.969C127.992 180.965 128.015 180.969 128.036 180.978C128.057 180.986 128.076 180.999 128.092 181.014C128.108 181.03 128.121 181.049 128.13 181.069C128.138 181.09 128.143 181.112 128.143 181.134V181.988H130.741V181.134C130.741 181.112 130.746 181.09 130.755 181.069C130.763 181.049 130.776 181.03 130.792 181.014C130.808 180.999 130.827 180.986 130.848 180.978C130.87 180.969 130.892 180.965 130.915 180.965H135.074C135.097 180.965 135.12 180.969 135.141 180.978C135.162 180.986 135.181 180.999 135.197 181.014C135.213 181.03 135.226 181.049 135.235 181.069C135.243 181.09 135.248 181.112 135.248 181.134V181.988H137.849V181.134C137.849 181.112 137.854 181.09 137.863 181.069C137.871 181.049 137.884 181.03 137.9 181.014C137.916 180.999 137.935 180.986 137.956 180.978C137.978 180.969 138 180.965 138.023 180.965H142.182C142.205 180.965 142.228 180.969 142.249 180.978C142.27 180.986 142.289 180.999 142.305 181.014C142.321 181.03 142.334 181.049 142.343 181.069C142.351 181.09 142.356 181.112 142.356 181.134V181.988H144.954V181.134C144.954 181.112 144.959 181.09 144.968 181.069C144.976 181.049 144.989 181.03 145.005 181.014C145.021 180.999 145.04 180.986 145.061 180.978C145.082 180.969 145.105 180.965 145.128 180.965H177.71C177.733 180.965 177.756 180.969 177.777 180.978C177.798 180.986 177.817 180.999 177.833 181.014C177.849 181.03 177.862 181.049 177.871 181.069C177.879 181.09 177.884 181.112 177.884 181.134V181.988H180.485V181.134C180.485 181.112 180.49 181.09 180.498 181.069C180.507 181.049 180.52 181.03 180.536 181.014C180.552 180.999 180.571 180.986 180.592 180.978C180.613 180.969 180.636 180.965 180.659 180.965H184.818C184.864 180.965 184.908 180.983 184.94 181.015C184.973 181.046 184.991 181.089 184.992 181.134V181.988H187.59V181.134C187.59 181.112 187.595 181.09 187.603 181.069C187.612 181.049 187.625 181.03 187.641 181.014C187.657 180.999 187.676 180.986 187.697 180.978C187.718 180.969 187.741 180.965 187.764 180.965H191.923C191.946 180.965 191.969 180.969 191.99 180.978C192.011 180.986 192.03 180.999 192.046 181.014C192.062 181.03 192.075 181.049 192.084 181.069C192.092 181.09 192.097 181.112 192.097 181.134V181.988H194.695V181.134C194.695 181.112 194.7 181.09 194.708 181.069C194.717 181.049 194.73 181.03 194.746 181.014C194.762 180.999 194.781 180.986 194.802 180.978C194.823 180.969 194.846 180.965 194.869 180.965H199.028C199.051 180.965 199.074 180.969 199.095 180.978C199.116 180.986 199.135 180.999 199.151 181.014C199.167 181.03 199.18 181.049 199.188 181.069C199.197 181.09 199.202 181.112 199.202 181.134V181.988H201.803V181.134C201.803 181.112 201.808 181.09 201.816 181.069C201.825 181.049 201.838 181.03 201.854 181.014C201.87 180.999 201.889 180.986 201.91 180.978C201.931 180.969 201.954 180.965 201.977 180.965H206.136C206.182 180.965 206.225 180.983 206.257 181.015C206.289 181.047 206.307 181.089 206.307 181.134V181.988H208.908V181.134C208.908 181.112 208.913 181.09 208.921 181.069C208.93 181.049 208.943 181.03 208.959 181.014C208.975 180.999 208.994 180.986 209.015 180.978C209.036 180.969 209.059 180.965 209.082 180.965H213.241C213.264 180.965 213.286 180.969 213.308 180.978C213.329 180.986 213.348 180.999 213.364 181.014C213.38 181.03 213.393 181.049 213.401 181.069C213.41 181.09 213.415 181.112 213.415 181.134V181.988H216.013V181.134C216.013 181.112 216.018 181.09 216.026 181.069C216.035 181.049 216.048 181.03 216.064 181.014C216.08 180.999 216.099 180.986 216.12 180.978C216.141 180.969 216.164 180.965 216.187 180.965H220.346C220.369 180.965 220.391 180.969 220.412 180.978C220.434 180.986 220.453 180.999 220.469 181.014C220.485 181.03 220.498 181.049 220.506 181.069C220.515 181.09 220.52 181.112 220.52 181.134V181.988H232.651C233.197 181.988 233.738 182.092 234.243 182.296C234.748 182.5 235.206 182.798 235.593 183.175C235.979 183.551 236.285 183.998 236.494 184.49C236.703 184.981 236.811 185.508 236.811 186.041Z" fill="#3F3D56"/>
<path d="M277.027 189.341H50.0035V189.944H277.027V189.341Z" fill="#3F3D56"/>
<path d="M225.674 108.896H174.124V107.861H150.749V108.896H98.9857C98.0608 108.896 97.1739 109.254 96.52 109.891C95.866 110.528 95.4987 111.392 95.4987 112.293V181.072C95.4987 181.973 95.866 182.838 96.52 183.475C97.1739 184.112 98.0608 184.47 98.9857 184.47H225.674C226.599 184.47 227.486 184.112 228.14 183.475C228.794 182.838 229.161 181.973 229.161 181.072V112.293C229.161 111.847 229.071 111.405 228.896 110.993C228.72 110.581 228.463 110.206 228.14 109.891C227.816 109.576 227.431 109.325 227.008 109.154C226.585 108.984 226.132 108.896 225.674 108.896Z" fill="#3F3D56"/>
<path d="M162.431 140.453C166.708 140.453 170.174 137.075 170.174 132.908C170.174 128.742 166.708 125.364 162.431 125.364C158.155 125.364 154.688 128.742 154.688 132.908C154.688 137.075 158.155 140.453 162.431 140.453Z" stroke="#D0CDE1" stroke-width="2" stroke-miterlimit="10"/>
<path d="M159.954 143.169C164.23 143.169 167.696 139.791 167.696 135.624C167.696 131.457 164.23 128.08 159.954 128.08C155.677 128.08 152.211 131.457 152.211 135.624C152.211 139.791 155.677 143.169 159.954 143.169Z" fill="#D0CDE1"/>
<path d="M66.5957 200.246H8.05896V200.928H66.5957V200.246Z" fill="#3F3D56"/>
<path d="M322.113 200.246H263.577V200.928H322.113V200.246Z" fill="#3F3D56"/>
<path d="M42.1648 178.266C35.998 188.076 38.1197 200.278 38.1197 200.278C38.1197 200.278 50.2397 196.575 56.4065 186.766C62.5734 176.956 60.4517 164.754 60.4517 164.754C60.4517 164.754 48.3316 168.456 42.1648 178.266Z" fill="#3F3D56"/>
<path d="M37.868 200.359L37.5174 200.305C37.3906 200.285 24.77 198.248 17.2116 189.436C9.65315 180.625 9.83504 168.161 9.83752 168.036L9.84504 167.69L10.1957 167.744C10.3225 167.764 22.9431 169.802 30.5015 178.613C38.0599 187.425 37.878 199.888 37.8756 200.013L37.868 200.359Z" fill="#6C63FF"/>
<path d="M38.366 200.669L38.0272 200.566C37.9047 200.528 25.725 196.716 19.5687 186.923C13.4125 177.13 15.461 164.826 15.4822 164.703L15.5415 164.362L15.8802 164.466C16.0027 164.503 28.1825 168.315 34.3387 178.108C40.495 187.901 38.4464 200.205 38.4253 200.328L38.366 200.669ZM16.0412 165.157C15.7608 167.222 14.6432 177.933 20.0968 186.608C25.5508 195.283 35.8513 199.18 37.8663 199.875C38.1467 197.81 39.2643 187.099 33.8106 178.424C28.3567 169.748 18.0561 165.852 16.0411 165.157H16.0412Z" fill="#3F3D56"/>
<path d="M38.5045 168.491C42.2676 168.491 45.3183 165.519 45.3183 161.852C45.3183 158.186 42.2676 155.213 38.5045 155.213C34.7413 155.213 31.6907 158.186 31.6907 161.852C31.6907 165.519 34.7413 168.491 38.5045 168.491Z" fill="#3F3D56"/>
<path d="M123.822 77.9356L84.7334 39.5484H66.2798V38.9449H84.992L85.0831 39.0345L124.262 77.5113L123.822 77.9356Z" fill="#3F3D56"/>
<path d="M215.629 76.7285L254.718 38.3413H273.172V37.7377H254.459L254.368 37.8274L215.189 76.3041L215.629 76.7285Z" fill="#3F3D56"/>
<path d="M45.2189 20.6235H0V29.338H45.2189V20.6235Z" fill="#D0CDE1"/>
<path d="M45.2189 33.9957H0V42.7102H45.2189V33.9957Z" fill="#D0CDE1"/>
<path d="M45.2189 47.3679H0V56.0824H45.2189V47.3679Z" fill="#D0CDE1"/>
<path opacity="0.15" d="M18.7066 20.6235H0V29.338H18.7066V20.6235Z" fill="black"/>
<path opacity="0.15" d="M6.0561 33.9957H0V42.7102H6.0561V33.9957Z" fill="black"/>
<path opacity="0.15" d="M30.1459 47.3679H0V56.0824H30.1459V47.3679Z" fill="black"/>
<path d="M341 22.5812H295.712V26.5133H341V22.5812Z" fill="#D0CDE1"/>
<path d="M287.715 22.0722H278.747V30.8103H287.715V22.0722Z" fill="#6C63FF"/>
<path d="M287.715 35.1794H278.747V43.9175H287.715V35.1794Z" fill="#6C63FF"/>
<path d="M287.715 48.2864H278.747V57.0245H287.715V48.2864Z" fill="#6C63FF"/>
<path d="M290.192 28.9997H280.605V19.658H290.192V28.9997ZM281.224 28.3961H289.573V20.2615H281.224V28.3961Z" fill="#3F3D56"/>
<path d="M341 35.6883H295.712V39.6204H341V35.6883Z" fill="#D0CDE1"/>
<path d="M290.192 42.1067H280.605V32.7651H290.192V42.1067ZM281.224 41.5032H289.573V33.3687H281.224V41.5032Z" fill="#3F3D56"/>
<path d="M341 48.7954H295.712V52.7275H341V48.7954Z" fill="#D0CDE1"/>
<path d="M290.192 55.2138H280.605V45.8722H290.192V55.2138ZM281.224 54.6102H289.573V46.4757H281.224V54.6102Z" fill="#3F3D56"/>
<path d="M58.5368 29.8914C61.2736 29.8914 63.4923 27.7296 63.4923 25.063C63.4923 22.3963 61.2736 20.2345 58.5368 20.2345C55.7999 20.2345 53.5813 22.3963 53.5813 25.063C53.5813 27.7296 55.7999 29.8914 58.5368 29.8914Z" fill="#6C63FF"/>
<path d="M58.5368 44.3768C61.2736 44.3768 63.4923 42.2151 63.4923 39.5484C63.4923 36.8817 61.2736 34.7199 58.5368 34.7199C55.7999 34.7199 53.5813 36.8817 53.5813 39.5484C53.5813 42.2151 55.7999 44.3768 58.5368 44.3768Z" fill="#6C63FF"/>
<path d="M58.5368 57.3533C61.2736 57.3533 63.4923 55.1915 63.4923 52.5249C63.4923 49.8582 61.2736 47.6964 58.5368 47.6964C55.7999 47.6964 53.5813 49.8582 53.5813 52.5249C53.5813 55.1915 55.7999 57.3533 58.5368 57.3533Z" fill="#6C63FF"/>
<path d="M56.059 28.9861C55.0177 28.9861 53.9997 28.6852 53.1338 28.1215C52.268 27.5578 51.5931 26.7566 51.1946 25.8191C50.7961 24.8817 50.6918 23.8502 50.895 22.855C51.0982 21.8599 51.5996 20.9457 52.336 20.2283C53.0723 19.5108 54.0105 19.0222 55.0318 18.8242C56.0532 18.6263 57.1119 18.7279 58.0739 19.1162C59.036 19.5045 59.8584 20.162 60.4369 21.0057C61.0155 21.8493 61.3243 22.8412 61.3243 23.8559C61.3227 25.216 60.7675 26.5201 59.7804 27.4818C58.7933 28.4436 57.455 28.9846 56.059 28.9861ZM56.059 19.3292C55.1402 19.3292 54.242 19.5947 53.478 20.0921C52.714 20.5895 52.1185 21.2965 51.7669 22.1236C51.4153 22.9507 51.3233 23.8609 51.5025 24.739C51.6818 25.6171 52.1243 26.4237 52.774 27.0567C53.4237 27.6898 54.2515 28.1209 55.1527 28.2956C56.0539 28.4703 56.988 28.3806 57.8369 28.038C58.6858 27.6954 59.4114 27.1152 59.9219 26.3708C60.4323 25.6264 60.7048 24.7512 60.7048 23.8559C60.7034 22.6558 60.2135 21.5052 59.3426 20.6565C58.4716 19.8079 57.2907 19.3306 56.059 19.3292Z" fill="#3F3D56"/>
<path d="M56.059 43.4715C55.0177 43.4715 53.9997 43.1707 53.1338 42.6069C52.268 42.0432 51.5931 41.242 51.1946 40.3046C50.7961 39.3671 50.6918 38.3356 50.895 37.3404C51.0982 36.3453 51.5996 35.4312 52.336 34.7137C53.0723 33.9962 54.0105 33.5076 55.0318 33.3096C56.0532 33.1117 57.1119 33.2133 58.0739 33.6016C59.036 33.9899 59.8584 34.6474 60.4369 35.4911C61.0155 36.3348 61.3243 37.3266 61.3243 38.3413C61.3227 39.7015 60.7675 41.0055 59.7804 41.9672C58.7933 42.929 57.455 43.47 56.059 43.4715ZM56.059 33.8146C55.1402 33.8146 54.242 34.0801 53.478 34.5775C52.714 35.0749 52.1185 35.7819 51.7669 36.609C51.4153 37.4362 51.3233 38.3463 51.5025 39.2244C51.6818 40.1025 52.1243 40.9091 52.774 41.5421C53.4237 42.1752 54.2515 42.6063 55.1527 42.781C56.0539 42.9557 56.988 42.866 57.8369 42.5234C58.6858 42.1808 59.4114 41.6006 59.9219 40.8562C60.4323 40.1118 60.7048 39.2366 60.7048 38.3413C60.7034 37.1412 60.2135 35.9906 59.3426 35.142C58.4716 34.2933 57.2907 33.816 56.059 33.8146Z" fill="#3F3D56"/>
<path d="M56.059 56.448C55.0177 56.448 53.9997 56.1471 53.1338 55.5834C52.268 55.0197 51.5931 54.2184 51.1946 53.281C50.7961 52.3436 50.6918 51.312 50.895 50.3169C51.0982 49.3217 51.5996 48.4076 52.336 47.6901C53.0723 46.9726 54.0105 46.484 55.0318 46.2861C56.0532 46.0881 57.1119 46.1897 58.0739 46.578C59.036 46.9663 59.8584 47.6239 60.4369 48.4675C61.0155 49.3112 61.3243 50.3031 61.3243 51.3177C61.3227 52.6779 60.7675 53.9819 59.7804 54.9437C58.7933 55.9055 57.455 56.4465 56.059 56.448ZM56.059 46.7911C55.1402 46.7911 54.242 47.0565 53.478 47.5539C52.714 48.0513 52.1185 48.7583 51.7669 49.5854C51.4153 50.4126 51.3233 51.3228 51.5025 52.2008C51.6818 53.0789 52.1243 53.8855 52.774 54.5186C53.4237 55.1516 54.2515 55.5828 55.1527 55.7574C56.0539 55.9321 56.988 55.8425 57.8369 55.4998C58.6858 55.1572 59.4114 54.577 59.9219 53.8326C60.4323 53.0882 60.7048 52.213 60.7048 51.3177C60.7034 50.1176 60.2135 48.967 59.3426 48.1184C58.4716 47.2698 57.2907 46.7924 56.059 46.7911Z" fill="#3F3D56"/>
<path d="M306.312 179.875H305.692V175.349C305.692 175.109 305.79 174.879 305.965 174.709C306.139 174.539 306.375 174.444 306.621 174.443H308.17C308.252 174.443 308.331 174.412 308.389 174.355C308.447 174.298 308.48 174.222 308.48 174.142V171.124C308.48 171.044 308.447 170.967 308.389 170.911C308.331 170.854 308.252 170.822 308.17 170.822H306.621C306.375 170.822 306.139 170.726 305.965 170.557C305.79 170.387 305.692 170.157 305.692 169.917V168.408C305.692 168.328 305.659 168.251 305.601 168.195C305.543 168.138 305.465 168.106 305.382 168.106H302.595C302.349 168.106 302.112 168.01 301.938 167.841C301.764 167.671 301.666 167.441 301.666 167.201V166.899C301.666 166.819 301.633 166.742 301.575 166.686C301.517 166.629 301.438 166.597 301.356 166.597H290.206C290.124 166.597 290.045 166.629 289.987 166.686C289.929 166.742 289.896 166.819 289.896 166.899V167.201C289.896 167.441 289.798 167.671 289.624 167.841C289.45 168.01 289.214 168.106 288.967 168.106H286.18C286.098 168.106 286.019 168.138 285.961 168.195C285.903 168.251 285.87 168.328 285.87 168.408V169.917C285.87 170.157 285.772 170.387 285.598 170.557C285.423 170.726 285.187 170.822 284.941 170.822H283.392C283.31 170.822 283.231 170.854 283.173 170.911C283.115 170.967 283.083 171.044 283.083 171.124V174.142C283.083 174.222 283.115 174.298 283.173 174.355C283.231 174.412 283.31 174.443 283.392 174.443H285.251C285.497 174.444 285.733 174.539 285.907 174.709C286.082 174.879 286.18 175.109 286.18 175.349V179.875H285.56V175.349C285.56 175.269 285.528 175.192 285.47 175.135C285.412 175.079 285.333 175.047 285.251 175.047H283.392C283.146 175.047 282.91 174.951 282.736 174.782C282.561 174.612 282.463 174.382 282.463 174.142V171.124C282.463 170.884 282.561 170.654 282.736 170.484C282.91 170.314 283.146 170.219 283.392 170.219H284.941C285.023 170.219 285.102 170.187 285.16 170.13C285.218 170.074 285.251 169.997 285.251 169.917V168.408C285.251 168.168 285.349 167.938 285.523 167.768C285.697 167.598 285.933 167.503 286.18 167.503H288.967C289.049 167.502 289.128 167.471 289.186 167.414C289.244 167.358 289.277 167.281 289.277 167.201V166.899C289.277 166.659 289.375 166.429 289.549 166.259C289.724 166.089 289.96 165.994 290.206 165.994H301.356C301.602 165.994 301.839 166.089 302.013 166.259C302.187 166.429 302.285 166.659 302.285 166.899V167.201C302.285 167.281 302.318 167.358 302.376 167.414C302.434 167.471 302.513 167.502 302.595 167.503H305.382C305.629 167.503 305.865 167.598 306.039 167.768C306.213 167.938 306.311 168.168 306.312 168.408V169.917C306.312 169.997 306.344 170.074 306.402 170.13C306.46 170.187 306.539 170.219 306.621 170.219H308.17C308.416 170.219 308.652 170.314 308.827 170.484C309.001 170.654 309.099 170.884 309.099 171.124V174.142C309.099 174.382 309.001 174.612 308.827 174.782C308.652 174.951 308.416 175.047 308.17 175.047H306.621C306.539 175.047 306.46 175.079 306.402 175.135C306.344 175.192 306.312 175.269 306.312 175.349V179.875Z" fill="#3F3D56"/>
<path d="M305.382 201H286.49C286.243 201 286.007 200.904 285.833 200.734C285.659 200.565 285.561 200.335 285.56 200.095V187.118H286.18V200.095C286.18 200.175 286.213 200.251 286.271 200.308C286.329 200.365 286.407 200.396 286.49 200.396H305.382C305.464 200.396 305.543 200.365 305.601 200.308C305.659 200.251 305.692 200.175 305.692 200.095V187.118H306.312V200.095C306.311 200.335 306.213 200.565 306.039 200.734C305.865 200.904 305.629 201 305.382 201Z" fill="#3F3D56"/>
<path d="M309.409 181.988H286.18C285.838 181.988 285.56 182.258 285.56 182.591V188.627C285.56 188.96 285.838 189.231 286.18 189.231H309.409C309.751 189.231 310.028 188.96 310.028 188.627V182.591C310.028 182.258 309.751 181.988 309.409 181.988Z" fill="#6C63FF"/>
<path d="M307.396 187.42H284.167C283.92 187.42 283.684 187.324 283.51 187.154C283.336 186.985 283.238 186.755 283.237 186.515V180.479C283.238 180.239 283.336 180.009 283.51 179.839C283.684 179.669 283.92 179.574 284.167 179.574H307.396C307.642 179.574 307.878 179.669 308.052 179.839C308.226 180.009 308.324 180.239 308.325 180.479V186.515C308.324 186.755 308.226 186.985 308.052 187.154C307.878 187.324 307.642 187.42 307.396 187.42ZM284.167 180.177C284.085 180.177 284.006 180.209 283.948 180.266C283.89 180.322 283.857 180.399 283.857 180.479V186.515C283.857 186.595 283.89 186.671 283.948 186.728C284.006 186.785 284.085 186.816 284.167 186.816H307.396C307.478 186.816 307.556 186.785 307.614 186.728C307.673 186.671 307.705 186.595 307.705 186.515V180.479C307.705 180.399 307.673 180.322 307.614 180.266C307.556 180.209 307.478 180.177 307.396 180.177H284.167Z" fill="#3F3D56"/>
<path d="M295.162 163.881C294.338 158.477 294.121 153.002 294.513 147.552L295.162 138.532C291.587 145.462 292.395 154.584 295.162 163.881V163.881Z" fill="#D0CDE1"/>
<path d="M297.949 165.39C297.553 162.165 297.448 158.913 297.637 155.67L297.949 150.301C296.229 154.426 296.618 159.856 297.949 165.39Z" fill="#D0CDE1"/>
</g>
<defs>
<clipPath id="clip0">
<rect width="341" height="201" fill="white"/>
</clipPath>
</defs>
</svg>
