<svg width="305" height="180" viewBox="0 0 305 180" fill="none" xmlns="http://www.w3.org/2000/svg">
<g clip-path="url(#clip0)">
<path opacity="0.2" d="M44.4592 0.0204873C42.0923 -0.0470675 39.6667 0.020485 37.4466 0.701907C31.406 2.5582 28.5429 8.63225 29.4738 13.881C30.4047 19.1297 34.234 23.7028 38.2072 27.8824C42.1804 32.062 46.4855 36.1946 48.6644 41.1907C49.751 43.6844 50.259 46.4776 49.1548 48.9683C47.4516 52.8072 42.3155 54.9513 37.385 55.3978C32.4544 55.8442 27.5033 54.9748 22.5551 54.6841C20.479 54.5636 18.3441 54.5489 16.3883 55.1099C14.2416 55.7209 12.4532 56.9692 10.8088 58.2703C4.39229 63.3751 -0.743819 70.3391 0.0872377 77.6556C1.02695 85.9472 9.408 92.5001 18.5878 96.0158C21.6272 97.1907 24.8428 98.1247 27.518 99.7872C34.5658 104.172 36.1487 112.396 35.4468 119.654C34.745 126.912 32.3546 134.178 33.6848 141.372C35.2501 149.74 42.1775 157.3 51.5217 160.83C59.847 163.976 70.266 163.767 77.6575 159.329C81.2607 157.162 83.9858 154.151 86.3557 151.038C89.8745 146.44 92.7815 141.405 95.0039 136.058C96.0347 133.565 97.0037 130.883 99.4088 129.15C100.877 128.084 102.78 127.488 104.662 127.023C110.336 125.625 116.312 125.244 122.038 123.998C127.765 122.753 133.526 120.424 136.639 116.282C141.044 110.408 138.988 102.883 139.009 95.9747C139.044 80.2139 150.494 66.1067 154.72 50.7424C156.1 45.7228 156.614 40.1686 153.53 35.6894C151.437 32.6494 147.904 30.4554 144.192 28.7606C136.025 25.0334 126.743 23.3739 117.613 21.7584C104.924 19.5144 89.5154 19.2237 79.6808 11.963C70.2425 4.9931 57.3303 0.0204873 44.4592 0.0204873Z" fill="#6C63FF"/>
<path d="M167.68 179.755C243.095 179.755 304.231 163.38 304.231 143.181C304.231 122.982 243.095 106.607 167.68 106.607C92.2642 106.607 31.1279 122.982 31.1279 143.181C31.1279 163.38 92.2642 179.755 167.68 179.755Z" fill="#F5F5F5"/>
<path d="M281.085 54.8839C281.085 54.8839 270.563 65.4077 276.504 81.0246C282.445 96.6415 266.32 122.612 266.32 122.612C266.32 122.612 266.493 122.586 266.813 122.53C288.424 118.711 299.163 93.9922 287.146 75.6261C282.68 68.8002 279.012 60.7993 281.085 54.8839Z" fill="#6C63FF"/>
<path d="M281.085 54.8839C281.085 54.8839 275.144 67.7839 281.085 78.3078C287.026 88.8316 282.104 118.368 266.32 122.612" stroke="#535461" stroke-width="2" stroke-miterlimit="10"/>
<path d="M299.827 97.4522C299.827 97.4522 287.819 95.5401 286.726 106.302C285.634 117.064 263.639 118.556 263.639 118.556L264.05 118.829C282.21 130.751 299.583 126.424 296.94 110.605C295.98 104.707 296.059 98.7945 299.827 97.4522Z" fill="#6C63FF"/>
<path opacity="0.2" d="M299.827 97.4522C299.827 97.4522 287.819 95.5401 286.726 106.302C285.634 117.064 263.639 118.556 263.639 118.556L264.05 118.829C282.21 130.751 299.583 126.424 296.94 110.605C295.98 104.707 296.059 98.7945 299.827 97.4522Z" fill="#F5F5F5"/>
<path d="M299.827 97.4522C299.827 97.4522 290.506 99.5082 291.272 107.973C292.039 116.438 277.432 126.609 263.639 118.547" stroke="#535461" stroke-width="2" stroke-miterlimit="10"/>
<path d="M272.037 123.337H253.173C253.607 122.464 253.832 121.502 253.831 120.527V34.5969C253.831 32.9213 253.165 31.3143 251.98 30.1295C250.796 28.9446 249.189 28.279 247.514 28.279H101.465C100.636 28.2786 99.8138 28.4418 99.0471 28.7591C98.2804 29.0764 97.5837 29.5417 96.9969 30.1284C96.41 30.7151 95.9445 31.4117 95.6268 32.1784C95.3092 32.9452 95.1457 33.7669 95.1457 34.5969V120.529C95.1442 121.505 95.3694 122.467 95.8035 123.34H76.2722C75.8291 123.34 75.4041 123.516 75.0907 123.83C74.7774 124.143 74.6013 124.568 74.6013 125.012V126.36C74.6037 128.837 75.5892 131.212 77.3413 132.963C79.0934 134.714 81.4688 135.697 83.9456 135.697H264.364C266.842 135.697 269.219 134.712 270.972 132.96C272.724 131.207 273.708 128.83 273.708 126.351V125.003C273.707 124.561 273.53 124.137 273.217 123.825C272.904 123.513 272.48 123.337 272.037 123.337ZM155.781 128.683L154.171 126.847H194.32L192.529 128.686L155.781 128.683Z" fill="url(#paint0_linear)"/>
<path d="M245.197 29.495H103.77C99.998 29.495 96.9398 32.5537 96.9398 36.3269V118.999C96.9398 122.772 99.998 125.831 103.77 125.831H245.197C248.969 125.831 252.027 122.772 252.027 118.999V36.3269C252.027 32.5537 248.969 29.495 245.197 29.495Z" fill="#535461"/>
<path d="M248.433 43.5376H100.203V122.239H248.433V43.5376Z" fill="white"/>
<path d="M174.319 37.9864C175.041 37.9864 175.626 37.4012 175.626 36.6793C175.626 35.9575 175.041 35.3723 174.319 35.3723C173.598 35.3723 173.012 35.9575 173.012 36.6793C173.012 37.4012 173.598 37.9864 174.319 37.9864Z" fill="white"/>
<path d="M197.207 122.4L192.112 127.626H156.198L151.596 122.4H78.4922C78.0592 122.4 77.6439 122.573 77.3377 122.879C77.0315 123.185 76.8595 123.6 76.8595 124.034V125.349C76.8595 127.772 77.8217 130.095 79.5344 131.809C81.2472 133.522 83.5701 134.484 85.9923 134.484H262.32C264.742 134.484 267.065 133.522 268.778 131.809C270.491 130.095 271.453 127.772 271.453 125.349V124.034C271.453 123.6 271.281 123.185 270.975 122.879C270.669 122.573 270.253 122.4 269.82 122.4H197.207Z" fill="#535461"/>
<path d="M146.363 46.3044H83.8339C82.3149 46.3029 80.8575 46.9047 79.782 47.9776C78.7065 49.0505 78.1011 50.5067 78.0988 52.026V138.672C78.1011 140.192 78.7065 141.648 79.782 142.721C80.8575 143.794 82.3149 144.396 83.8339 144.394H146.363C147.882 144.396 149.339 143.794 150.415 142.721C151.49 141.648 152.096 140.192 152.098 138.672V52.026C152.096 50.5067 151.49 49.0505 150.415 47.9776C149.339 46.9047 147.882 46.3029 146.363 46.3044Z" fill="url(#paint1_linear)"/>
<path d="M145.344 47.4793H84.85C81.6063 47.4793 78.9768 50.1093 78.9768 53.3536V137.65C78.9768 140.895 81.6063 143.525 84.85 143.525H145.344C148.588 143.525 151.217 140.895 151.217 137.65V53.3536C151.217 50.1093 148.588 47.4793 145.344 47.4793Z" fill="#535461"/>
<path d="M147.546 56.5639H82.6475V134.44H147.546V56.5639Z" fill="white"/>
<path d="M114.803 52.7662C115.29 52.7662 115.684 52.3717 115.684 51.885C115.684 51.3984 115.29 51.0039 114.803 51.0039C114.317 51.0039 113.922 51.3984 113.922 51.885C113.922 52.3717 114.317 52.7662 114.803 52.7662Z" fill="white"/>
<path d="M114.803 141.469C116.263 141.469 117.446 140.285 117.446 138.825C117.446 137.365 116.263 136.182 114.803 136.182C113.344 136.182 112.16 137.365 112.16 138.825C112.16 140.285 113.344 141.469 114.803 141.469Z" fill="white"/>
<path d="M98.7019 75.6761H66.5961C66.1792 75.6753 65.7663 75.7566 65.3808 75.9155C64.9954 76.0743 64.645 76.3076 64.3497 76.6019C64.0544 76.8961 63.8199 77.2457 63.6597 77.6307C63.4994 78.0156 63.4165 78.4283 63.4158 78.8453V149.167C63.4165 149.584 63.4994 149.997 63.6597 150.381C63.8199 150.766 64.0544 151.116 64.3497 151.41C64.645 151.705 64.9954 151.938 65.3808 152.097C65.7663 152.255 66.1792 152.337 66.5961 152.336H98.7019C99.1188 152.337 99.5317 152.255 99.9172 152.097C100.303 151.938 100.653 151.705 100.948 151.41C101.244 151.116 101.478 150.766 101.638 150.381C101.799 149.997 101.881 149.584 101.882 149.167V78.8453C101.881 78.4283 101.799 78.0156 101.638 77.6307C101.478 77.2457 101.244 76.8961 100.948 76.6019C100.653 76.3076 100.303 76.0743 99.9172 75.9155C99.5317 75.7566 99.1188 75.6753 98.7019 75.6761Z" fill="url(#paint2_linear)"/>
<path d="M98.3584 76.2635H66.9368C65.1528 76.2635 63.7065 77.71 63.7065 79.4944V148.812C63.7065 150.596 65.1528 152.042 66.9368 152.042H98.3584C100.142 152.042 101.589 150.596 101.589 148.812V79.4944C101.589 77.71 100.142 76.2635 98.3584 76.2635Z" fill="#535461"/>
<path d="M98.7988 83.3127H66.4962V144.993H98.7988V83.3127Z" fill="white"/>
<path d="M78.83 80.0818C78.9922 80.0818 79.1237 79.9503 79.1237 79.7881C79.1237 79.6259 78.9922 79.4944 78.83 79.4944C78.6679 79.4944 78.5364 79.6259 78.5364 79.7881C78.5364 79.9503 78.6679 80.0818 78.83 80.0818Z" fill="white"/>
<path d="M86.4651 79.4944H80.5919C80.4297 79.4944 80.2982 79.6259 80.2982 79.7881C80.2982 79.9503 80.4297 80.0818 80.5919 80.0818H86.4651C86.6273 80.0818 86.7587 79.9503 86.7587 79.7881C86.7587 79.6259 86.6273 79.4944 86.4651 79.4944Z" fill="white"/>
<path d="M82.5008 149.986C83.6361 149.986 84.5564 149.066 84.5564 147.93C84.5564 146.795 83.6361 145.874 82.5008 145.874C81.3655 145.874 80.4452 146.795 80.4452 147.93C80.4452 149.066 81.3655 149.986 82.5008 149.986Z" fill="white"/>
<path d="M59.8273 157.506C59.8273 157.506 55.9334 144.288 60.5585 134.554C62.5273 130.486 63.123 125.888 62.2559 121.452C61.8272 119.35 61.2069 117.293 60.4029 115.304" stroke="#535461" stroke-width="2" stroke-miterlimit="10"/>
<path d="M63.269 109.154C63.269 110.775 60.3324 115.472 60.3324 115.472C60.3324 115.472 57.3958 110.772 57.3958 109.154C57.3958 108.375 57.7051 107.628 58.2559 107.077C58.8066 106.526 59.5535 106.217 60.3324 106.217C61.1112 106.217 61.8581 106.526 62.4088 107.077C62.9596 107.628 63.269 108.375 63.269 109.154Z" fill="#6C63FF"/>
<path d="M68.129 118.13C67.248 119.49 62.2323 121.84 62.2323 121.84C62.2323 121.84 62.3233 116.3 63.2043 114.94C63.4047 114.597 63.6724 114.299 63.9913 114.063C64.3102 113.826 64.6737 113.657 65.0598 113.565C65.446 113.474 65.8467 113.461 66.2378 113.528C66.6289 113.596 67.0023 113.742 67.3355 113.958C67.6686 114.173 67.9545 114.454 68.176 114.784C68.3975 115.113 68.5499 115.484 68.6241 115.874C68.6983 116.264 68.6926 116.665 68.6075 117.053C68.5224 117.44 68.3596 117.807 68.129 118.13Z" fill="#6C63FF"/>
<path d="M67.9059 133.465C66.4582 134.193 60.9432 133.691 60.9432 133.691C60.9432 133.691 63.8182 128.956 65.263 128.228C65.9529 127.916 66.7365 127.883 67.4503 128.135C68.1641 128.387 68.753 128.905 69.094 129.582C69.4349 130.258 69.5017 131.039 69.2804 131.763C69.059 132.487 68.5666 133.098 67.9059 133.468V133.465Z" fill="#6C63FF"/>
<path d="M65.1337 145.034C63.8299 145.998 58.3091 146.432 58.3091 146.432C58.3091 146.432 60.3412 141.281 61.6451 140.317C62.2724 139.899 63.0367 139.737 63.7797 139.867C64.5226 139.997 65.1872 140.407 65.6357 141.014C66.0842 141.62 66.2822 142.376 66.1888 143.124C66.0953 143.873 65.7176 144.557 65.1337 145.034Z" fill="#6C63FF"/>
<path d="M56.0627 122.154C57.2374 123.282 62.6378 124.454 62.6378 124.454C62.6378 124.454 61.3133 119.076 60.1505 117.948C59.8788 117.658 59.5512 117.426 59.1874 117.266C58.8236 117.107 58.4312 117.022 58.034 117.019C57.6367 117.015 57.2429 117.092 56.8763 117.245C56.5097 117.399 56.1779 117.624 55.9011 117.909C55.6243 118.194 55.4082 118.533 55.2659 118.904C55.1235 119.275 55.0579 119.671 55.073 120.068C55.0882 120.465 55.1837 120.855 55.3538 121.214C55.5239 121.573 55.7651 121.894 56.0627 122.157V122.154Z" fill="#6C63FF"/>
<path d="M52.9909 135.723C54.4386 136.452 59.9536 135.95 59.9536 135.95C59.9536 135.95 57.0786 131.215 55.6338 130.487C55.288 130.293 54.9067 130.171 54.5127 130.129C54.1187 130.087 53.7203 130.125 53.3414 130.241C52.9624 130.357 52.6109 130.548 52.3079 130.804C52.0049 131.059 51.7566 131.373 51.5782 131.727C51.3997 132.081 51.2947 132.467 51.2694 132.862C51.2441 133.258 51.2991 133.654 51.4311 134.028C51.5631 134.402 51.7694 134.745 52.0374 135.037C52.3055 135.329 52.6298 135.563 52.9909 135.726V135.723Z" fill="#6C63FF"/>
<path d="M51.8162 149.323C53.1201 150.286 58.6409 150.721 58.6409 150.721C58.6409 150.721 56.6088 145.569 55.3049 144.605C54.6775 144.187 53.9132 144.026 53.1703 144.155C52.4273 144.285 51.7628 144.696 51.3143 145.302C50.8658 145.908 50.6677 146.664 50.7612 147.413C50.8546 148.161 51.2324 148.845 51.8162 149.323Z" fill="#6C63FF"/>
<path d="M292.191 115.46C288.941 111.515 285.003 106.983 285.555 101.735C286.001 97.4845 284.932 93.5546 285.144 89.2898C285.437 83.2305 284.221 78.4869 279.858 74.604C277.309 72.3336 273.048 70.5507 271.779 71.006C269.265 71.9048 266.523 71.5611 263.935 72.1808C261.971 72.639 260.664 73.3557 259.854 74.2369C258.224 75.7054 258.197 77.7615 258.94 79.9496C258.292 81.1374 257.901 82.4482 257.792 83.7971C257.683 85.146 257.859 86.5027 258.308 87.7791C258.758 89.0555 259.471 90.223 260.401 91.2059C261.331 92.1888 262.457 92.965 263.706 93.4841C261.895 94.2419 260.329 95.9866 259.719 99.5288C259.294 101.961 258.652 104.351 257.801 106.669C257.418 106.848 257.026 107.006 256.626 107.142C256.714 107.177 256.805 107.201 256.894 107.233C256.703 107.306 256.515 107.38 256.306 107.444C256.653 107.58 257.012 107.684 257.378 107.756C255.029 113.692 252.092 117.369 252.092 117.369C252.092 117.369 246.615 118.579 244.486 116.462C244.486 116.462 244.833 116.867 245.303 117.475C243.221 116.611 239.803 115.202 236.881 114.041C234.76 113.198 234.217 114.041 234.238 115.216C233.72 115.281 233.221 115.449 232.769 115.71C232.143 115.307 231.486 114.953 230.805 114.652C229.589 114.359 225.633 112.232 221.678 119.49C219.376 123.71 213.473 131.415 208.936 137.113C200.111 141.172 188.624 146.312 184.354 147.604H181.617C181.259 147.017 181.009 146.647 181.009 146.647L180.797 146.788L180.706 146.647C180.706 146.647 175.332 150.368 169.876 150.398C169.1 150.387 168.328 150.288 167.574 150.104C165.066 149.472 163.298 149.19 162.036 149.223C160.541 149.196 159.686 149.552 159.169 150.221C159.1 150.309 159.036 150.401 158.979 150.497C158.921 150.593 158.868 150.691 158.82 150.791C158.773 150.897 158.726 151.008 158.685 151.123C158.668 151.225 158.674 151.33 158.704 151.429C158.733 151.528 158.785 151.62 158.855 151.696C158.928 151.798 159.008 151.897 159.093 151.989L159.246 152.154C159.933 152.865 161.184 153.808 162.74 154.859C163.19 155.153 163.665 155.476 164.162 155.796L165.104 156.383L165.947 156.909L166.285 157.118L166.661 157.347L167.333 157.755L167.733 157.996L168.487 158.445L169.098 158.807C170.696 159.749 172.287 160.663 173.723 161.474L174.728 162.073L174.824 162.126L175.47 162.487L176.586 163.107L177.353 163.53L177.711 163.726L178.096 163.938L178.172 163.979L178.842 164.343C178.979 164.366 179.121 164.359 179.255 164.323C179.39 164.286 179.516 164.221 179.623 164.132C179.817 163.309 180.289 161.547 180.797 161.412C181.305 161.277 183.505 157.432 184.125 154.859H190.062C191.232 154.759 192.394 154.581 193.539 154.325C192.006 155.417 190.488 156.104 189.308 155.811C186.812 155.191 184.448 156.712 184.21 158.213C184.21 158.246 184.189 158.275 184.18 158.307C184.172 158.34 184.166 158.369 184.16 158.398C184.154 158.428 184.142 158.472 184.136 158.51C184.13 158.548 184.136 158.572 184.136 158.604C184.136 158.636 184.136 158.677 184.136 158.716C184.136 158.754 184.136 158.777 184.136 158.807C184.136 158.836 184.136 158.883 184.136 158.921C184.136 158.959 184.136 158.98 184.136 159.009C184.136 159.039 184.154 159.089 184.166 159.13C184.177 159.171 184.166 159.183 184.186 159.206C184.205 159.259 184.226 159.311 184.251 159.362L184.266 159.4C184.299 159.464 184.336 159.526 184.377 159.585L184.424 159.647C184.454 159.688 184.486 159.729 184.521 159.767L184.589 159.835C184.624 159.87 184.662 159.905 184.7 159.94L184.782 160.008L184.915 160.105L185.011 160.17L185.17 160.263L185.276 160.319L185.475 160.413L185.575 160.457C185.681 160.501 185.793 160.543 185.913 160.581C186.104 160.642 186.33 160.707 186.586 160.772L186.841 160.833L187.214 160.918L187.411 160.963C187.665 161.017 187.935 161.072 188.221 161.127L188.618 161.2L188.941 161.259L189.684 161.388C190.148 161.468 190.632 161.547 191.152 161.623L192.432 161.817L194.1 162.055L194.47 162.105L195.058 162.187L195.918 162.302L196.505 162.378L198.029 162.572L198.505 162.631L199.465 162.748C200.728 162.901 201.95 163.042 203.075 163.168L204.375 163.315L205.033 163.389L205.327 163.418L206.114 163.503L206.551 163.55L207.092 163.606L207.852 163.685H207.935L208.422 163.735C208.483 163.742 208.545 163.735 208.603 163.717C208.662 163.698 208.716 163.668 208.762 163.627C208.808 163.587 208.845 163.537 208.871 163.481C208.897 163.425 208.911 163.365 208.912 163.303C208.912 163.289 208.912 163.271 208.912 163.254C208.957 163.185 208.982 163.106 208.983 163.024C208.996 162.3 209.087 161.579 209.256 160.874C209.288 160.754 209.327 160.631 209.368 160.507L209.415 160.366C209.467 160.216 209.52 160.073 209.582 159.911C209.626 159.802 209.664 159.69 209.697 159.576C209.697 159.541 209.717 159.506 209.729 159.468C209.741 159.429 209.758 159.347 209.77 159.285C210.381 157.197 209.644 153.302 209.432 151.772C209.364 151.283 209.252 150.802 209.097 150.333C209.136 150.337 209.174 150.337 209.212 150.333C209.527 150.217 209.824 150.056 210.093 149.854C214.58 148.253 218.362 146.424 219.558 144.591C221.493 144.08 223.549 144.295 225.337 145.196C227.66 146.35 245.232 152.086 253.414 154.736C254.882 156.002 256.033 156.742 256.67 156.686C256.67 156.686 267.086 158.372 271.274 155.082C271.647 155.341 271.882 155.479 271.882 155.479C271.882 155.479 277.967 152.456 278.88 148.524C279.173 147.249 279.441 145.369 279.714 143.29C281.125 141.867 281.919 139.945 281.922 137.941C282.113 131.338 284.671 123.796 286.568 117.087C288.87 117.269 289.76 116.835 291.871 115.792L291.777 115.671C291.927 115.583 292.059 115.525 292.191 115.46ZM257.308 125.349L256.133 124.959C256.527 124.433 256.866 123.868 257.146 123.273L257.308 125.349ZM250.762 128.128L257.81 132.357L257.871 133.218C257.786 133.873 257.805 134.537 257.93 135.186C254.823 132.425 251.188 129.074 250.759 128.125L250.762 128.128ZM247.884 121.96C247.115 121.643 246.477 121.355 246.04 121.117C246.627 121.158 247.185 121.193 247.673 121.22C247.769 121.458 247.84 121.706 247.884 121.96ZM229.008 128.853C229.008 128.853 230.223 126.134 232.963 130.669C233.389 131.374 234.173 132.496 235.21 133.885L227.234 132.819C228.174 131.362 228.805 130.008 229.008 128.856V128.853Z" fill="url(#paint3_linear)"/>
<path d="M246.527 117.927C246.527 117.927 240.948 115.577 236.543 113.815C232.138 112.053 234.781 117.927 234.781 117.927C234.781 117.927 242.122 119.983 242.122 120.277C242.122 120.571 248.289 120.864 248.289 120.864L246.527 117.927Z" fill="#F7C4A7"/>
<path opacity="0.05" d="M246.527 117.927C246.527 117.927 240.948 115.577 236.543 113.815C232.138 112.053 234.781 117.927 234.781 117.927C234.781 117.927 242.122 119.983 242.122 120.277C242.122 120.571 248.289 120.864 248.289 120.864L246.527 117.927Z" fill="black"/>
<path d="M270.314 94.7236C270.314 94.7236 260.329 89.4367 258.567 99.7168C256.805 109.997 251.226 117.046 251.226 117.046C251.226 117.046 245.94 118.221 243.884 116.165C243.884 116.165 248.877 122.039 246.527 122.627C246.527 122.627 251.813 126.445 254.163 125.27C256.512 124.095 258.274 116.165 259.155 114.109C260.036 112.053 263.266 94.1361 270.314 94.7236Z" fill="#575988"/>
<path opacity="0.1" d="M270.314 94.7236C270.314 94.7236 260.329 89.4367 258.567 99.7168C256.805 109.997 251.226 117.046 251.226 117.046C251.226 117.046 245.94 118.221 243.884 116.165C243.884 116.165 248.877 122.039 246.527 122.627C246.527 122.627 251.813 126.445 254.163 125.27C256.512 124.095 258.274 116.165 259.155 114.109C260.036 112.053 263.266 94.1361 270.314 94.7236Z" fill="black"/>
<path d="M264.734 91.199C264.734 91.199 270.901 98.2482 271.195 104.122C271.488 109.997 278.243 97.9544 278.83 97.6607C279.417 97.367 272.957 87.3807 272.369 84.1498C271.782 80.9189 264.734 91.199 264.734 91.199Z" fill="#F7C4A7"/>
<path d="M268.992 94.2096L265.101 97.7342L266.937 105.151L271.929 100.451L271.342 95.7516L268.992 94.2096Z" fill="#F7C4A7"/>
<path d="M187.795 146.418H181.041L183.684 152.879L190.145 151.117L187.795 146.418Z" fill="#F7C4A7"/>
<path opacity="0.1" d="M182.604 145.487C182.604 145.487 175.609 150.359 169.633 148.844C163.657 147.328 162.033 147.895 161.337 149.851C160.694 151.652 178.028 161.174 180.792 162.678C180.835 162.701 180.882 162.715 180.931 162.717C180.98 162.719 181.028 162.709 181.073 162.689C181.118 162.669 181.157 162.639 181.188 162.602C181.219 162.564 181.241 162.52 181.253 162.472C181.441 161.673 181.896 159.961 182.383 159.829C183.018 159.658 185.907 154.248 185.749 152.122C185.59 149.995 182.604 145.487 182.604 145.487Z" fill="black"/>
<path d="M182.31 145.487C182.31 145.487 175.315 150.359 169.339 148.844C163.363 147.328 161.739 147.895 161.043 149.851C160.4 151.652 177.734 161.174 180.498 162.678C180.541 162.701 180.588 162.715 180.637 162.717C180.686 162.719 180.735 162.709 180.779 162.689C180.824 162.669 180.863 162.639 180.894 162.602C180.926 162.564 180.948 162.52 180.959 162.472C181.147 161.673 181.602 159.961 182.089 159.829C182.724 159.658 185.613 154.248 185.455 152.122C185.296 149.995 182.31 145.487 182.31 145.487Z" fill="#F3B5B7"/>
<path d="M240.067 133.788L220.392 131.144C220.392 131.144 188.383 146.418 184.565 146.711L185.446 153.467H191.319C193.669 153.467 216.574 148.474 219.804 143.481C221.673 142.984 223.659 143.193 225.384 144.068C228.32 145.537 256.512 154.642 256.512 154.642L240.067 133.788Z" fill="#575988"/>
<path opacity="0.1" d="M240.067 133.788L220.392 131.144C220.392 131.144 188.383 146.418 184.565 146.711L185.446 153.467H191.319C193.669 153.467 216.574 148.474 219.804 143.481C221.673 142.984 223.659 143.193 225.384 144.068C228.32 145.537 256.512 154.642 256.512 154.642L240.067 133.788Z" fill="black"/>
<path d="M205.121 142.893L201.891 147.005L205.121 148.767L209.82 145.243L205.121 142.893Z" fill="#F7C4A7"/>
<path d="M261.21 138.194C261.21 138.194 250.639 129.141 249.907 127.499C249.176 125.858 231.844 114.696 230.67 114.403C229.495 114.109 225.677 112.053 221.86 119.102C218.042 126.151 203.947 143.187 203.947 143.187C203.947 143.187 208.352 149.355 209.82 149.061C211.288 148.767 227.733 134.963 228.908 128.207C228.908 128.207 230.082 125.564 232.725 129.97C235.368 134.375 252.4 155.523 255.631 155.229C255.631 155.229 268.258 157.285 270.901 152.292C273.544 147.299 261.21 138.194 261.21 138.194Z" fill="#575988"/>
<path d="M267.23 95.1641C267.23 95.1641 263.56 96.7796 263.266 103.535C262.972 110.291 256.512 121.746 256.512 121.746L257.099 135.256C257.099 135.256 264.147 142.306 264.734 146.711C265.322 151.117 270.314 154.054 270.314 154.054C270.314 154.054 276.187 151.117 277.068 147.299C277.949 143.481 278.536 134.082 280.005 130.557C281.473 127.032 280.592 105.004 280.592 105.004L276.187 97.367L273.838 94.7236L267.671 101.773C267.671 101.773 264.294 97.2202 267.23 95.1641Z" fill="#DDDBE2"/>
<path opacity="0.1" d="M258.567 130.851C258.567 130.851 257.687 120.277 260.329 117.927L265.615 102.948C265.615 102.948 267.524 95.7516 267.23 95.1642C266.937 94.5767 260.329 100.892 260.329 100.892L255.925 116.459L257.099 132.907L258.567 130.851Z" fill="black"/>
<path d="M258.274 130.851C258.274 130.851 257.393 120.277 260.036 117.927L265.322 102.948C265.322 102.948 267.377 95.6047 267.084 95.0173C266.79 94.4299 260.036 100.892 260.036 100.892L255.631 116.459L256.805 132.907L258.274 130.851Z" fill="#575988"/>
<path d="M260.329 126.151C260.329 126.151 245.646 121.452 244.766 120.277C243.885 119.102 234.487 111.465 231.257 116.752C228.027 122.039 243.297 123.508 243.297 123.508L258.861 132.907L260.329 126.151Z" fill="#F7C4A7"/>
<path opacity="0.1" d="M205.759 146.979L201.412 146.197C201.412 146.197 194.294 155.317 190.585 154.392C186.876 153.467 183.464 157.458 187.381 158.739C190.92 159.896 206.202 161.515 209.112 161.814C209.171 161.82 209.231 161.814 209.287 161.796C209.343 161.778 209.395 161.749 209.44 161.709C209.484 161.67 209.52 161.622 209.545 161.568C209.57 161.515 209.584 161.456 209.585 161.397C209.607 160.262 209.836 159.14 210.26 158.087C211.044 156.163 210.26 152.031 210.043 150.45C209.923 149.524 209.634 148.628 209.188 147.807L205.759 146.979Z" fill="black"/>
<path d="M205.685 147.264L201.339 146.482C201.339 146.482 194.221 155.602 190.518 154.68C186.814 153.758 183.396 157.746 187.314 159.027C190.852 160.184 206.134 161.803 209.045 162.102C209.103 162.108 209.163 162.102 209.219 162.084C209.276 162.066 209.328 162.036 209.372 161.997C209.417 161.958 209.452 161.91 209.477 161.856C209.502 161.803 209.516 161.744 209.517 161.685C209.532 160.552 209.751 159.432 210.166 158.378C210.95 156.454 210.166 152.321 209.949 150.741C209.829 149.815 209.54 148.919 209.094 148.098L205.685 147.264Z" fill="#F3B5B7"/>
<path opacity="0.1" d="M266.937 94.5767C272.126 94.5767 276.334 90.3687 276.334 85.1778C276.334 79.9869 272.126 75.7789 266.937 75.7789C261.747 75.7789 257.54 79.9869 257.54 85.1778C257.54 90.3687 261.747 94.5767 266.937 94.5767Z" fill="black"/>
<path d="M266.056 94.5767C271.246 94.5767 275.453 90.3687 275.453 85.1778C275.453 79.9869 271.246 75.7789 266.056 75.7789C260.866 75.7789 256.659 79.9869 256.659 85.1778C256.659 90.3687 260.866 94.5767 266.056 94.5767Z" fill="#F7C4A7"/>
<path d="M275.306 94.4299C275.306 94.4299 286.465 98.2482 286.465 106.179C286.465 114.109 280.298 126.739 280.004 137.019C279.711 147.299 263.56 145.83 263.56 145.83C263.56 145.83 261.21 111.172 263.56 108.528C265.909 105.885 276.481 95.6047 275.306 94.4299Z" fill="#575988"/>
<path opacity="0.1" d="M273.25 110.878C273.25 110.878 269.139 129.088 259.448 125.858C259.448 125.858 254.456 133.2 257.98 136.431C257.98 136.431 266.496 138.487 272.076 132.907C277.655 127.326 281.766 125.27 282.647 118.515C283.528 111.759 284.116 102.36 281.179 103.241C278.242 104.123 273.25 110.878 273.25 110.878Z" fill="black"/>
<path d="M273.544 110.584C273.544 110.584 269.433 128.795 259.742 125.564C259.742 125.564 254.75 132.907 258.274 136.138C258.274 136.138 266.79 138.194 272.369 132.613C277.949 127.032 282.06 124.976 282.941 118.221C283.822 111.465 284.409 102.066 281.473 102.948C278.536 103.829 273.544 110.584 273.544 110.584Z" fill="#575988"/>
<path d="M210.419 157.432C210.419 157.459 210.401 157.491 210.392 157.514C210.19 158.017 210.036 158.537 209.931 159.068C210.002 158.839 210.084 158.604 210.178 158.369C210.294 158.067 210.374 157.753 210.419 157.432Z" fill="#DDDBE2"/>
<path d="M187.528 158.169C186.318 157.773 185.81 157.121 185.79 156.433C185.291 157.391 185.605 158.466 187.314 159.024C190.852 160.181 206.137 161.8 209.045 162.099C209.104 162.105 209.164 162.099 209.22 162.081C209.277 162.063 209.329 162.033 209.373 161.993C209.418 161.954 209.454 161.905 209.478 161.851C209.503 161.797 209.516 161.739 209.517 161.679C209.519 161.571 209.481 161.467 209.41 161.386C209.339 161.305 209.24 161.253 209.133 161.242C205.944 160.901 191.02 159.309 187.528 158.169Z" fill="#DDDBE2"/>
<path d="M161.448 149.334C161.526 149.118 161.624 148.909 161.742 148.712C161.425 149.032 161.189 149.422 161.052 149.851C160.409 151.652 177.743 161.174 180.507 162.678C180.55 162.701 180.598 162.714 180.647 162.716C180.696 162.718 180.744 162.708 180.789 162.688C180.834 162.668 180.873 162.638 180.904 162.6C180.935 162.562 180.957 162.517 180.968 162.469C180.984 162.402 180.978 162.33 180.949 162.267C180.921 162.203 180.873 162.15 180.812 162.117C177.758 160.446 160.814 151.114 161.448 149.334Z" fill="#DDDBE2"/>
<path d="M182.492 159.315C182.336 159.356 182.183 159.564 182.04 159.849L182.087 159.832C182.216 159.796 182.436 159.538 182.703 159.156C182.646 159.225 182.574 159.279 182.492 159.315Z" fill="#DDDBE2"/>
<path opacity="0.1" d="M264.752 93.4518C263.924 95.2787 263.75 97.3376 263.143 99.2527C261.936 103.05 258.908 106.193 255.281 107.406C258.332 108.622 261.933 107.136 264.291 104.669C266.649 102.202 268.032 98.9178 269.356 95.7222C272.78 98.0249 272.363 103.318 273.515 107.439C274.009 109.231 274.882 110.897 276.075 112.324C277.268 113.75 278.753 114.904 280.43 115.707C282.102 116.457 283.919 116.827 285.751 116.79C287.582 116.753 289.383 116.309 291.023 115.492C287.883 111.674 283.414 106.408 283.945 101.309C284.377 97.179 281.414 94.0245 281.617 89.8802C281.91 84.0059 279.661 81.0217 275.45 77.2504C272.989 75.0446 276.862 71.9341 273.688 72.8446C272.44 73.203 271.124 71.8665 269.9 72.3071C267.474 73.1883 264.825 72.8476 262.329 73.435C249.355 76.4838 265.962 90.7848 264.752 93.4518Z" fill="black"/>
<path d="M265.046 93.1581C264.217 94.985 264.044 97.0439 263.436 98.959C262.229 102.757 259.202 105.899 255.575 107.113C258.626 108.329 262.226 106.842 264.585 104.375C266.943 101.908 268.326 98.6241 269.65 95.4285C273.074 97.7312 272.657 103.024 273.808 107.145C274.302 108.938 275.175 110.604 276.369 112.03C277.562 113.456 279.047 114.61 280.724 115.413C282.396 116.163 284.213 116.533 286.044 116.496C287.876 116.459 289.677 116.016 291.316 115.199C288.177 111.38 284.001 106.995 284.533 101.896C284.965 97.7665 284.321 93.5223 284.533 89.3809C284.827 83.5065 281.946 77.8319 277.732 74.0606C275.271 71.8548 271.427 71.5728 270.199 72.0046C267.774 72.8858 265.125 72.545 262.629 73.1325C249.649 76.1901 266.255 90.4911 265.046 93.1581Z" fill="#FC6681"/>
</g>
<defs>
<linearGradient id="paint0_linear" x1="174.155" y1="135.703" x2="174.155" y2="28.2761" gradientUnits="userSpaceOnUse">
<stop stop-color="#808080" stop-opacity="0.25"/>
<stop offset="0.54" stop-color="#808080" stop-opacity="0.12"/>
<stop offset="1" stop-color="#808080" stop-opacity="0.1"/>
</linearGradient>
<linearGradient id="paint1_linear" x1="35149.3" y1="62396.9" x2="35149.3" y2="29635" gradientUnits="userSpaceOnUse">
<stop stop-color="#808080" stop-opacity="0.25"/>
<stop offset="0.54" stop-color="#808080" stop-opacity="0.12"/>
<stop offset="1" stop-color="#808080" stop-opacity="0.1"/>
</linearGradient>
<linearGradient id="paint2_linear" x1="14043.7" y1="50874.4" x2="14043.7" y2="30866.2" gradientUnits="userSpaceOnUse">
<stop stop-color="#808080" stop-opacity="0.25"/>
<stop offset="0.54" stop-color="#808080" stop-opacity="0.12"/>
<stop offset="1" stop-color="#808080" stop-opacity="0.1"/>
</linearGradient>
<linearGradient id="paint3_linear" x1="113604" y1="65808.3" x2="113604" y2="36085.1" gradientUnits="userSpaceOnUse">
<stop stop-color="#808080" stop-opacity="0.25"/>
<stop offset="0.54" stop-color="#808080" stop-opacity="0.12"/>
<stop offset="1" stop-color="#808080" stop-opacity="0.1"/>
</linearGradient>
<clipPath id="clip0">
<rect width="304.231" height="179.755" fill="white"/>
</clipPath>
</defs>
</svg>
