<svg width="275" height="204" viewBox="0 0 275 204" fill="none" xmlns="http://www.w3.org/2000/svg">
<g clip-path="url(#clip0)">
<path d="M250.348 49.5895C219.136 6.21391 153.202 -11.3811 88.3585 7.56914C54.0775 17.5876 21.0244 37.661 4.64402 76.5296C-24.6376 146.011 36.8429 168.202 77.0444 175.275C96.4837 178.695 114.792 184.439 131.523 192.261C161.622 206.332 214.901 218.8 255.076 160.187C284.195 117.704 271.138 78.482 250.348 49.5895Z" fill="#F2F2F2"/>
<path d="M72.3915 58.1712C72.3042 57.4818 72.1276 56.8067 71.8662 56.1627C71.8328 56.041 71.7745 55.9275 71.6948 55.8295C71.6151 55.7314 71.5159 55.6511 71.4034 55.5935C71.253 55.5544 71.0954 55.5527 70.9442 55.5884L68.5865 55.9486C68.3892 55.9576 68.2003 56.031 68.0486 56.1574C67.7415 56.4799 68.0439 56.9992 68.0345 57.4441C68.0239 57.9445 67.5788 58.3506 67.0961 58.4849C66.6034 58.5844 66.0951 58.5781 65.605 58.4665L62.3084 57.9548C63.2793 57.6453 64.1435 57.0693 64.8023 56.2928C65.2362 55.7795 65.467 54.8213 64.84 54.5782C64.6537 54.5271 64.4594 54.5116 64.2674 54.5323C62.7738 54.5439 61.5984 53.2985 60.2001 52.7739C59.3052 52.4599 58.3338 52.4365 57.4247 52.7072C56.5157 52.9778 55.7156 53.5286 55.1389 54.2807L56.8951 54.3653C57.0603 54.3562 57.2242 54.3998 57.3629 54.4899C57.7478 54.8057 57.2693 55.4122 57.3235 55.9067C57.3939 56.5492 58.2481 56.6864 58.892 56.7514C59.5359 56.8163 60.3528 57.3388 60.043 57.9063C56.8068 59.0195 53.5135 55.7301 50.1147 56.135C49.2545 56.2375 48.4422 56.575 47.6024 56.7872C42.472 58.0836 37.1681 54.6248 31.9271 55.3573C30.762 55.5556 29.6168 55.8573 28.5053 56.2585C27.792 56.4924 27.048 56.7452 26.5297 57.2877C26.0114 57.8301 25.8141 58.7578 26.3051 59.325C24.9518 59.4363 23.5895 59.307 22.2814 58.9431C22.6351 59.1394 22.9294 59.4273 23.1333 59.7764C23.3373 60.1255 23.4433 60.523 23.4404 60.9272C21.3273 61.2713 19.2703 61.8977 17.3245 62.7895C17.6876 63.3926 18.1118 63.9569 18.5903 64.4736L15.9153 66.1899C16.819 66.4173 17.2863 67.648 16.7607 68.4167C17.6978 68.0003 18.2786 66.9233 19.2807 66.7049C19.9371 66.5619 20.6051 66.8301 21.2279 67.082C21.8507 67.334 22.5352 67.5783 23.1799 67.3892C23.8246 67.2001 24.3001 66.3652 23.8905 65.8333C26.6461 65.0304 29.494 64.586 32.3635 64.5113C32.5849 64.4835 32.8094 64.5261 33.0053 64.6329C33.3788 64.8917 33.2805 65.4507 33.2604 65.9043C33.2403 66.3579 33.5943 66.9541 34.0002 66.7496C33.5226 67.1632 33.9309 67.9418 34.3891 68.3768C34.8473 68.8117 35.3996 69.4118 35.119 69.9775C35.0458 70.1252 34.9216 70.2433 34.8512 70.3923C34.6433 70.8321 34.9734 71.3449 35.3628 71.6369C35.7522 71.929 36.2292 72.1331 36.4997 72.5375C36.7702 72.9419 36.6474 73.6498 36.1637 73.7063L34.7888 71.963C34.3191 72.4494 33.9971 73.0589 33.8601 73.7207C35.318 74.9109 35.5373 77.3335 34.3168 78.7656C33.693 79.4974 32.806 79.9421 32.0319 80.5129C31.2577 81.0837 30.5414 81.8965 30.5433 82.8575C30.5467 84.5179 30.4109 86.0603 31.0338 87.5997C32.1826 90.438 33.5089 93.2015 35.0049 95.8736C35.3977 96.5753 35.9055 97.3444 36.7013 97.4652C35.6955 95.0199 34.7901 92.5366 33.9851 90.0152C34.5094 90.0173 35.1154 90.0589 35.4227 90.4831C35.6772 90.8344 35.6226 91.312 35.7017 91.7384C35.8023 92.1514 35.97 92.5452 36.1982 92.9041L41.0011 101.448C41.3992 102.157 41.8559 102.917 42.6169 103.204C43.1034 103.387 43.6663 103.352 44.1141 103.617C44.4651 103.823 44.7015 104.191 45.0593 104.386C46.071 104.937 47.478 103.88 48.4235 104.538C48.6939 104.726 48.8658 105.025 49.115 105.241C49.9882 105.996 51.4207 105.491 52.4288 106.054C53.0785 106.417 53.4152 107.143 53.7617 107.801C54.6298 109.45 56.0343 111.065 57.8946 111.196C58.4789 111.237 59.0758 111.126 59.647 111.256C60.2182 111.386 60.7805 111.884 60.6888 112.462C60.5316 113.452 61.0217 114.537 60.8901 115.531C60.6503 117.343 58.0779 118.138 57.8569 119.952C57.8085 120.349 57.8843 120.759 57.7896 121.148C57.6736 121.624 57.3153 122.012 57.188 122.485C56.9468 123.383 57.5905 124.276 58.2977 124.879C59.0048 125.483 59.8484 126.004 60.235 126.849C60.6436 127.742 60.4429 128.783 60.5758 129.756C60.8659 131.88 62.703 133.455 64.5937 134.47C65.1697 134.78 65.7882 135.079 66.161 135.616C66.6477 136.316 66.5992 137.24 66.7617 138.077C67.1597 140.127 68.8875 141.815 68.9365 143.903C68.9714 145.386 68.1456 146.732 67.6523 148.132C67.1898 149.473 67.0225 150.899 67.1617 152.31C67.3008 153.722 67.7433 155.087 68.4588 156.312C68.8278 156.935 69.2692 157.521 69.5302 158.196C69.9961 159.4 69.8449 160.768 70.2744 161.986C70.8423 163.595 72.4026 164.924 72.2533 166.624C72.9617 168.093 74.5259 168.815 76.0989 169.252L78.9179 170.036C79.4577 170.186 80.0218 170.337 80.5714 170.229C81.121 170.12 81.6456 169.664 81.6314 169.105C80.249 168.793 78.8222 168.462 77.6826 167.621C76.543 166.78 75.7624 165.282 76.1948 163.934C76.3953 163.309 76.8218 162.587 76.4163 162.071C76.1841 161.775 75.7595 161.698 75.4976 161.428C75.0891 161.007 75.2295 160.3 75.5232 159.793C75.8168 159.285 76.2413 158.832 76.3597 158.258C76.4195 157.937 76.3796 157.605 76.2452 157.307C76.1109 157.01 75.8886 156.76 75.6081 156.592C76.1308 156.395 76.6062 156.09 77.0034 155.698C77.3704 155.279 77.5399 154.634 77.2512 154.158C78.1084 154.267 79.1204 154.32 79.6831 153.665C80.1324 153.142 80.1016 152.361 79.924 151.695C79.7465 151.029 79.4464 150.382 79.437 149.693C81.4144 149.787 83.3961 149.72 85.3626 149.492C85.0783 148.536 84.4321 147.728 83.5611 147.239C84.4517 147.089 85.2631 146.024 85.5444 145.167C85.8258 144.309 85.754 143.376 85.5801 142.49C85.5133 142.263 85.5042 142.022 85.5535 141.789C85.6538 141.47 85.9678 141.275 86.2582 141.109L90.679 138.573C90.9428 138.441 91.1819 138.265 91.3859 138.052C91.8491 137.509 91.7804 136.689 91.5433 136.015C91.3061 135.342 90.9263 134.709 90.8349 134.002C90.5617 131.885 92.8304 130.367 93.596 128.374C93.8965 127.592 93.9577 126.743 94.0158 125.907C94.0783 125.01 94.0829 123.968 93.393 123.389C92.7317 122.835 91.6984 122.959 91.0064 122.443C90.372 121.97 90.1531 121.052 89.46 120.67C88.8306 120.324 88.0414 120.544 87.3414 120.381C86.1088 120.094 85.3331 118.675 84.0743 118.544C83.3641 118.47 82.5603 118.817 81.9781 118.404C81.4652 118.04 81.4447 117.308 81.347 116.687C81.1759 115.722 80.7129 114.833 80.0202 114.139C79.3276 113.445 78.4387 112.98 77.4731 112.806C76.7408 112.689 75.9437 112.733 75.3208 112.331C74.6899 111.924 74.4007 111.162 73.9052 110.599C73.1066 109.69 71.8488 109.368 70.6706 109.091L65.8779 107.966C65.0272 107.766 63.9305 107.66 63.474 108.405C63.3388 108.688 63.2431 108.988 63.1896 109.298C63.0185 109.857 62.6742 110.348 62.2062 110.7C61.7382 111.052 61.1706 111.246 60.5849 111.256C60.1832 110.571 59.5325 110.069 58.7685 109.852C58.2825 109.717 57.7623 109.702 57.2989 109.503C57.0464 109.38 56.8218 109.207 56.6387 108.994C56.4557 108.781 56.318 108.533 56.2341 108.265C56.1503 107.998 56.122 107.716 56.1511 107.437C56.1801 107.158 56.2659 106.888 56.4031 106.643C56.6794 106.152 56.7861 105.583 56.7068 105.025C56.6274 104.467 56.3664 103.951 55.964 103.556C55.1489 102.825 53.97 102.649 52.8771 102.722C52.5909 102.098 53.0695 101.394 53.5852 100.941C54.1009 100.488 54.7272 100.042 54.8395 99.3652C55.0161 98.3005 53.6558 97.4918 52.623 97.8093C51.5901 98.1268 50.9309 99.1287 50.4952 100.116C50.2451 100.683 50.0326 101.28 49.6382 101.757C49.2438 102.235 48.6087 102.577 48.0079 102.424C47.1575 102.207 46.829 101.198 46.6408 100.342C46.3883 99.1928 46.1342 98.028 46.1872 96.853C46.2401 95.678 46.6367 94.4716 47.5043 93.6762C48.918 92.38 51.0868 92.507 52.9947 92.7138C52.544 92.2066 52.6554 91.3518 53.1377 90.8744C53.3923 90.6485 53.6982 90.488 54.0289 90.4068C54.3597 90.3257 54.7053 90.3263 55.0357 90.4087C55.6106 90.5282 56.1286 90.8375 56.5061 91.2867C57.0483 91.9469 57.2025 92.8382 57.6123 93.5875C58.0221 94.3369 58.9436 94.976 59.6979 94.574C60.3493 94.2268 60.4527 93.3246 60.2906 92.6051C60.1285 91.8856 59.7841 91.186 59.8428 90.4508C59.9549 89.0481 61.4109 88.2038 62.6957 87.6261C63.9806 87.0484 65.4518 86.2714 65.6553 84.879C65.6623 84.6063 65.7138 84.3367 65.8078 84.0806C65.9503 83.8545 66.1483 83.6685 66.3831 83.5404C70.1329 81.0655 73.9451 78.5604 78.231 77.2081C78.454 77.1377 78.4802 77.2159 78.7074 77.1608C79.0254 76.9772 78.8147 76.4694 78.5098 76.2648C78.2049 76.0603 77.7973 75.9034 77.7199 75.5448C77.6631 75.2811 77.8186 75.0223 77.859 74.7557C77.9583 74.1005 77.1734 73.4955 76.5639 73.7575C76.2197 73.3021 76.9009 72.773 77.4517 72.6216C79.1058 72.167 80.8037 71.89 82.5166 71.7953C82.7142 71.7639 82.9168 71.7983 83.0929 71.8932C83.3806 72.0922 83.3439 72.5487 83.14 72.8328C82.9361 73.1169 82.6189 73.2952 82.3648 73.5356C82.0872 73.8057 81.8892 74.1467 81.7925 74.5215C81.6957 74.8963 81.7038 75.2904 81.816 75.6609C82.7103 76.1151 83.6824 76.5828 84.6728 76.4227C85.6632 76.2627 86.5423 75.1514 86.0767 74.2638C85.6432 73.4373 84.3411 73.2509 84.1171 72.345C83.8549 71.2844 85.3583 70.3411 85.0197 69.3024C84.8713 68.8474 84.4173 68.5796 84.0688 68.2511C83.6574 67.8483 83.3775 67.3307 83.2659 66.7661C83.1544 66.2016 83.2163 65.6166 83.4438 65.0879C82.8762 65.1876 82.2931 65.15 81.7431 64.9781C81.1932 64.8062 80.6926 64.5052 80.2832 64.1002C79.5272 63.3383 78.9241 62.1363 77.8506 62.1704C76.8655 62.2017 76.017 63.3495 75.0959 62.9993C74.8693 62.9132 74.6304 62.7378 74.4108 62.8406C74.3388 62.8872 74.2784 62.9496 74.2342 63.023C74.1899 63.0964 74.1629 63.1789 74.1552 63.2642C73.9211 64.3819 74.3238 65.6554 73.7139 66.6212C73.0501 67.6722 71.5148 67.8179 70.7101 68.7656C70.2733 69.2801 70.1041 69.9733 69.7026 70.5157C69.3011 71.0581 68.4489 71.4029 67.9671 70.9303C68.2039 70.4441 68.2686 69.892 68.1505 69.3644C68.0325 68.8368 67.7387 68.3647 67.3172 68.0254C66.8699 67.7339 66.3877 67.4997 65.8819 67.3281C65.3167 67.0892 64.7791 66.79 64.2784 66.4356C64.0275 66.2845 63.8237 66.0667 63.6897 65.8066C63.5837 65.4809 63.598 65.128 63.73 64.8119C63.9743 64.1123 64.4053 63.4926 64.9765 63.0198C65.5477 62.547 66.2374 62.239 66.971 62.1291C67.6126 62.0419 68.3592 62.0726 68.7838 61.5844C69.0085 61.3261 69.1263 60.9356 69.4524 60.8307C69.661 60.7888 69.8775 60.8155 70.0697 60.9066L72.4643 61.7484C72.7314 61.8688 73.0255 61.9174 73.3173 61.8893C73.462 61.8698 73.5939 61.7964 73.6867 61.6838C73.7794 61.5712 73.8261 61.4278 73.8174 61.2823C73.7409 60.8851 73.129 60.6946 73.1847 60.294C73.2158 60.1642 73.2857 60.0469 73.3851 59.9575C74.2492 59.039 75.3061 58.3226 76.4799 57.8596C77.6538 57.3967 78.9156 57.1987 80.175 57.2798C80.4773 57.7755 79.9993 58.3625 79.6015 58.7857C79.2038 59.2089 78.8842 59.965 79.3652 60.2908C79.5623 60.3912 79.7816 60.4406 80.0028 60.4342C80.5923 60.5139 81.1652 60.6874 81.6998 60.9482C82.5272 61.3079 83.3388 61.7013 84.1345 62.1287C84.0642 61.6047 83.9971 61.0527 84.196 60.5628C84.3949 60.0729 84.96 59.6887 85.4537 59.8795C85.9294 60.0633 86.1734 60.6924 86.6803 60.7501C87.3564 60.827 87.6231 59.8294 87.3407 59.2111C87.0583 58.5928 86.4992 58.0751 86.4525 57.3971C86.4211 56.9397 86.5953 56.3725 86.2295 56.0955C86.0993 56.0123 85.9515 55.9606 85.7979 55.9443L76.6631 54.2656C76.1206 54.1659 75.3369 54.2423 75.3128 54.7926C75.2994 55.0998 75.5741 55.4037 75.4525 55.6861C75.3226 55.9875 74.8959 55.96 74.5851 56.0666C74.103 56.232 73.861 56.8038 73.9073 57.3109C73.9921 57.8147 74.1875 58.2936 74.4795 58.7131C73.8853 58.4649 72.9856 58.4193 72.3915 58.1712Z" fill="#3F3D56"/>
<path d="M65.1029 50.4271C64.5268 50.2367 63.9061 50.2278 63.3249 50.4017C62.7436 50.5755 62.23 50.9237 61.8535 51.3989C61.7031 51.5967 61.5768 51.8693 61.7027 52.0835C61.8833 52.3905 62.3433 52.2692 62.6824 52.1594C63.1809 51.9816 63.7234 51.9686 64.2298 52.1225C64.5483 52.2317 64.8332 52.4247 65.153 52.5298C65.3087 52.5948 65.4792 52.6163 65.6462 52.5919C65.8132 52.5676 65.9704 52.4983 66.1009 52.3914C66.3204 52.1679 66.3342 51.8203 66.3346 51.5072C66.3498 51.4024 66.3414 51.2955 66.31 51.1944C66.2786 51.0933 66.225 51.0004 66.1531 50.9226C66.0251 50.8486 65.8812 50.8061 65.7335 50.7987C65.4025 50.7375 65.1034 50.5629 64.8875 50.305" fill="#3F3D56"/>
<path d="M68.3967 49.5112C68.2678 49.5042 68.1392 49.5304 68.0234 49.5874C67.9076 49.6443 67.8084 49.73 67.7353 49.8363C67.6623 49.9427 67.6178 50.0659 67.6063 50.1944C67.5947 50.3228 67.6165 50.452 67.6694 50.5696C68.0653 50.6774 68.4789 50.7043 68.8854 50.6488C69.0882 50.6173 69.2771 50.5266 69.4284 50.3881C69.5797 50.2496 69.6865 50.0695 69.7354 49.8705C69.2567 49.9575 68.7628 49.8633 68.3499 49.6062" fill="#3F3D56"/>
<path d="M79.4477 47.9816C78.3702 48.2104 77.3235 48.5655 76.3294 49.0395C76.7981 49.2194 77.1964 49.5449 77.4658 49.968C77.7353 50.3911 77.8614 50.8895 77.8258 51.3896C77.7838 51.5816 77.7886 51.781 77.84 51.9707C77.9545 52.248 78.2864 52.352 78.5782 52.4232C79.1023 52.5825 79.6497 52.6523 80.1972 52.6296C80.471 52.6152 80.737 52.533 80.9709 52.3902C81.2049 52.2474 81.3996 52.0486 81.5373 51.8117C81.6166 51.5869 81.7097 51.3672 81.816 51.1538C82.5153 50.0901 84.5929 51.3763 85.3437 50.3482C85.6082 49.9861 85.584 49.4409 85.9288 49.154C86.1072 49.0289 86.3139 48.9501 86.5303 48.9247C88.0403 48.6251 89.5655 48.4082 91.0992 48.2749C91.8259 48.2117 92.7731 47.9511 92.7792 47.2227C90.042 46.6858 87.2039 47.0671 84.7061 48.3073C83.8062 48.7574 82.6159 49.7043 81.7491 49.1075C81.4245 48.8841 81.4406 48.2824 80.9938 48.0311C80.5371 47.7742 79.9326 47.8787 79.4477 47.9816Z" fill="#3F3D56"/>
<path d="M88.3992 49.6533L89.6841 49.8999C89.4476 49.8894 89.2116 49.9295 88.9918 50.0173C88.772 50.1052 88.5735 50.2388 88.4095 50.4094C88.2455 50.5799 88.1198 50.7834 88.0408 51.0063C87.9618 51.2292 87.9314 51.4663 87.9514 51.7019C89.1546 52.1033 90.4664 51.7127 91.7339 51.766C93.0014 51.8194 94.4761 52.7236 94.2597 53.9719C94.1943 54.3494 93.976 54.7266 94.0895 55.0925C94.1691 55.349 94.3956 55.531 94.5234 55.7672C94.7898 56.2594 94.5769 56.8819 94.2405 57.3294C93.9042 57.7768 93.452 58.1338 93.1568 58.6093C92.4225 59.7919 92.8397 61.3208 93.2771 62.642C93.4036 63.1412 93.6371 63.607 93.9616 64.0072C94.6097 64.6953 95.6658 64.7552 96.6117 64.769C97.3001 64.779 98.0887 64.7451 98.5241 64.2124C99.0924 63.5169 98.695 62.4319 99.0692 61.6157C99.4091 60.8744 100.275 60.5564 101.059 60.3309C102.497 59.9177 103.961 59.5664 105.32 58.9423C107.007 58.1672 108.584 56.9595 110.438 56.8597C110.959 56.8317 111.492 56.893 111.993 56.7507C112.494 56.6083 112.97 56.1756 112.932 55.6567C112.9 55.2133 112.524 54.8877 112.231 54.5535C111.937 54.2192 111.706 53.7052 111.976 53.3516L116.837 52.4449C116.492 51.5072 116.224 50.2721 117.016 49.6618C117.301 49.4415 117.684 49.3535 117.927 49.0873C118.342 48.6335 118.133 47.8518 117.655 47.4659C117.176 47.08 116.529 46.9904 115.916 46.9395C113.785 46.7628 111.641 46.8796 109.506 46.9965C105.332 47.225 101.157 47.4535 96.9831 47.682C96.1428 47.728 95.1726 47.6577 94.4019 47.944C93.7494 48.1864 93.2855 48.6313 92.5393 48.7876C91.1617 49.0762 89.6458 48.881 88.3992 49.6533Z" fill="#3F3D56"/>
<path d="M111.417 59.796C111.286 59.7753 111.153 59.8056 111.043 59.8807C110.971 59.9601 110.928 60.0617 110.922 60.1687C110.839 60.6411 110.937 61.1273 111.198 61.5301C111.331 61.7276 111.514 61.8861 111.729 61.989C111.944 62.0918 112.183 62.1354 112.42 62.1151C112.999 62.0414 113.425 61.5485 113.957 61.308C114.777 60.9376 118.258 60.3602 115.85 59.0608C115.02 58.613 114.484 59.0083 113.829 59.3032C113.085 59.6835 112.251 59.8538 111.417 59.796Z" fill="#3F3D56"/>
<path d="M132.511 48.9198C132.23 49.0345 131.994 49.239 131.842 49.5014C131.771 49.6346 131.755 49.7897 131.796 49.9346C131.837 50.0795 131.932 50.2031 132.062 50.2798C132.167 50.3178 132.278 50.3355 132.39 50.3318L133.534 50.3659C134.019 50.3804 134.626 50.4837 134.757 50.9512C134.854 51.2983 134.637 51.7444 134.898 51.9924C135.011 52.0793 135.146 52.1319 135.287 52.1439C135.664 52.2406 136.057 52.2532 136.439 52.1811C137.271 51.9582 136.834 51.4511 137.096 50.9996C137.497 50.3087 137.428 50.7269 138.134 50.331C138.656 50.0386 139.33 49.5081 138.895 48.7628C138.137 47.4668 133.628 48.363 132.511 48.9198Z" fill="#3F3D56"/>
<path d="M155.079 48.2682L154.415 48.3567C152.918 48.5562 151.412 48.7576 149.97 49.2066C150.594 49.4531 151.249 49.6136 151.917 49.6837C152.284 49.7017 152.649 49.7535 153.007 49.8385C153.644 50.0278 154.286 50.5168 154.901 50.2663C155.283 50.111 155.407 49.7143 155.723 49.504C155.941 49.3588 156.769 49.1238 156.862 48.9773C157.61 47.7926 155.654 48.1916 155.079 48.2682Z" fill="#3F3D56"/>
<path d="M157.994 51.2818C157.107 51.7771 156.285 52.3789 155.544 53.0738C155.232 53.3667 154.914 53.7309 154.942 54.1576C154.979 54.7246 155.584 55.0535 156.108 55.2751L158.231 56.1725C158.488 55.8101 158.253 55.3098 157.986 54.9536C157.72 54.5975 157.404 54.1854 157.522 53.7568C157.656 53.2677 158.253 53.101 158.754 53.0167C159.57 52.8794 161.771 52.8905 161.506 51.5773C161.194 50.0301 158.813 50.8247 157.994 51.2818Z" fill="#3F3D56"/>
<path d="M157.567 138.842C157.365 139.426 157.346 140.115 157.696 140.625C158.088 141.197 158.873 141.41 159.552 141.265C160.228 141.086 160.831 140.699 161.275 140.159C161.682 139.706 162.016 139.194 162.267 138.641C162.616 137.778 162.863 136.876 163.001 135.956L163.66 132.5C163.808 131.728 163.802 129.36 162.381 130.132C161.992 130.343 161.093 132.006 160.686 132.478C159.953 133.329 159.856 134.154 159.47 135.184C158.986 136.474 158.014 137.55 157.567 138.842Z" fill="#3F3D56"/>
<path d="M232.635 156.525C232.17 156.344 231.719 156.129 231.285 155.883C230.849 157.078 230.618 158.338 230.6 159.61L233.782 157.811C234.261 157.541 234.804 157.165 234.793 156.615C234.798 156.548 234.783 156.48 234.753 156.419C234.722 156.359 234.675 156.308 234.617 156.272C234.547 156.243 234.47 156.234 234.394 156.245C233.922 156.285 233.492 156.517 233.047 156.678C232.602 156.839 232.081 156.924 231.673 156.685" fill="#3F3D56"/>
<path d="M249.423 157.593C249.073 157.688 248.732 157.81 248.402 157.959C247.672 158.33 247.175 159.035 246.518 159.523C245.889 159.991 245.132 160.248 244.389 160.498C244.17 160.691 244.271 161.079 244.508 161.249C244.763 161.394 245.056 161.459 245.348 161.437C246.12 161.454 246.934 161.462 247.61 161.089C247.991 160.843 248.348 160.56 248.675 160.245C249.466 159.586 250.415 159.152 251.355 158.732C251.697 158.603 252.014 158.414 252.289 158.174C252.88 157.593 252.922 156.696 252.07 156.498C251.382 156.339 250.078 157.381 249.423 157.593Z" fill="#3F3D56"/>
<path d="M256.84 152.754C256.878 152.354 256.825 151.951 256.684 151.575C256.544 151.198 256.319 150.859 256.028 150.582C256.019 151.382 255.995 152.234 255.544 152.896C255.223 153.367 254.72 153.686 254.368 154.135C254.016 154.584 253.86 155.295 254.273 155.689C254.536 155.89 254.858 156 255.189 156.005C256.01 156.101 256.961 156.155 257.537 155.562C257.851 155.239 258.004 154.76 258.388 154.522C258.53 154.462 258.658 154.371 258.761 154.255C258.919 154.004 258.668 153.673 258.384 153.582C258.101 153.492 257.789 153.534 257.505 153.448C257.22 153.362 256.959 153.043 257.105 152.784" fill="#3F3D56"/>
<path d="M243.657 123.421C243.226 123.525 242.78 123.551 242.34 123.498C241.609 123.364 241.04 122.814 240.449 122.362C239.046 121.295 237.34 120.7 235.577 120.662C233.973 120.632 232.354 121.066 230.779 120.763C230.882 121.335 231.372 121.764 231.894 122.019C232.417 122.273 232.994 122.402 233.519 122.651C234.36 123.055 235.027 123.748 235.398 124.604C235.567 124.998 235.674 125.427 235.93 125.771C236.454 126.475 237.446 126.629 238.322 126.572C239.464 126.497 240.657 126.169 241.72 126.594C242.533 126.919 243.114 127.629 243.793 128.182C244.472 128.734 245.428 129.144 246.207 128.746C245.398 128.484 244.693 127.971 244.196 127.281C243.7 126.591 243.437 125.76 243.446 124.911C244.21 124.981 246.412 124.954 246.293 123.657C246.193 122.557 244.313 123.302 243.657 123.421Z" fill="#3F3D56"/>
<path d="M233.658 132.364C233.793 131.621 234.536 130.964 234.304 130.245C234.144 129.747 233.567 129.502 233.044 129.489C232.521 129.477 232.007 129.633 231.484 129.647C231.143 129.629 230.802 129.634 230.462 129.662C229.424 129.832 228.784 130.919 227.805 131.306C227.21 131.541 226.542 131.496 225.923 131.658C224.518 132.027 223.63 133.353 222.648 134.421C221.061 136.14 218.994 137.344 216.715 137.877C215.916 138.061 215.058 138.18 214.423 138.698C213.582 139.384 213.375 140.56 213.188 141.627C212.671 144.577 211.882 147.472 210.829 150.276L214.165 150.701C214.799 150.782 215.456 150.861 216.067 150.673C216.511 150.506 216.931 150.282 217.318 150.008C218.803 149.087 220.466 148.487 222.198 148.249C223.071 148.129 223.987 148.107 224.807 148.431C225.626 148.755 226.33 149.491 226.398 150.368C226.753 150.258 227.131 150.246 227.491 150.334C227.852 150.422 228.182 150.605 228.446 150.866C228.969 151.397 229.311 152.079 229.424 152.815C229.512 153.271 229.6 153.817 230.023 154.008C230.369 154.164 230.765 153.996 231.143 153.966C232.425 153.863 233.489 155.357 234.75 155.099C236.101 154.824 236.433 152.802 237.752 152.397C238.509 152.164 239.572 152.447 239.934 151.744C240.254 151.123 239.616 150.408 239.682 149.713C239.763 148.858 240.773 148.495 241.551 148.131C244.235 146.873 245.509 143.265 244.209 140.604C243.438 139.028 241.922 137.787 241.642 136.055C241.426 134.722 241.952 133.168 241.101 132.12C240.669 131.586 239.936 131.291 239.678 130.655C239.516 130.254 239.581 129.799 239.494 129.376C239.407 128.953 239.037 128.51 238.619 128.62C237.403 128.938 237.016 132.687 236.365 133.598C235.376 134.982 233.346 134.07 233.658 132.364Z" fill="#3F3D56"/>
<path d="M211.198 124.837C210.783 124.721 210.329 124.606 209.932 124.772C209.534 124.938 209.301 125.522 209.621 125.811C212.119 125.714 214.632 125.618 217.109 125.956C219.963 126.347 222.787 127.314 225.654 127.029C224.016 126.547 222.352 126.161 220.669 125.874L217.863 125.339C217.11 125.181 216.35 125.064 215.585 124.987C213.984 124.855 212.772 125.278 211.198 124.837Z" fill="#3F3D56"/>
<path d="M213.699 116.148C213.492 116.131 213.235 116.116 213.128 116.294C213.025 116.464 213.142 116.689 213.087 116.879C213.012 117.14 212.67 117.207 212.401 117.171C212.132 117.136 211.84 117.051 211.602 117.18C211.481 117.263 211.39 117.382 211.343 117.521C211.295 117.66 211.294 117.81 211.34 117.949C211.437 118.225 211.595 118.476 211.802 118.684C212.155 119.128 212.557 119.531 213 119.885C213.859 120.518 215.022 120.823 215.563 121.741C215.639 121.919 215.756 122.077 215.905 122.201C216.165 122.366 216.503 122.241 216.783 122.113L217.762 121.666C217.939 121.603 218.096 121.496 218.22 121.355C218.444 121.052 218.307 120.62 218.119 120.294C217.931 119.967 217.691 119.629 217.731 119.254C217.803 118.586 218.663 118.331 219.016 117.759C219.373 117.183 219.141 116.441 219.182 115.765C219.23 114.974 219.727 113.946 218.927 113.355C218.247 112.853 217.597 113.317 217.109 113.871C216.079 115.04 215.592 116.306 213.699 116.148Z" fill="#3F3D56"/>
<path d="M219.646 104.336C219.981 104.976 220.678 105.358 221.043 105.981C221.438 106.656 221.393 107.528 221.822 108.182C222.262 108.854 223.148 109.21 223.394 109.974C223.664 110.808 223.053 111.821 223.54 112.55C223.631 112.669 223.745 112.768 223.877 112.84C224.008 112.913 224.153 112.957 224.302 112.971C224.451 112.985 224.602 112.967 224.744 112.92C224.886 112.872 225.017 112.796 225.128 112.695C225.333 112.472 225.443 112.177 225.434 111.874C225.425 111.571 225.298 111.283 225.08 111.072C224.791 110.81 224.377 110.696 224.136 110.389C224.011 110.212 223.927 110.009 223.892 109.795C223.76 109.177 223.781 108.537 223.953 107.93C224.017 107.776 224.034 107.606 224 107.442C223.891 107.127 223.465 107.105 223.165 106.959C222.485 106.627 222.501 105.668 222.62 104.922C222.541 105.419 220.768 104.573 220.582 104.292C220.213 103.732 220.414 102.653 220.341 102.035C219.544 102.418 219.237 103.554 219.646 104.336Z" fill="#3F3D56"/>
<path d="M201.781 114.178C201.454 113.812 200.961 113.429 200.522 113.65C200.187 113.818 200.095 114.28 200.226 114.631C200.386 114.972 200.632 115.265 200.94 115.481C201.855 116.234 202.84 116.914 203.637 117.79C205.065 119.357 205.821 121.471 207.374 122.914C207.686 123.249 208.099 123.472 208.55 123.55C209.003 123.592 209.511 123.303 209.563 122.852C209.606 122.481 209.346 122.149 209.093 121.874C208.49 121.218 207.83 120.615 207.26 119.931C206.997 119.668 206.832 119.323 206.792 118.954C206.789 118.585 207.126 118.199 207.483 118.29C207.048 118.179 206.726 117.456 206.087 117.32C205.554 117.206 205.425 117.536 204.79 117.264C203.579 116.745 202.629 115.126 201.781 114.178Z" fill="#3F3D56"/>
<path d="M230.233 78.5475C229.885 78.4444 229.544 78.3226 229.21 78.1825C228.311 77.913 227.121 78.573 227.241 79.5027C227.321 80.1205 227.896 80.537 228.214 81.0728C228.686 81.8675 228.56 82.8753 228.312 83.7652C228.252 84.0408 228.136 84.3013 227.972 84.5313C227.743 84.7741 227.47 84.9706 227.167 85.1101C225.952 85.79 224.882 86.6984 224.014 87.7851C223.919 87.8855 223.854 88.0092 223.823 88.1436C223.78 88.4575 224.096 88.6861 224.275 88.948C224.672 89.5296 224.385 90.3122 224.424 91.0149C224.418 91.1142 224.438 91.2135 224.481 91.3032C224.524 91.3929 224.589 91.4702 224.671 91.5276C224.91 91.6489 225.193 91.4428 225.323 91.2083C225.753 90.4299 225.429 89.1805 226.236 88.8052C226.389 88.7342 226.574 88.7043 226.676 88.5704C226.837 88.3579 226.681 88.0433 226.763 87.7894C226.886 87.4081 227.408 87.391 227.809 87.4079C228.499 87.4367 229.189 87.345 229.848 87.1368C230.107 87.0754 230.341 86.9397 230.523 86.7464C230.764 86.4458 230.743 86.0182 230.695 85.6359C230.453 83.7301 229.849 81.888 228.914 80.2091C229.623 80.2995 230.394 80.3779 231.006 80.0089C231.348 79.8023 231.759 79.1844 231.589 78.7639C231.321 78.0989 230.835 78.6587 230.233 78.5475Z" fill="#3F3D56"/>
<path d="M139.35 89.0294C139.435 89.4838 139.518 89.9623 139.369 90.3999C139.22 90.8375 138.751 91.2031 138.308 91.069C137.964 90.965 137.765 90.6198 137.521 90.3566C136.164 88.893 133.101 89.7404 132.263 87.9297C131.92 87.1907 132.153 86.3053 131.919 85.5252C131.772 85.0744 131.479 84.6851 131.086 84.4186C130.694 84.1521 130.223 84.0235 129.749 84.0529C129.317 84.1152 128.896 84.2407 128.5 84.4252C125.849 85.4857 123.065 86.1809 120.226 86.4919C119.687 86.5247 119.153 86.6217 118.637 86.7808C117.471 87.2029 116.674 88.2822 116.107 89.3836C115.541 90.485 115.122 91.6774 114.362 92.656C113.563 93.6844 112.444 94.4045 111.4 95.1835C110.998 95.4423 110.663 95.7928 110.423 96.2062C110.197 96.6703 110.209 97.2101 110.227 97.7259L110.44 103.992C110.468 104.798 110.502 105.632 110.863 106.354C111.314 107.254 112.205 107.844 112.824 108.64C113.454 109.457 113.783 110.467 113.754 111.499C113.74 111.914 113.699 112.405 114.023 112.665C114.219 112.792 114.45 112.859 114.684 112.855L123.171 113.549C124.664 113.671 126.318 113.871 127.293 115.007C127.753 115.543 128.123 116.314 128.827 116.372C129.129 116.396 129.424 116.273 129.726 116.249C130.489 116.188 131.158 116.766 131.581 117.403C132.221 118.374 132.512 119.533 132.405 120.69C132.336 121.416 132.11 122.122 132.062 122.85C131.877 125.62 134.228 128.027 134.274 130.803C134.3 132.436 133.524 133.961 132.768 135.409C133.989 137.257 132.989 139.717 133.475 141.877C133.936 143.927 135.647 145.531 136.074 147.588C136.269 148.529 136.28 149.688 137.111 150.173C137.476 150.351 137.881 150.431 138.286 150.408C140.73 150.437 143.146 149.887 145.336 148.805C146.364 148.295 147.43 147.535 147.609 146.403C147.754 145.49 147.29 144.469 147.762 143.673C148.318 142.736 149.743 142.81 150.561 142.09C151.888 140.921 150.853 138.691 151.391 137.008C151.874 135.494 153.538 134.69 154.363 133.332C154.687 132.748 154.92 132.117 155.054 131.462C155.431 129.898 155.667 128.302 155.756 126.695C155.778 125.718 155.85 124.743 155.972 123.774C156.861 118.257 162.323 114.562 164.096 109.262C164.266 108.756 164.345 108.081 163.894 107.795C163.627 107.668 163.324 107.636 163.036 107.705L159.123 108.198C158.638 108.259 158.122 108.316 157.676 108.115C157.23 107.913 156.91 107.349 157.147 106.921C157.811 105.719 156.444 104.2 155.837 102.968C154.202 99.6513 152.254 96.4971 150.021 93.5483C149.878 93.3966 149.789 93.2025 149.766 92.9954L150.876 93.0323C150.502 91.6892 149.883 90.2194 148.576 89.728C147.84 89.4512 147.025 89.5469 146.239 89.5898C143.989 89.7125 141.577 89.3733 139.35 89.0294Z" fill="#3F3D56"/>
<path d="M146.241 58.761C146.83 59.3855 147.49 60.0476 148.342 60.1564C149.846 60.3487 150.928 58.7947 151.617 57.4449C151.642 57.789 151.801 58.1096 152.06 58.3385C152.318 58.5674 152.656 58.6866 153.001 58.6706C153.373 58.6082 153.727 58.4698 154.043 58.2641C157.024 56.637 160.363 55.7749 163.761 55.7552C163.728 55.4982 163.792 55.2382 163.94 55.0254C164.088 54.8127 164.309 54.6622 164.562 54.603C165.253 54.4662 165.875 55.0626 166.208 55.6822C166.541 56.3017 166.749 57.0199 167.279 57.4836C167.808 57.9473 168.833 57.9271 169.042 57.2556C169.243 56.6109 168.57 56.0611 168.011 55.681C167.453 55.3009 166.864 54.5974 167.24 54.0364C170.095 53.4054 172.967 52.772 175.888 52.6465C176.385 52.6638 176.881 52.5786 177.343 52.3961C177.789 52.1778 178.143 51.6822 178.023 51.2014C177.386 51.351 176.718 51.3077 176.105 51.0769C175.493 50.8461 174.963 50.4383 174.583 49.9055C178.636 49.5715 182.947 49.2868 186.539 51.1914C186.97 52.1155 184.773 52.8843 185.361 53.7178C185.548 53.9836 185.924 54.0148 186.249 54.0209C188.745 54.0671 191.256 54.1125 193.724 53.7362C194.626 53.5986 195.537 53.4045 196.442 53.516C197.95 53.7018 199.24 54.7067 200.724 55.0344C201.328 55.1677 202.005 55.1723 202.514 54.8215C203.023 54.4707 203.242 53.672 202.825 53.2159C204.222 51.8486 206.54 52.1875 208.383 52.8421C210.226 53.4967 211.972 54.5524 213.923 54.6983C215.322 54.803 216.74 54.4272 218.122 54.6661C218.99 54.8162 219.799 55.202 220.648 55.4391C222.253 55.8875 223.952 55.7929 225.619 55.8144C229.872 55.8717 234.079 56.7065 238.031 58.2776C238.545 58.4447 239.016 58.7227 239.41 59.0917C239.778 59.485 239.966 60.0961 239.719 60.5742L235.635 59.9783C236.02 60.7348 237.015 60.8637 237.823 61.1246C238.632 61.3856 239.47 62.2772 238.984 62.9732C238.108 62.6947 237.314 63.5692 236.872 64.3739C236.43 65.1786 235.89 66.1423 234.972 66.1913C234.151 66.2352 233.156 65.5362 232.621 66.1603C233.361 67.0928 233.995 68.1048 234.51 69.1776C235.04 70.2788 235.417 71.6665 234.701 72.6573C234.589 72.8342 234.418 72.9664 234.218 73.0313C233.634 73.179 233.255 72.4651 232.836 72.0325C232.308 71.4873 231.509 71.3328 230.794 71.0771C230.079 70.8214 229.326 70.3184 229.27 69.562C229.235 69.0914 229.484 68.6539 229.667 68.2189C229.975 67.4857 230.11 66.6915 230.061 65.8979C230.021 65.2594 229.841 64.5953 229.382 64.1492C228.923 63.7032 228.13 63.5616 227.638 63.9702C227.408 64.1608 227.223 64.4658 226.925 64.4772C226.397 64.4973 225.992 63.5785 225.567 63.8922C225.617 64.2264 225.548 64.5674 225.371 64.8557C224.104 65.9561 222.158 65.4906 220.525 65.8793C219.748 66.1013 219.004 66.4256 218.313 66.8437C218.055 66.954 217.835 67.1384 217.681 67.3735C217.478 67.7692 217.702 68.2759 218.062 68.539C218.443 68.7724 218.871 68.9184 219.315 68.9664C221.307 69.343 223.327 69.926 224.899 71.2033C226.471 72.4806 227.502 74.592 227.005 76.554L223.078 72.8069C223.227 74.3802 223.312 75.9579 223.332 77.5399C223.357 77.8488 223.315 78.1595 223.207 78.4503C222.927 79.0678 222.169 79.2756 221.504 79.4119C221.319 79.447 221.143 79.5208 220.989 79.6283C220.835 79.7359 220.705 79.8749 220.608 80.0362C220.511 80.1974 220.45 80.3773 220.428 80.564C220.405 80.7506 220.423 80.9399 220.479 81.1193C220.716 81.8882 221.305 82.4877 221.844 83.0851C222.383 83.6824 222.914 84.3614 222.984 85.1626C223.055 85.9638 222.45 86.8669 221.646 86.8112C221.037 86.769 220.585 86.2245 220.326 85.6727C220.066 85.1209 219.911 84.5062 219.521 84.0374C218.339 82.6183 215.686 83.2263 214.627 81.7135C214.358 82.0191 214.17 82.3885 214.084 82.7867C213.997 83.1848 214.014 83.5985 214.132 83.9883C214.625 83.6805 215.299 83.9665 215.669 84.4138C216.039 84.8611 216.213 85.4346 216.504 85.937C216.896 86.6149 217.52 87.2159 217.574 87.9968C217.56 88.2921 217.565 88.588 217.589 88.8827C217.687 89.3559 218.087 89.6956 218.365 90.0911C219.011 91.0114 218.979 92.2757 218.562 93.3199C218.146 94.364 217.398 95.2365 216.657 96.0825C215.363 97.56 214.042 99.0288 212.507 100.256C212.07 100.606 211.602 100.95 211.33 101.44C211.057 101.929 211.043 102.616 211.462 102.989C211.162 103.004 210.624 103.151 210.325 103.166C210.219 101.965 210.196 100.758 210.256 99.5533C209.073 98.9859 207.799 100.505 207.951 101.807C208.104 103.109 209.047 104.154 209.718 105.281C210.209 106.104 210.574 107.065 210.41 108.009C210.246 108.954 209.402 109.825 208.446 109.742C206.925 109.609 206.289 107.429 204.782 107.179C204.65 107.148 204.51 107.162 204.386 107.218C204.162 107.341 204.124 107.64 204.111 107.894C204.049 109.143 203.996 110.441 204.484 111.592C205.198 113.276 207.043 114.691 206.656 116.478C204.571 115.51 203.488 113.176 202.996 110.934C202.504 108.692 202.422 106.338 201.54 104.218C200.87 105.075 199.462 104.367 198.85 103.467C198.27 102.615 197.913 101.628 197.35 100.764C196.787 99.9001 195.925 99.1263 194.894 99.0788C193.813 99.029 192.875 99.7699 192.051 100.47C191.373 101.046 190.677 101.644 190.28 102.44C189.704 103.598 189.854 104.963 189.827 106.256C189.797 107.653 189.5 109.128 188.546 110.152C187.592 111.175 185.831 111.531 184.779 110.609C184.23 110.128 183.964 109.408 183.727 108.718C182.585 105.389 181.634 101.998 180.878 98.5616C180.701 99.3459 180.012 100.357 179.353 99.8949C179.205 99.7707 179.085 99.6166 179.001 99.4427C177.772 97.3625 175.496 96.1147 173.197 95.3666C170.897 94.6184 168.478 94.2695 166.204 93.4472C164.929 92.9863 163.712 92.3808 162.576 91.6426C162.286 92.0675 162.117 92.5628 162.087 93.0759C162.056 93.589 162.165 94.1009 162.402 94.5572C162.906 95.4492 164.048 95.9653 165.025 95.6535C165.53 95.4924 165.956 95.1423 166.457 94.9694C166.958 94.7965 167.631 94.8814 167.85 95.3635C168.06 95.8249 167.743 96.3831 167.9 96.8649C168.139 97.5987 169.247 97.6552 169.635 98.323C169.923 98.8198 169.686 99.4795 169.274 99.8804C168.863 100.281 168.313 100.501 167.811 100.78C166.18 101.686 165.021 103.231 163.596 104.434C162.171 105.637 160.161 106.515 158.462 105.743C158.867 103.696 156.425 102.193 155.976 100.155C155.828 99.4848 155.905 98.7723 155.694 98.1186C155.388 97.1722 154.548 96.5216 153.858 95.8044C153.021 94.9251 152.37 93.8873 151.941 92.7524C151.513 91.6175 151.316 90.4083 151.363 89.1963C151.401 88.3541 151.556 87.4982 151.364 86.6773C151.171 85.8564 150.491 85.0619 149.648 85.0991C147.721 85.184 145.295 85.3271 144.284 83.6873C143.924 83.1021 143.767 82.2449 144.288 81.7965C144.656 81.4802 145.199 81.51 145.682 81.5575L150.022 81.9838C151.037 82.0836 152.134 82.1659 153.005 81.6359C153.876 81.106 154.254 79.6993 153.447 79.0758C152.858 78.6202 151.802 78.6449 151.631 77.9206C151.488 77.3174 152.157 76.6329 151.796 76.1288C151.537 75.7673 150.955 75.8676 150.602 76.1386C150.249 76.4096 149.993 76.8059 149.598 77.011C148.906 77.371 148.078 77.0284 147.333 76.7956C146.588 76.5628 145.59 76.543 145.228 77.2341C144.824 78.007 145.587 79.0197 145.186 79.7942C144.655 80.8181 142.859 80.2352 142.115 81.116C141.26 82.1266 142.696 83.6336 142.408 84.9248C142.04 85.1067 141.631 85.1903 141.221 85.1673C140.811 85.1443 140.414 85.0155 140.069 84.7935C139.729 84.5629 139.459 84.2446 139.286 83.8727C139.113 83.5007 139.044 83.0889 139.087 82.681C139.159 82.1002 139.462 81.5073 139.259 80.9584C139.094 80.5147 138.648 80.2505 138.234 80.0217L134.016 77.6943C133.625 78.4196 134.12 79.3189 134.739 79.8638C135.358 80.4086 136.133 80.819 136.54 81.536C136.797 82.0328 136.855 82.6089 136.701 83.1467C136.547 83.6846 136.194 84.1435 135.713 84.4298C135.653 84.4714 135.584 84.4994 135.512 84.512C135.44 84.5246 135.366 84.5214 135.295 84.5027C135.228 84.4632 135.169 84.4106 135.122 84.3481C135.076 84.2855 135.042 84.2143 135.024 84.1386C134.28 82.2368 133.162 80.3618 131.376 79.3684C129.59 78.375 127.024 78.5792 125.852 80.2527C125.574 80.6502 125.387 81.1033 125.145 81.5235C123.857 83.7562 121.097 84.8135 118.518 84.7444C118.266 84.7583 118.015 84.6994 117.795 84.5747C117.378 84.2873 117.397 83.6772 117.461 83.1754L117.732 81.0456C117.786 80.618 117.865 80.1452 118.204 79.8783C118.682 79.502 119.371 79.7394 119.979 79.7307C120.44 79.7091 120.883 79.5466 121.249 79.265C121.614 78.9834 121.884 78.5965 122.021 78.1566C122.144 77.7124 122.144 77.2432 122.019 76.7994C121.895 76.3556 121.652 75.9541 121.316 75.6383C121.037 75.3767 120.662 75.0481 120.81 74.6955C120.868 74.5979 120.948 74.5144 121.042 74.4508C121.137 74.3872 121.244 74.3451 121.357 74.3274C122.45 74.0105 123.605 73.9274 124.679 73.5534C125.754 73.1794 126.796 72.4142 127.051 71.3065C127.129 70.967 127.164 70.5557 127.47 70.3874C127.623 70.3228 127.787 70.2893 127.954 70.2887C128.536 70.2059 129.067 69.9083 129.441 69.4544C129.815 69.0006 130.005 68.4234 129.974 67.8365C130.489 67.477 131.211 67.7414 131.709 68.1237C132.207 68.506 132.647 69.011 133.253 69.1758C134.383 69.4829 135.475 68.4839 136.646 68.4792C137.138 68.4773 137.648 68.6512 138.111 68.4844C138.581 68.3154 138.861 67.8486 139.222 67.5036C139.582 67.1587 140.215 66.9483 140.548 67.3199L140.264 65.2234C140.835 65.3674 141.43 65.3877 142.009 65.2832C142.589 65.1786 143.139 64.9514 143.623 64.6169L139.96 63.3809C139.832 63.3491 139.715 63.2863 139.617 63.198C139.351 62.9116 139.616 62.4654 139.832 62.1398C140.35 61.3611 140.437 60.0782 139.585 59.6905C139.004 59.4259 138.336 59.7436 137.778 60.0543L135.105 61.5431C135.02 62.0506 135.641 62.3382 136.026 62.68C136.259 62.8869 136.424 63.1592 136.499 63.4614C136.575 63.7635 136.556 64.0813 136.448 64.3729C136.339 64.6646 136.144 64.9165 135.889 65.0956C135.634 65.2747 135.331 65.3726 135.019 65.3764C135.195 65.605 135.317 65.8702 135.377 66.1523C135.436 66.4345 135.431 66.7265 135.363 67.0066L133.564 67.1358C133.362 67.1763 133.152 67.1354 132.98 67.022C132.788 66.8514 132.814 66.5524 132.77 66.2993C132.662 65.6885 132.063 65.2604 131.452 65.1506C130.841 65.0408 130.215 65.1815 129.61 65.3205C129.353 65.4128 129.071 65.4063 128.818 65.3022C128.674 65.2083 128.564 65.0696 128.505 64.9074C128.24 64.2649 128.488 63.5096 128.914 62.9601C129.34 62.4107 129.924 62.009 130.448 61.5515C131.701 60.4536 132.621 59.0276 133.105 57.4346C134.096 57.0203 135.121 56.4573 136.111 56.043C137.638 55.271 139.35 54.9398 141.054 55.0864L144.408 55.1504C145.401 55.1693 146.421 55.1936 147.339 55.5716C148.257 55.9496 149.063 56.7672 149.127 57.7569C149.146 57.869 149.136 57.984 149.099 58.0913C149.061 58.1986 148.997 58.2945 148.912 58.3702C148.782 58.4409 148.635 58.4739 148.488 58.4656C147.562 58.4981 147.167 58.7286 146.241 58.761Z" fill="#3F3D56"/>
<path d="M119.512 69.2571C119.643 69.1333 119.737 68.9758 119.784 68.8019C119.831 68.628 119.83 68.4445 119.779 68.2715C119.46 68.1486 119.114 68.1171 118.778 68.1804C118.442 68.2437 118.131 68.3994 117.879 68.6299C117.68 68.8306 117.509 69.0567 117.369 69.3022C116.929 70.0202 116.539 70.8778 116.794 71.6804C116.815 71.7679 116.853 71.8504 116.906 71.923C116.96 71.9956 117.027 72.0569 117.104 72.1033C117.218 72.1491 117.342 72.1684 117.465 72.1597C117.95 72.1591 118.435 72.1293 118.917 72.0704C119.213 72.0343 119.557 71.9509 119.671 71.6759C119.821 71.3145 119.458 70.9055 119.564 70.5287C119.633 70.3602 119.739 70.209 119.873 70.0855C119.94 70.0234 119.991 69.9465 120.023 69.8612C120.055 69.7758 120.066 69.6842 120.056 69.5937C120.013 69.4169 119.742 69.3166 119.645 69.4702" fill="#3F3D56"/>
<path d="M122.029 65.9979C121.598 65.899 121.153 65.8711 120.713 65.9153C120.615 65.9124 120.519 65.9343 120.432 65.979C120.349 66.0407 120.288 66.1287 120.26 66.2289C120.167 66.5269 120.19 66.849 120.324 67.131C120.458 67.413 120.693 67.6341 120.983 67.7504C121.142 67.7867 121.293 67.8475 121.432 67.9306C121.805 68.219 121.567 68.8085 121.638 69.2737C121.717 69.796 122.223 70.2345 122.13 70.7546C122.057 71.1644 121.619 71.4888 121.689 71.8991C121.763 72.3287 122.309 72.4578 122.744 72.4922C122.997 72.5363 123.256 72.5066 123.492 72.4067C123.728 72.2454 123.896 72.0024 123.963 71.7246C124.142 71.1951 124.216 70.6363 124.184 70.0786C124.182 69.8249 124.118 69.5756 123.998 69.3521C123.867 69.175 123.722 69.0089 123.564 68.8554C122.73 67.8869 123.608 66.4423 122.029 65.9979Z" fill="#3F3D56"/>
<path opacity="0.8" d="M231.659 141.866C231.659 141.866 167.806 105.261 140.316 112.197C140.316 112.197 82.0571 118.458 75.3052 132.233C75.3052 132.233 56.7858 74.4363 50.0339 72.5097" stroke="#6C63FF" stroke-width="2" stroke-miterlimit="10"/>
<path opacity="0.8" d="M75.3052 132.233C86.0118 103.72 182.467 72.1244 182.467 72.1244C168.77 75.5922 140.316 112.197 140.316 112.197C140.316 112.197 80.128 68.4639 50.0339 72.5097C50.0339 72.5097 182.564 76.8445 231.659 141.866" stroke="#6C63FF" stroke-width="2" stroke-miterlimit="10"/>
<path d="M50.0339 75.3032C51.5788 75.3032 52.8311 74.0525 52.8311 72.5097C52.8311 70.9669 51.5788 69.7162 50.0339 69.7162C48.489 69.7162 47.2367 70.9669 47.2367 72.5097C47.2367 74.0525 48.489 75.3032 50.0339 75.3032Z" fill="#6C63FF"/>
<path d="M75.3053 135.027C76.8501 135.027 78.1025 133.776 78.1025 132.233C78.1025 130.691 76.8501 129.44 75.3053 129.44C73.7604 129.44 72.5081 130.691 72.5081 132.233C72.5081 133.776 73.7604 135.027 75.3053 135.027Z" fill="#6C63FF"/>
<path d="M182.467 74.9179C184.012 74.9179 185.264 73.6672 185.264 72.1244C185.264 70.5816 184.012 69.3309 182.467 69.3309C180.922 69.3309 179.67 70.5816 179.67 72.1244C179.67 73.6672 180.922 74.9179 182.467 74.9179Z" fill="#6C63FF"/>
<path d="M231.659 144.66C233.204 144.66 234.457 143.409 234.457 141.866C234.457 140.323 233.204 139.073 231.659 139.073C230.115 139.073 228.862 140.323 228.862 141.866C228.862 143.409 230.115 144.66 231.659 144.66Z" fill="#6C63FF"/>
<path d="M140.316 114.991C141.861 114.991 143.113 113.74 143.113 112.197C143.113 110.654 141.861 109.403 140.316 109.403C138.771 109.403 137.519 110.654 137.519 112.197C137.519 113.74 138.771 114.991 140.316 114.991Z" fill="#6C63FF"/>
</g>
<defs>
<clipPath id="clip0">
<rect width="275" height="204" fill="white"/>
</clipPath>
</defs>
</svg>
