<svg width="131" height="13" viewBox="0 0 131 13" fill="none" xmlns="http://www.w3.org/2000/svg">
<path d="M13.0918 8.26758L16.2432 0.385742H19.4014L14.6709 12.9912H11.5195L9.94043 8.78711L8.36816 12.9912H5.2168L0.486328 0.385742H3.64453L6.78906 8.26758L8.31348 4.44629L9.94043 0.385742H9.9541L11.5742 4.44629L13.0918 8.26758ZM27.7139 0.385742C28.5843 0.385742 29.4001 0.549805 30.1611 0.87793C30.9268 1.20605 31.5967 1.65723 32.1709 2.23145C32.7497 2.80566 33.2008 3.47559 33.5244 4.24121C33.8525 5.00228 34.0166 5.81803 34.0166 6.68848C34.0166 7.55892 33.8525 8.37695 33.5244 9.14258C33.2008 9.90365 32.7497 10.5736 32.1709 11.1523C31.5967 11.7266 30.9268 12.1755 30.1611 12.499C29.4001 12.8271 28.5843 12.9912 27.7139 12.9912C26.8434 12.9912 26.0254 12.8271 25.2598 12.499C24.4987 12.1755 23.8311 11.7266 23.2568 11.1523C22.6826 10.5736 22.2314 9.90365 21.9033 9.14258C21.5752 8.37695 21.4111 7.55892 21.4111 6.68848C21.4111 6.14616 21.4772 5.61979 21.6094 5.10938H24.9863C24.7038 5.58789 24.5625 6.11426 24.5625 6.68848C24.5625 7.26725 24.7038 7.7959 24.9863 8.27441C25.2689 8.75293 25.6494 9.13346 26.1279 9.41602C26.6064 9.69857 27.1351 9.83984 27.7139 9.83984C28.2926 9.83984 28.8213 9.69857 29.2998 9.41602C29.7783 9.13346 30.1589 8.75293 30.4414 8.27441C30.724 7.7959 30.8652 7.26725 30.8652 6.68848C30.8652 6.1097 30.724 5.58105 30.4414 5.10254C30.1589 4.62402 29.7783 4.24349 29.2998 3.96094C28.8213 3.67839 28.2926 3.53711 27.7139 3.53711H22.252C22.6211 2.90365 23.0814 2.35221 23.6328 1.88281C24.1888 1.41341 24.8132 1.04655 25.5059 0.782227C26.1986 0.517904 26.9346 0.385742 27.7139 0.385742ZM39.3281 0.385742V9.83984H45.624V12.9912H38.8701H36.1699V0.385742H39.3281ZM47.668 3.53711V0.385742H60.2803V3.53711H47.668ZM47.668 12.9912V5.10938H60.2803V8.26758H50.833V12.9912H47.668ZM62.4199 3.37988C62.4199 2.82845 62.5544 2.32715 62.8232 1.87598C63.0921 1.42025 63.4521 1.05794 63.9033 0.789062C64.359 0.520182 64.8626 0.385742 65.4141 0.385742H75.0254V3.53711H66.3027C66.0977 3.53711 65.9245 3.61003 65.7832 3.75586C65.6419 3.89714 65.5713 4.06803 65.5713 4.26855V4.35742C65.5713 4.56706 65.6442 4.74479 65.79 4.89062C65.9404 5.03646 66.1182 5.10938 66.3232 5.10938H71.9697C72.5303 5.10938 73.0407 5.24837 73.501 5.52637C73.9658 5.7998 74.335 6.16895 74.6084 6.63379C74.8864 7.09408 75.0254 7.60677 75.0254 8.17188V9.91504C75.0254 10.4847 74.8864 11.002 74.6084 11.4668C74.3304 11.9316 73.959 12.3008 73.4941 12.5742C73.0293 12.8522 72.5143 12.9912 71.9492 12.9912H62.4199V9.83984H71.0879C71.3021 9.83984 71.4867 9.76465 71.6416 9.61426C71.7965 9.45931 71.874 9.27246 71.874 9.05371C71.874 8.83496 71.7965 8.65039 71.6416 8.5C71.4867 8.34505 71.3021 8.26758 71.0879 8.26758H65.25C64.7305 8.26758 64.2542 8.13997 63.8213 7.88477C63.3929 7.62956 63.0511 7.28776 62.7959 6.85938C62.5452 6.43099 62.4199 5.95475 62.4199 5.43066V3.37988ZM77.0967 3.54395V0.392578H89.709V3.54395H84.9785V8.27441V9.84668V12.998H81.8271V9.84668V8.27441V3.54395H77.0967ZM94.5078 0.385742H97.6523L102.383 12.9912H99.2314L96.0801 5.10938L92.9355 12.9912H89.7773L94.5078 0.385742ZM107.626 8.16504C107.626 8.62533 107.788 9.01953 108.111 9.34766C108.439 9.67122 108.836 9.83301 109.301 9.83301H117.08V12.9844H107.394C106.856 12.9844 106.366 12.8522 105.924 12.5879C105.482 12.3281 105.129 11.9772 104.864 11.5352C104.604 11.0931 104.475 10.6032 104.475 10.0654V5.10254H107.626V8.16504ZM104.475 3.41406C104.475 2.85807 104.611 2.34993 104.885 1.88965C105.158 1.42936 105.525 1.0625 105.985 0.789062C106.446 0.515625 106.954 0.378906 107.51 0.378906H117.08V3.53027H104.475V3.41406ZM126.322 0.385742H130.103L125.051 6.70898L130.068 12.9912H126.288L123.157 9.08105L122.275 10.1816L122.269 12.9912H119.117V0.385742H122.269V5.45117L126.322 0.385742Z" fill="#EAB9F6"/>
</svg>
